<ttFont>
    <TTGlyph name=".notdef" xMin="123" yMin="-350" xMax="543" yMax="1050">
      <contour>
        <pt x="543" y="-350" on="1"/>
        <pt x="123" y="-350" on="1"/>
        <pt x="123" y="1050" on="1"/>
        <pt x="543" y="1050" on="1"/>
      </contour>
      <contour>
        <pt x="178" y="998" on="1"/>
        <pt x="178" y="-298" on="1"/>
        <pt x="489" y="-298" on="1"/>
        <pt x="489" y="998" on="1"/>
      </contour>
      <contour>
        <pt x="384" y="451" on="0"/>
        <pt x="435" y="387" on="0"/>
        <pt x="435" y="336" on="1"/>
        <pt x="435" y="283" on="0"/>
        <pt x="390" y="225" on="0"/>
        <pt x="340" y="218" on="1"/>
        <pt x="340" y="173" on="1"/>
        <pt x="340" y="162" on="0"/>
        <pt x="325" y="149" on="0"/>
        <pt x="315" y="149" on="1"/>
        <pt x="305" y="149" on="0"/>
        <pt x="290" y="162" on="0"/>
        <pt x="290" y="173" on="1"/>
        <pt x="290" y="257" on="1"/>
        <pt x="343" y="260" on="0"/>
        <pt x="381" y="293" on="0"/>
        <pt x="381" y="334" on="1"/>
        <pt x="381" y="367" on="0"/>
        <pt x="355" y="403" on="0"/>
        <pt x="320" y="403" on="1"/>
        <pt x="291" y="403" on="0"/>
        <pt x="268" y="392" on="1"/>
        <pt x="260" y="389" on="0"/>
        <pt x="255" y="389" on="1"/>
        <pt x="244" y="389" on="0"/>
        <pt x="231" y="402" on="0"/>
        <pt x="231" y="412" on="1"/>
        <pt x="231" y="431" on="0"/>
        <pt x="290" y="451" on="0"/>
        <pt x="324" y="451" on="1"/>
      </contour>
      <contour>
        <pt x="330" y="120" on="0"/>
        <pt x="350" y="100" on="0"/>
        <pt x="350" y="85" on="1"/>
        <pt x="350" y="69" on="0"/>
        <pt x="330" y="48" on="0"/>
        <pt x="315" y="48" on="1"/>
        <pt x="300" y="48" on="0"/>
        <pt x="280" y="69" on="0"/>
        <pt x="280" y="85" on="1"/>
        <pt x="280" y="100" on="0"/>
        <pt x="300" y="120" on="0"/>
        <pt x="315" y="120" on="1"/>
      </contour>
    </TTGlyph>
    <TTGlyph name="A" xMin="8" yMin="0" xMax="564" yMax="688">
      <contour>
        <pt x="417" y="176" on="1"/>
        <pt x="151" y="176" on="1"/>
        <pt x="98" y="0" on="1"/>
        <pt x="8" y="0" on="1"/>
        <pt x="230" y="688" on="1"/>
        <pt x="342" y="688" on="1"/>
        <pt x="564" y="0" on="1"/>
        <pt x="470" y="0" on="1"/>
      </contour>
      <contour>
        <pt x="395" y="248" on="1"/>
        <pt x="284" y="615" on="1"/>
        <pt x="173" y="248" on="1"/>
      </contour>
    </TTGlyph>
    <TTGlyph name="AE" xMin="-10" yMin="0" xMax="758" yMax="688">
      <contour>
        <pt x="758" y="71" on="1"/>
        <pt x="758" y="0" on="1"/>
        <pt x="459" y="0" on="1"/>
        <pt x="417" y="175" on="1"/>
        <pt x="147" y="175" on="1"/>
        <pt x="81" y="0" on="1"/>
        <pt x="-10" y="0" on="1"/>
        <pt x="263" y="688" on="1"/>
        <pt x="715" y="688" on="1"/>
        <pt x="705" y="617" on="1"/>
        <pt x="393" y="617" on="1"/>
        <pt x="451" y="386" on="1"/>
        <pt x="707" y="386" on="1"/>
        <pt x="707" y="314" on="1"/>
        <pt x="469" y="314" on="1"/>
        <pt x="530" y="71" on="1"/>
      </contour>
      <contour>
        <pt x="400" y="247" on="1"/>
        <pt x="314" y="617" on="1"/>
        <pt x="174" y="247" on="1"/>
      </contour>
    </TTGlyph>
    <TTGlyph name="AEacute" xMin="-10" yMin="0" xMax="758" yMax="907">
      <component glyphName="AE" x="0" y="0" flags="0x0"/>
      <component glyphName="acutecomb.case" x="614" y="0" flags="0x0"/>
    </TTGlyph>
    <TTGlyph name="Aacute" xMin="8" yMin="0" xMax="564" yMax="907">
      <component glyphName="A" x="0" y="0" flags="0x0"/>
      <component glyphName="acutecomb.case" x="429" y="0" flags="0x0"/>
    </TTGlyph>
    <TTGlyph name="Abreve" xMin="8" yMin="0" xMax="564" yMax="890">
      <component glyphName="A" x="0" y="0" flags="0x0"/>
      <component glyphName="uni0306.case" x="461" y="0" flags="0x0"/>
    </TTGlyph>
    <TTGlyph name="Acircumflex" xMin="8" yMin="0" xMax="564" yMax="910">
      <component glyphName="A" x="0" y="0" flags="0x0"/>
      <component glyphName="uni0302.case" x="479" y="0" flags="0x0"/>
    </TTGlyph>
    <TTGlyph name="Adieresis" xMin="8" yMin="0" xMax="564" yMax="889">
      <component glyphName="A" x="0" y="0" flags="0x0"/>
      <component glyphName="uni0308.case" x="473" y="0" flags="0x0"/>
    </TTGlyph>
    <TTGlyph name="Agrave" xMin="8" yMin="0" xMax="564" yMax="907">
      <component glyphName="A" x="0" y="0" flags="0x0"/>
      <component glyphName="gravecomb.case" x="420" y="0" flags="0x0"/>
    </TTGlyph>
    <TTGlyph name="Alpha" xMin="8" yMin="0" xMax="564" yMax="688">
      <contour>
        <pt x="417" y="176" on="1"/>
        <pt x="151" y="176" on="1"/>
        <pt x="98" y="0" on="1"/>
        <pt x="8" y="0" on="1"/>
        <pt x="230" y="688" on="1"/>
        <pt x="342" y="688" on="1"/>
        <pt x="564" y="0" on="1"/>
        <pt x="470" y="0" on="1"/>
      </contour>
      <contour>
        <pt x="395" y="248" on="1"/>
        <pt x="284" y="615" on="1"/>
        <pt x="173" y="248" on="1"/>
      </contour>
    </TTGlyph>
    <TTGlyph name="Alphatonos" xMin="30" yMin="0" xMax="590" yMax="705">
      <component glyphName="tonos.case" x="0" y="0" flags="0x0"/>
      <component glyphName="A" x="26" y="0" flags="0x0"/>
    </TTGlyph>
    <TTGlyph name="Amacron" xMin="8" yMin="0" xMax="564" yMax="860">
      <component glyphName="A" x="0" y="0" flags="0x0"/>
      <component glyphName="uni0304.case" x="448" y="0" flags="0x0"/>
    </TTGlyph>
    <TTGlyph name="Aogonek" xMin="8" yMin="-229" xMax="564" yMax="688">
      <contour>
        <pt x="457" y="-30" on="0"/>
        <pt x="405" y="-84" on="0"/>
        <pt x="405" y="-115" on="1"/>
        <pt x="405" y="-139" on="0"/>
        <pt x="432" y="-163" on="0"/>
        <pt x="462" y="-163" on="1"/>
        <pt x="490" y="-163" on="0"/>
        <pt x="522" y="-156" on="1"/>
        <pt x="514" y="-223" on="1"/>
        <pt x="484" y="-229" on="0"/>
        <pt x="452" y="-229" on="1"/>
        <pt x="396" y="-229" on="0"/>
        <pt x="329" y="-174" on="0"/>
        <pt x="329" y="-130" on="1"/>
        <pt x="329" y="-83" on="0"/>
        <pt x="396" y="-12" on="0"/>
        <pt x="466" y="15" on="1"/>
        <pt x="417" y="176" on="1"/>
        <pt x="151" y="176" on="1"/>
        <pt x="98" y="0" on="1"/>
        <pt x="8" y="0" on="1"/>
        <pt x="230" y="688" on="1"/>
        <pt x="342" y="688" on="1"/>
        <pt x="564" y="0" on="1"/>
        <pt x="528" y="0" on="1"/>
      </contour>
      <contour>
        <pt x="395" y="248" on="1"/>
        <pt x="284" y="615" on="1"/>
        <pt x="173" y="248" on="1"/>
      </contour>
    </TTGlyph>
    <TTGlyph name="Aring" xMin="8" yMin="0" xMax="564" yMax="959">
      <component glyphName="A" x="0" y="0" flags="0x0"/>
      <component glyphName="uni030A.case" x="427" y="0" flags="0x0"/>
    </TTGlyph>
    <TTGlyph name="Aringacute" xMin="8" yMin="0" xMax="564" yMax="1096">
      <contour>
        <pt x="193" y="945" on="1"/>
        <pt x="170" y="991" on="1"/>
        <pt x="368" y="1096" on="1"/>
        <pt x="405" y="1023" on="1"/>
      </contour>
      <contour>
        <pt x="174" y="878" on="0"/>
        <pt x="237" y="937" on="0"/>
        <pt x="285" y="937" on="1"/>
        <pt x="334" y="937" on="0"/>
        <pt x="397" y="878" on="0"/>
        <pt x="397" y="833" on="1"/>
        <pt x="397" y="789" on="0"/>
        <pt x="334" y="730" on="0"/>
        <pt x="285" y="730" on="1"/>
        <pt x="237" y="730" on="0"/>
        <pt x="174" y="789" on="0"/>
        <pt x="174" y="833" on="1"/>
      </contour>
      <contour>
        <pt x="339" y="860" on="0"/>
        <pt x="311" y="890" on="0"/>
        <pt x="285" y="890" on="1"/>
        <pt x="260" y="890" on="0"/>
        <pt x="232" y="860" on="0"/>
        <pt x="232" y="833" on="1"/>
        <pt x="232" y="807" on="0"/>
        <pt x="260" y="777" on="0"/>
        <pt x="285" y="777" on="1"/>
        <pt x="310" y="777" on="0"/>
        <pt x="339" y="807" on="0"/>
        <pt x="339" y="833" on="1"/>
      </contour>
      <contour>
        <pt x="417" y="176" on="1"/>
        <pt x="151" y="176" on="1"/>
        <pt x="98" y="0" on="1"/>
        <pt x="8" y="0" on="1"/>
        <pt x="230" y="688" on="1"/>
        <pt x="342" y="688" on="1"/>
        <pt x="564" y="0" on="1"/>
        <pt x="470" y="0" on="1"/>
      </contour>
      <contour>
        <pt x="395" y="248" on="1"/>
        <pt x="284" y="615" on="1"/>
        <pt x="173" y="248" on="1"/>
      </contour>
    </TTGlyph>
    <TTGlyph name="Atilde" xMin="8" yMin="0" xMax="564" yMax="897">
      <component glyphName="A" x="0" y="0" flags="0x0"/>
      <component glyphName="tildecomb.case" x="476" y="0" flags="0x0"/>
    </TTGlyph>
    <TTGlyph name="B" xMin="102" yMin="0" xMax="560" yMax="688">
      <contour>
        <pt x="560" y="338" on="0"/>
        <pt x="560" y="195" on="1"/>
        <pt x="560" y="0" on="0"/>
        <pt x="291" y="0" on="1"/>
        <pt x="102" y="0" on="1"/>
        <pt x="102" y="688" on="1"/>
        <pt x="263" y="688" on="1"/>
        <pt x="392" y="688" on="0"/>
        <pt x="529" y="602" on="0"/>
        <pt x="529" y="515" on="1"/>
        <pt x="529" y="454" on="0"/>
        <pt x="456" y="375" on="0"/>
        <pt x="401" y="364" on="1"/>
      </contour>
      <contour>
        <pt x="191" y="618" on="1"/>
        <pt x="191" y="395" on="1"/>
        <pt x="301" y="395" on="1"/>
        <pt x="362" y="395" on="0"/>
        <pt x="439" y="454" on="0"/>
        <pt x="439" y="508" on="1"/>
        <pt x="439" y="570" on="0"/>
        <pt x="357" y="618" on="0"/>
        <pt x="273" y="618" on="1"/>
      </contour>
      <contour>
        <pt x="376" y="71" on="0"/>
        <pt x="466" y="125" on="0"/>
        <pt x="466" y="195" on="1"/>
        <pt x="466" y="264" on="0"/>
        <pt x="379" y="326" on="0"/>
        <pt x="309" y="326" on="1"/>
        <pt x="191" y="326" on="1"/>
        <pt x="191" y="71" on="1"/>
        <pt x="291" y="71" on="1"/>
      </contour>
    </TTGlyph>
    <TTGlyph name="Beta" xMin="102" yMin="0" xMax="560" yMax="688">
      <component glyphName="B" x="0" y="0" flags="0x0"/>
    </TTGlyph>
    <TTGlyph name="C" xMin="57" yMin="-12" xMax="538" yMax="700">
      <contour>
        <pt x="402" y="700" on="0"/>
        <pt x="486" y="668" on="0"/>
        <pt x="530" y="633" on="1"/>
        <pt x="481" y="576" on="1"/>
        <pt x="449" y="602" on="0"/>
        <pt x="384" y="627" on="0"/>
        <pt x="347" y="627" on="1"/>
        <pt x="259" y="627" on="0"/>
        <pt x="151" y="492" on="0"/>
        <pt x="151" y="345" on="1"/>
        <pt x="151" y="202" on="0"/>
        <pt x="258" y="63" on="0"/>
        <pt x="346" y="63" on="1"/>
        <pt x="390" y="63" on="0"/>
        <pt x="453" y="92" on="0"/>
        <pt x="493" y="121" on="1"/>
        <pt x="538" y="64" on="1"/>
        <pt x="506" y="31" on="0"/>
        <pt x="406" y="-12" on="0"/>
        <pt x="343" y="-12" on="1"/>
        <pt x="259" y="-12" on="0"/>
        <pt x="130" y="71" on="0"/>
        <pt x="57" y="232" on="0"/>
        <pt x="57" y="345" on="1"/>
        <pt x="57" y="458" on="0"/>
        <pt x="133" y="618" on="0"/>
        <pt x="262" y="700" on="0"/>
        <pt x="341" y="700" on="1"/>
      </contour>
    </TTGlyph>
    <TTGlyph name="Cacute" xMin="57" yMin="-12" xMax="538" yMax="907">
      <component glyphName="C" x="0" y="0" flags="0x0"/>
      <component glyphName="acutecomb.case" x="490" y="0" flags="0x0"/>
    </TTGlyph>
    <TTGlyph name="Cacute.loclPLK" xMin="57" yMin="-12" xMax="538" yMax="923">
      <component glyphName="C" x="0" y="0" flags="0x0"/>
      <component glyphName="acute.case.loclPLK" x="201" y="0" flags="0x0"/>
    </TTGlyph>
    <TTGlyph name="Ccaron" xMin="57" yMin="-12" xMax="538" yMax="905">
      <component glyphName="C" x="0" y="0" flags="0x0"/>
      <component glyphName="uni030C.case" x="538" y="0" flags="0x0"/>
    </TTGlyph>
    <TTGlyph name="Ccedilla" xMin="57" yMin="-239" xMax="538" yMax="700">
      <contour>
        <pt x="509" y="35" on="0"/>
        <pt x="426" y="-5" on="0"/>
        <pt x="373" y="-10" on="1"/>
        <pt x="373" y="-57" on="1"/>
        <pt x="420" y="-61" on="0"/>
        <pt x="466" y="-108" on="0"/>
        <pt x="466" y="-141" on="1"/>
        <pt x="466" y="-187" on="0"/>
        <pt x="397" y="-239" on="0"/>
        <pt x="345" y="-239" on="1"/>
        <pt x="288" y="-239" on="0"/>
        <pt x="256" y="-215" on="1"/>
        <pt x="280" y="-166" on="1"/>
        <pt x="309" y="-182" on="0"/>
        <pt x="342" y="-182" on="1"/>
        <pt x="365" y="-182" on="0"/>
        <pt x="393" y="-162" on="0"/>
        <pt x="393" y="-141" on="1"/>
        <pt x="393" y="-120" on="0"/>
        <pt x="351" y="-99" on="0"/>
        <pt x="304" y="-98" on="1"/>
        <pt x="315" y="-11" on="1"/>
        <pt x="239" y="-4" on="0"/>
        <pt x="122" y="83" on="0"/>
        <pt x="57" y="238" on="0"/>
        <pt x="57" y="345" on="1"/>
        <pt x="57" y="458" on="0"/>
        <pt x="133" y="618" on="0"/>
        <pt x="262" y="700" on="0"/>
        <pt x="341" y="700" on="1"/>
        <pt x="402" y="700" on="0"/>
        <pt x="486" y="668" on="0"/>
        <pt x="530" y="633" on="1"/>
        <pt x="481" y="576" on="1"/>
        <pt x="449" y="602" on="0"/>
        <pt x="384" y="627" on="0"/>
        <pt x="347" y="627" on="1"/>
        <pt x="259" y="627" on="0"/>
        <pt x="151" y="492" on="0"/>
        <pt x="151" y="345" on="1"/>
        <pt x="151" y="202" on="0"/>
        <pt x="258" y="63" on="0"/>
        <pt x="346" y="63" on="1"/>
        <pt x="390" y="63" on="0"/>
        <pt x="453" y="92" on="0"/>
        <pt x="493" y="121" on="1"/>
        <pt x="538" y="64" on="1"/>
      </contour>
    </TTGlyph>
    <TTGlyph name="Ccircumflex" xMin="57" yMin="-12" xMax="538" yMax="910">
      <component glyphName="C" x="0" y="0" flags="0x0"/>
      <component glyphName="uni0302.case" x="539" y="0" flags="0x0"/>
    </TTGlyph>
    <TTGlyph name="Cdotaccent" xMin="57" yMin="-12" xMax="538" yMax="901">
      <component glyphName="C" x="0" y="0" flags="0x0"/>
      <component glyphName="uni0307.case" x="435" y="0" flags="0x0"/>
    </TTGlyph>
    <TTGlyph name="Chi" xMin="6" yMin="0" xMax="529" yMax="688">
      <component glyphName="X" x="0" y="0" flags="0x0"/>
    </TTGlyph>
    <TTGlyph name="D" xMin="102" yMin="0" xMax="585" yMax="688">
      <contour>
        <pt x="399" y="688" on="0"/>
        <pt x="585" y="543" on="0"/>
        <pt x="585" y="348" on="1"/>
        <pt x="585" y="156" on="0"/>
        <pt x="398" y="0" on="0"/>
        <pt x="264" y="0" on="1"/>
        <pt x="102" y="0" on="1"/>
        <pt x="102" y="688" on="1"/>
        <pt x="244" y="688" on="1"/>
      </contour>
      <contour>
        <pt x="191" y="617" on="1"/>
        <pt x="191" y="71" on="1"/>
        <pt x="270" y="71" on="1"/>
        <pt x="368" y="71" on="0"/>
        <pt x="491" y="191" on="0"/>
        <pt x="491" y="348" on="1"/>
        <pt x="491" y="459" on="0"/>
        <pt x="428" y="577" on="0"/>
        <pt x="329" y="617" on="0"/>
        <pt x="263" y="617" on="1"/>
      </contour>
    </TTGlyph>
    <TTGlyph name="Dcaron" xMin="102" yMin="0" xMax="585" yMax="905">
      <component glyphName="D" x="0" y="0" flags="0x0"/>
      <component glyphName="uni030C.case" x="494" y="0" flags="0x0"/>
    </TTGlyph>
    <TTGlyph name="Dcroat" xMin="20" yMin="0" xMax="596" yMax="688">
      <component glyphName="Eth" x="0" y="0" flags="0x0"/>
    </TTGlyph>
    <TTGlyph name="Delta" xMin="8" yMin="0" xMax="574" yMax="688">
      <contour>
        <pt x="574" y="0" on="1"/>
        <pt x="8" y="0" on="1"/>
        <pt x="235" y="688" on="1"/>
        <pt x="347" y="688" on="1"/>
      </contour>
      <contour>
        <pt x="119" y="73" on="1"/>
        <pt x="459" y="73" on="1"/>
        <pt x="290" y="614" on="1"/>
      </contour>
    </TTGlyph>
    <TTGlyph name="E" xMin="102" yMin="0" xMax="478" yMax="688">
      <contour>
        <pt x="460" y="617" on="1"/>
        <pt x="191" y="617" on="1"/>
        <pt x="191" y="387" on="1"/>
        <pt x="425" y="387" on="1"/>
        <pt x="425" y="315" on="1"/>
        <pt x="191" y="315" on="1"/>
        <pt x="191" y="71" on="1"/>
        <pt x="478" y="71" on="1"/>
        <pt x="478" y="0" on="1"/>
        <pt x="102" y="0" on="1"/>
        <pt x="102" y="688" on="1"/>
        <pt x="470" y="688" on="1"/>
      </contour>
    </TTGlyph>
    <TTGlyph name="Eacute" xMin="102" yMin="0" xMax="478" yMax="907">
      <component glyphName="E" x="0" y="0" flags="0x0"/>
      <component glyphName="acutecomb.case" x="433" y="0" flags="0x0"/>
    </TTGlyph>
    <TTGlyph name="Ebreve" xMin="102" yMin="0" xMax="478" yMax="890">
      <component glyphName="E" x="0" y="0" flags="0x0"/>
      <component glyphName="uni0306.case" x="465" y="0" flags="0x0"/>
    </TTGlyph>
    <TTGlyph name="Ecaron" xMin="102" yMin="0" xMax="478" yMax="905">
      <component glyphName="E" x="0" y="0" flags="0x0"/>
      <component glyphName="uni030C.case" x="481" y="0" flags="0x0"/>
    </TTGlyph>
    <TTGlyph name="Ecircumflex" xMin="102" yMin="0" xMax="478" yMax="910">
      <component glyphName="E" x="0" y="0" flags="0x0"/>
      <component glyphName="uni0302.case" x="482" y="0" flags="0x0"/>
    </TTGlyph>
    <TTGlyph name="Edieresis" xMin="102" yMin="0" xMax="478" yMax="889">
      <component glyphName="E" x="0" y="0" flags="0x0"/>
      <component glyphName="uni0308.case" x="477" y="0" flags="0x0"/>
    </TTGlyph>
    <TTGlyph name="Edotaccent" xMin="102" yMin="0" xMax="478" yMax="901">
      <component glyphName="E" x="0" y="0" flags="0x0"/>
      <component glyphName="uni0307.case" x="379" y="0" flags="0x0"/>
    </TTGlyph>
    <TTGlyph name="Egrave" xMin="102" yMin="0" xMax="478" yMax="907">
      <component glyphName="E" x="0" y="0" flags="0x0"/>
      <component glyphName="gravecomb.case" x="424" y="0" flags="0x0"/>
    </TTGlyph>
    <TTGlyph name="Emacron" xMin="102" yMin="0" xMax="478" yMax="860">
      <component glyphName="E" x="0" y="0" flags="0x0"/>
      <component glyphName="uni0304.case" x="452" y="0" flags="0x0"/>
    </TTGlyph>
    <TTGlyph name="Eng" xMin="102" yMin="-212" xMax="579" yMax="688">
      <contour>
        <pt x="579" y="-59" on="1"/>
        <pt x="579" y="-134" on="0"/>
        <pt x="501" y="-212" on="0"/>
        <pt x="433" y="-212" on="1"/>
        <pt x="370" y="-212" on="0"/>
        <pt x="320" y="-174" on="1"/>
        <pt x="354" y="-117" on="1"/>
        <pt x="374" y="-129" on="0"/>
        <pt x="405" y="-140" on="0"/>
        <pt x="428" y="-140" on="1"/>
        <pt x="490" y="-140" on="0"/>
        <pt x="490" y="-65" on="1"/>
        <pt x="490" y="0" on="1"/>
        <pt x="461" y="0" on="1"/>
        <pt x="173" y="591" on="1"/>
        <pt x="185" y="459" on="0"/>
        <pt x="185" y="328" on="1"/>
        <pt x="185" y="0" on="1"/>
        <pt x="102" y="0" on="1"/>
        <pt x="102" y="688" on="1"/>
        <pt x="218" y="688" on="1"/>
        <pt x="508" y="96" on="1"/>
        <pt x="496" y="210" on="0"/>
        <pt x="496" y="305" on="1"/>
        <pt x="496" y="688" on="1"/>
        <pt x="579" y="688" on="1"/>
      </contour>
    </TTGlyph>
    <TTGlyph name="Eng.ss01" xMin="102" yMin="-212" xMax="576" yMax="700">
      <contour>
        <pt x="576" y="-134" on="0"/>
        <pt x="497" y="-212" on="0"/>
        <pt x="429" y="-212" on="1"/>
        <pt x="366" y="-212" on="0"/>
        <pt x="316" y="-174" on="1"/>
        <pt x="350" y="-117" on="1"/>
        <pt x="370" y="-129" on="0"/>
        <pt x="402" y="-140" on="0"/>
        <pt x="425" y="-140" on="1"/>
        <pt x="487" y="-140" on="0"/>
        <pt x="487" y="-65" on="1"/>
        <pt x="487" y="488" on="1"/>
        <pt x="487" y="558" on="0"/>
        <pt x="432" y="627" on="0"/>
        <pt x="374" y="627" on="1"/>
        <pt x="317" y="627" on="0"/>
        <pt x="237" y="580" on="0"/>
        <pt x="191" y="530" on="1"/>
        <pt x="191" y="0" on="1"/>
        <pt x="102" y="0" on="1"/>
        <pt x="102" y="688" on="1"/>
        <pt x="179" y="688" on="1"/>
        <pt x="187" y="603" on="1"/>
        <pt x="229" y="649" on="0"/>
        <pt x="329" y="700" on="0"/>
        <pt x="392" y="700" on="1"/>
        <pt x="483" y="700" on="0"/>
        <pt x="576" y="594" on="0"/>
        <pt x="576" y="506" on="1"/>
        <pt x="576" y="-59" on="1"/>
      </contour>
    </TTGlyph>
    <TTGlyph name="Eogonek" xMin="102" yMin="-229" xMax="478" yMax="688">
      <contour>
        <pt x="478" y="71" on="1"/>
        <pt x="478" y="0" on="1"/>
        <pt x="440" y="0" on="1"/>
        <pt x="369" y="-30" on="0"/>
        <pt x="317" y="-84" on="0"/>
        <pt x="317" y="-115" on="1"/>
        <pt x="317" y="-139" on="0"/>
        <pt x="344" y="-163" on="0"/>
        <pt x="374" y="-163" on="1"/>
        <pt x="402" y="-163" on="0"/>
        <pt x="434" y="-156" on="1"/>
        <pt x="426" y="-223" on="1"/>
        <pt x="396" y="-229" on="0"/>
        <pt x="364" y="-229" on="1"/>
        <pt x="308" y="-229" on="0"/>
        <pt x="241" y="-174" on="0"/>
        <pt x="241" y="-130" on="1"/>
        <pt x="241" y="-90" on="0"/>
        <pt x="291" y="-26" on="0"/>
        <pt x="343" y="0" on="1"/>
        <pt x="102" y="0" on="1"/>
        <pt x="102" y="688" on="1"/>
        <pt x="470" y="688" on="1"/>
        <pt x="460" y="617" on="1"/>
        <pt x="191" y="617" on="1"/>
        <pt x="191" y="387" on="1"/>
        <pt x="425" y="387" on="1"/>
        <pt x="425" y="315" on="1"/>
        <pt x="191" y="315" on="1"/>
        <pt x="191" y="71" on="1"/>
      </contour>
    </TTGlyph>
    <TTGlyph name="Epsilon" xMin="102" yMin="0" xMax="478" yMax="688">
      <contour>
        <pt x="460" y="617" on="1"/>
        <pt x="191" y="617" on="1"/>
        <pt x="191" y="387" on="1"/>
        <pt x="425" y="387" on="1"/>
        <pt x="425" y="315" on="1"/>
        <pt x="191" y="315" on="1"/>
        <pt x="191" y="71" on="1"/>
        <pt x="478" y="71" on="1"/>
        <pt x="478" y="0" on="1"/>
        <pt x="102" y="0" on="1"/>
        <pt x="102" y="688" on="1"/>
        <pt x="470" y="688" on="1"/>
      </contour>
    </TTGlyph>
    <TTGlyph name="Epsilontonos" xMin="30" yMin="0" xMax="574" yMax="705">
      <component glyphName="tonos.case" x="0" y="0" flags="0x0"/>
      <component glyphName="E" x="96" y="0" flags="0x0"/>
    </TTGlyph>
    <TTGlyph name="Eta" xMin="102" yMin="0" xMax="576" yMax="688">
      <contour>
        <pt x="488" y="325" on="1"/>
        <pt x="191" y="325" on="1"/>
        <pt x="191" y="0" on="1"/>
        <pt x="102" y="0" on="1"/>
        <pt x="102" y="688" on="1"/>
        <pt x="191" y="688" on="1"/>
        <pt x="191" y="398" on="1"/>
        <pt x="488" y="398" on="1"/>
        <pt x="488" y="688" on="1"/>
        <pt x="576" y="688" on="1"/>
        <pt x="576" y="0" on="1"/>
        <pt x="488" y="0" on="1"/>
      </contour>
    </TTGlyph>
    <TTGlyph name="Etatonos" xMin="30" yMin="0" xMax="672" yMax="705">
      <component glyphName="tonos.case" x="0" y="0" flags="0x0"/>
      <component glyphName="H" x="96" y="0" flags="0x0"/>
    </TTGlyph>
    <TTGlyph name="Eth" xMin="20" yMin="0" xMax="596" yMax="688">
      <contour>
        <pt x="409" y="688" on="0"/>
        <pt x="596" y="543" on="0"/>
        <pt x="596" y="348" on="1"/>
        <pt x="596" y="156" on="0"/>
        <pt x="409" y="0" on="0"/>
        <pt x="274" y="0" on="1"/>
        <pt x="113" y="0" on="1"/>
        <pt x="113" y="320" on="1"/>
        <pt x="20" y="320" on="1"/>
        <pt x="20" y="386" on="1"/>
        <pt x="113" y="386" on="1"/>
        <pt x="113" y="688" on="1"/>
        <pt x="255" y="688" on="1"/>
      </contour>
      <contour>
        <pt x="379" y="71" on="0"/>
        <pt x="501" y="191" on="0"/>
        <pt x="501" y="348" on="1"/>
        <pt x="501" y="459" on="0"/>
        <pt x="438" y="577" on="0"/>
        <pt x="340" y="617" on="0"/>
        <pt x="274" y="617" on="1"/>
        <pt x="201" y="617" on="1"/>
        <pt x="201" y="386" on="1"/>
        <pt x="362" y="386" on="1"/>
        <pt x="362" y="320" on="1"/>
        <pt x="201" y="320" on="1"/>
        <pt x="201" y="71" on="1"/>
        <pt x="281" y="71" on="1"/>
      </contour>
    </TTGlyph>
    <TTGlyph name="Euro" xMin="27" yMin="-12" xMax="548" yMax="679">
      <contour>
        <pt x="218" y="143" on="0"/>
        <pt x="301" y="61" on="0"/>
        <pt x="377" y="61" on="1"/>
        <pt x="417" y="61" on="0"/>
        <pt x="482" y="82" on="0"/>
        <pt x="517" y="102" on="1"/>
        <pt x="517" y="26" on="1"/>
        <pt x="480" y="8" on="0"/>
        <pt x="408" y="-12" on="0"/>
        <pt x="365" y="-12" on="1"/>
        <pt x="261" y="-12" on="0"/>
        <pt x="133" y="113" on="0"/>
        <pt x="114" y="233" on="1"/>
        <pt x="27" y="233" on="1"/>
        <pt x="41" y="291" on="1"/>
        <pt x="111" y="291" on="1"/>
        <pt x="111" y="383" on="1"/>
        <pt x="27" y="383" on="1"/>
        <pt x="41" y="442" on="1"/>
        <pt x="115" y="442" on="1"/>
        <pt x="139" y="555" on="0"/>
        <pt x="275" y="679" on="0"/>
        <pt x="369" y="679" on="1"/>
        <pt x="466" y="679" on="0"/>
        <pt x="548" y="623" on="1"/>
        <pt x="514" y="563" on="1"/>
        <pt x="477" y="586" on="0"/>
        <pt x="413" y="607" on="0"/>
        <pt x="372" y="607" on="1"/>
        <pt x="310" y="607" on="0"/>
        <pt x="226" y="526" on="0"/>
        <pt x="208" y="442" on="1"/>
        <pt x="466" y="442" on="1"/>
        <pt x="452" y="383" on="1"/>
        <pt x="203" y="383" on="1"/>
        <pt x="203" y="291" on="1"/>
        <pt x="433" y="291" on="1"/>
        <pt x="420" y="233" on="1"/>
        <pt x="205" y="233" on="1"/>
      </contour>
    </TTGlyph>
    <TTGlyph name="Euro.osf" xMin="27" yMin="-12" xMax="548" yMax="679">
      <component glyphName="Euro" x="0" y="0" flags="0x0"/>
    </TTGlyph>
    <TTGlyph name="Euro.tf" xMin="27" yMin="-12" xMax="548" yMax="700">
      <contour>
        <pt x="218" y="146" on="0"/>
        <pt x="301" y="61" on="0"/>
        <pt x="377" y="61" on="1"/>
        <pt x="417" y="61" on="0"/>
        <pt x="482" y="82" on="0"/>
        <pt x="517" y="102" on="1"/>
        <pt x="517" y="26" on="1"/>
        <pt x="480" y="8" on="0"/>
        <pt x="408" y="-12" on="0"/>
        <pt x="365" y="-12" on="1"/>
        <pt x="261" y="-12" on="0"/>
        <pt x="133" y="116" on="0"/>
        <pt x="114" y="243" on="1"/>
        <pt x="27" y="243" on="1"/>
        <pt x="41" y="301" on="1"/>
        <pt x="111" y="301" on="1"/>
        <pt x="111" y="393" on="1"/>
        <pt x="27" y="393" on="1"/>
        <pt x="41" y="452" on="1"/>
        <pt x="115" y="452" on="1"/>
        <pt x="138" y="572" on="0"/>
        <pt x="273" y="700" on="0"/>
        <pt x="369" y="700" on="1"/>
        <pt x="466" y="700" on="0"/>
        <pt x="548" y="644" on="1"/>
        <pt x="514" y="585" on="1"/>
        <pt x="477" y="608" on="0"/>
        <pt x="413" y="629" on="0"/>
        <pt x="372" y="629" on="1"/>
        <pt x="242" y="629" on="0"/>
        <pt x="208" y="452" on="1"/>
        <pt x="466" y="452" on="1"/>
        <pt x="452" y="393" on="1"/>
        <pt x="203" y="393" on="1"/>
        <pt x="203" y="301" on="1"/>
        <pt x="433" y="301" on="1"/>
        <pt x="420" y="243" on="1"/>
        <pt x="205" y="243" on="1"/>
      </contour>
    </TTGlyph>
    <TTGlyph name="Euro.tosf" xMin="44" yMin="-12" xMax="556" yMax="679">
      <contour>
        <pt x="235" y="143" on="0"/>
        <pt x="315" y="61" on="0"/>
        <pt x="389" y="61" on="1"/>
        <pt x="428" y="61" on="0"/>
        <pt x="490" y="82" on="0"/>
        <pt x="525" y="102" on="1"/>
        <pt x="525" y="26" on="1"/>
        <pt x="488" y="7" on="0"/>
        <pt x="418" y="-12" on="0"/>
        <pt x="376" y="-12" on="1"/>
        <pt x="275" y="-12" on="0"/>
        <pt x="150" y="113" on="0"/>
        <pt x="131" y="233" on="1"/>
        <pt x="44" y="233" on="1"/>
        <pt x="58" y="291" on="1"/>
        <pt x="128" y="291" on="1"/>
        <pt x="128" y="383" on="1"/>
        <pt x="44" y="383" on="1"/>
        <pt x="58" y="442" on="1"/>
        <pt x="132" y="442" on="1"/>
        <pt x="155" y="555" on="0"/>
        <pt x="287" y="679" on="0"/>
        <pt x="380" y="679" on="1"/>
        <pt x="429" y="679" on="0"/>
        <pt x="515" y="651" on="0"/>
        <pt x="556" y="623" on="1"/>
        <pt x="522" y="563" on="1"/>
        <pt x="484" y="587" on="0"/>
        <pt x="423" y="607" on="0"/>
        <pt x="384" y="607" on="1"/>
        <pt x="261" y="607" on="0"/>
        <pt x="225" y="442" on="1"/>
        <pt x="476" y="442" on="1"/>
        <pt x="462" y="383" on="1"/>
        <pt x="219" y="383" on="1"/>
        <pt x="219" y="291" on="1"/>
        <pt x="443" y="291" on="1"/>
        <pt x="430" y="233" on="1"/>
        <pt x="222" y="233" on="1"/>
      </contour>
    </TTGlyph>
    <TTGlyph name="F" xMin="102" yMin="0" xMax="464" yMax="688">
      <contour>
        <pt x="453" y="617" on="1"/>
        <pt x="191" y="617" on="1"/>
        <pt x="191" y="376" on="1"/>
        <pt x="418" y="376" on="1"/>
        <pt x="418" y="306" on="1"/>
        <pt x="191" y="306" on="1"/>
        <pt x="191" y="0" on="1"/>
        <pt x="102" y="0" on="1"/>
        <pt x="102" y="688" on="1"/>
        <pt x="464" y="688" on="1"/>
      </contour>
    </TTGlyph>
    <TTGlyph name="G" xMin="57" yMin="-12" xMax="566" yMax="700">
      <contour>
        <pt x="417" y="700" on="0"/>
        <pt x="511" y="664" on="0"/>
        <pt x="557" y="626" on="1"/>
        <pt x="505" y="571" on="1"/>
        <pt x="468" y="601" on="0"/>
        <pt x="399" y="627" on="0"/>
        <pt x="353" y="627" on="1"/>
        <pt x="299" y="627" on="0"/>
        <pt x="208" y="569" on="0"/>
        <pt x="151" y="443" on="0"/>
        <pt x="151" y="345" on="1"/>
        <pt x="151" y="198" on="0"/>
        <pt x="250" y="61" on="0"/>
        <pt x="345" y="61" on="1"/>
        <pt x="422" y="61" on="0"/>
        <pt x="478" y="94" on="1"/>
        <pt x="478" y="307" on="1"/>
        <pt x="354" y="307" on="1"/>
        <pt x="344" y="380" on="1"/>
        <pt x="566" y="380" on="1"/>
        <pt x="566" y="48" on="1"/>
        <pt x="463" y="-12" on="0"/>
        <pt x="339" y="-12" on="1"/>
        <pt x="208" y="-12" on="0"/>
        <pt x="57" y="170" on="0"/>
        <pt x="57" y="345" on="1"/>
        <pt x="57" y="457" on="0"/>
        <pt x="139" y="618" on="0"/>
        <pt x="273" y="700" on="0"/>
        <pt x="352" y="700" on="1"/>
      </contour>
    </TTGlyph>
    <TTGlyph name="Gamma" xMin="102" yMin="0" xMax="498" yMax="688">
      <component glyphName="uni0413" x="0" y="0" flags="0x0"/>
    </TTGlyph>
    <TTGlyph name="Gbreve" xMin="57" yMin="-12" xMax="566" yMax="890">
      <component glyphName="G" x="0" y="0" flags="0x0"/>
      <component glyphName="uni0306.case" x="529" y="0" flags="0x0"/>
    </TTGlyph>
    <TTGlyph name="Gcaron" xMin="57" yMin="-12" xMax="566" yMax="905">
      <component glyphName="G" x="0" y="0" flags="0x0"/>
      <component glyphName="uni030C.case" x="546" y="0" flags="0x0"/>
    </TTGlyph>
    <TTGlyph name="Gcircumflex" xMin="57" yMin="-12" xMax="566" yMax="910">
      <component glyphName="G" x="0" y="0" flags="0x0"/>
      <component glyphName="uni0302.case" x="547" y="0" flags="0x0"/>
    </TTGlyph>
    <TTGlyph name="Gcommaaccent" xMin="57" yMin="-293" xMax="566" yMax="700">
      <component glyphName="G" x="0" y="0" flags="0x0"/>
      <component glyphName="uni0326.case" x="429" y="0" flags="0x0"/>
    </TTGlyph>
    <TTGlyph name="Gdotaccent" xMin="57" yMin="-12" xMax="566" yMax="901">
      <component glyphName="G" x="0" y="0" flags="0x0"/>
      <component glyphName="uni0307.case" x="443" y="0" flags="0x0"/>
    </TTGlyph>
    <TTGlyph name="H" xMin="102" yMin="0" xMax="576" yMax="688">
      <contour>
        <pt x="488" y="325" on="1"/>
        <pt x="191" y="325" on="1"/>
        <pt x="191" y="0" on="1"/>
        <pt x="102" y="0" on="1"/>
        <pt x="102" y="688" on="1"/>
        <pt x="191" y="688" on="1"/>
        <pt x="191" y="398" on="1"/>
        <pt x="488" y="398" on="1"/>
        <pt x="488" y="688" on="1"/>
        <pt x="576" y="688" on="1"/>
        <pt x="576" y="0" on="1"/>
        <pt x="488" y="0" on="1"/>
      </contour>
    </TTGlyph>
    <TTGlyph name="Hbar" xMin="37" yMin="0" xMax="648" yMax="688">
      <contour>
        <pt x="648" y="509" on="1"/>
        <pt x="580" y="509" on="1"/>
        <pt x="580" y="0" on="1"/>
        <pt x="491" y="0" on="1"/>
        <pt x="491" y="325" on="1"/>
        <pt x="194" y="325" on="1"/>
        <pt x="194" y="0" on="1"/>
        <pt x="106" y="0" on="1"/>
        <pt x="106" y="509" on="1"/>
        <pt x="37" y="509" on="1"/>
        <pt x="37" y="574" on="1"/>
        <pt x="106" y="574" on="1"/>
        <pt x="106" y="688" on="1"/>
        <pt x="194" y="688" on="1"/>
        <pt x="194" y="574" on="1"/>
        <pt x="491" y="574" on="1"/>
        <pt x="491" y="688" on="1"/>
        <pt x="580" y="688" on="1"/>
        <pt x="580" y="574" on="1"/>
        <pt x="648" y="574" on="1"/>
      </contour>
      <contour>
        <pt x="491" y="509" on="1"/>
        <pt x="194" y="509" on="1"/>
        <pt x="194" y="398" on="1"/>
        <pt x="491" y="398" on="1"/>
      </contour>
    </TTGlyph>
    <TTGlyph name="Hcircumflex" xMin="102" yMin="0" xMax="576" yMax="910">
      <component glyphName="H" x="0" y="0" flags="0x0"/>
      <component glyphName="uni0302.case" x="531" y="0" flags="0x0"/>
    </TTGlyph>
    <TTGlyph name="I" xMin="102" yMin="0" xMax="191" yMax="688">
      <contour>
        <pt x="191" y="0" on="1"/>
        <pt x="102" y="0" on="1"/>
        <pt x="102" y="688" on="1"/>
        <pt x="191" y="688" on="1"/>
      </contour>
    </TTGlyph>
    <TTGlyph name="IJ" xMin="102" yMin="-134" xMax="499" yMax="688">
      <component glyphName="I" x="0" y="0" flags="0x0"/>
      <component glyphName="J" x="293" y="0" flags="0x0"/>
    </TTGlyph>
    <TTGlyph name="Iacute" xMin="28" yMin="0" xMax="263" yMax="907">
      <component glyphName="I" x="0" y="0" flags="0x0"/>
      <component glyphName="acutecomb.case" x="289" y="0" flags="0x0"/>
    </TTGlyph>
    <TTGlyph name="Ibreve" xMin="-2" yMin="0" xMax="294" yMax="890">
      <component glyphName="I" x="0" y="0" flags="0x0"/>
      <component glyphName="uni0306.case" x="321" y="0" flags="0x0"/>
    </TTGlyph>
    <TTGlyph name="Icircumflex" xMin="-18" yMin="0" xMax="308" yMax="910">
      <component glyphName="I" x="0" y="0" flags="0x0"/>
      <component glyphName="uni0302.case" x="338" y="0" flags="0x0"/>
    </TTGlyph>
    <TTGlyph name="Idieresis" xMin="-12" yMin="0" xMax="303" yMax="889">
      <component glyphName="I" x="0" y="0" flags="0x0"/>
      <component glyphName="uni0308.case" x="333" y="0" flags="0x0"/>
    </TTGlyph>
    <TTGlyph name="Idotaccent" xMin="85" yMin="0" xMax="207" yMax="901">
      <component glyphName="I" x="0" y="0" flags="0x0"/>
      <component glyphName="uni0307.case" x="235" y="0" flags="0x0"/>
    </TTGlyph>
    <TTGlyph name="Igrave" xMin="19" yMin="0" xMax="254" yMax="907">
      <component glyphName="I" x="0" y="0" flags="0x0"/>
      <component glyphName="gravecomb.case" x="280" y="0" flags="0x0"/>
    </TTGlyph>
    <TTGlyph name="Imacron" xMin="12" yMin="0" xMax="279" yMax="860">
      <component glyphName="I" x="0" y="0" flags="0x0"/>
      <component glyphName="uni0304.case" x="308" y="0" flags="0x0"/>
    </TTGlyph>
    <TTGlyph name="Iogonek" xMin="-8" yMin="-229" xMax="191" yMax="688">
      <contour>
        <pt x="68" y="-139" on="0"/>
        <pt x="95" y="-163" on="0"/>
        <pt x="125" y="-163" on="1"/>
        <pt x="153" y="-163" on="0"/>
        <pt x="185" y="-156" on="1"/>
        <pt x="177" y="-223" on="1"/>
        <pt x="147" y="-229" on="0"/>
        <pt x="115" y="-229" on="1"/>
        <pt x="59" y="-229" on="0"/>
        <pt x="-8" y="-174" on="0"/>
        <pt x="-8" y="-130" on="1"/>
        <pt x="-8" y="-87" on="0"/>
        <pt x="46" y="-22" on="0"/>
        <pt x="102" y="4" on="1"/>
        <pt x="102" y="688" on="1"/>
        <pt x="191" y="688" on="1"/>
        <pt x="191" y="0" on="1"/>
        <pt x="120" y="-30" on="0"/>
        <pt x="68" y="-84" on="0"/>
        <pt x="68" y="-115" on="1"/>
      </contour>
    </TTGlyph>
    <TTGlyph name="Iota" xMin="102" yMin="0" xMax="191" yMax="688">
      <contour>
        <pt x="191" y="0" on="1"/>
        <pt x="102" y="0" on="1"/>
        <pt x="102" y="688" on="1"/>
        <pt x="191" y="688" on="1"/>
      </contour>
    </TTGlyph>
    <TTGlyph name="Iotadieresis" xMin="-12" yMin="0" xMax="303" yMax="889">
      <component glyphName="I" x="0" y="0" flags="0x0"/>
      <component glyphName="uni0308.case" x="333" y="0" flags="0x0"/>
    </TTGlyph>
    <TTGlyph name="Iotatonos" xMin="30" yMin="0" xMax="287" yMax="705">
      <component glyphName="tonos.case" x="0" y="0" flags="0x0"/>
      <component glyphName="I" x="96" y="0" flags="0x0"/>
    </TTGlyph>
    <TTGlyph name="Itilde" xMin="-18" yMin="0" xMax="310" yMax="897">
      <component glyphName="I" x="0" y="0" flags="0x0"/>
      <component glyphName="tildecomb.case" x="336" y="0" flags="0x0"/>
    </TTGlyph>
    <TTGlyph name="J" xMin="6" yMin="-134" xMax="206" yMax="688">
      <contour>
        <pt x="206" y="95" on="1"/>
        <pt x="206" y="27" on="0"/>
        <pt x="166" y="-61" on="0"/>
        <pt x="90" y="-114" on="0"/>
        <pt x="30" y="-134" on="1"/>
        <pt x="6" y="-69" on="1"/>
        <pt x="52" y="-50" on="0"/>
        <pt x="99" y="-8" on="0"/>
        <pt x="117" y="51" on="0"/>
        <pt x="117" y="99" on="1"/>
        <pt x="117" y="688" on="1"/>
        <pt x="206" y="688" on="1"/>
      </contour>
    </TTGlyph>
    <TTGlyph name="Jcircumflex" xMin="-2" yMin="-134" xMax="324" yMax="910">
      <component glyphName="J" x="0" y="0" flags="0x0"/>
      <component glyphName="uni0302.case" x="354" y="0" flags="0x0"/>
    </TTGlyph>
    <TTGlyph name="K" xMin="102" yMin="0" xMax="582" yMax="688">
      <contour>
        <pt x="191" y="0" on="1"/>
        <pt x="102" y="0" on="1"/>
        <pt x="102" y="688" on="1"/>
        <pt x="191" y="688" on="1"/>
      </contour>
      <contour>
        <pt x="298" y="373" on="1"/>
        <pt x="582" y="0" on="1"/>
        <pt x="472" y="0" on="1"/>
        <pt x="196" y="368" on="1"/>
        <pt x="462" y="688" on="1"/>
        <pt x="563" y="688" on="1"/>
      </contour>
    </TTGlyph>
    <TTGlyph name="Kappa" xMin="102" yMin="0" xMax="582" yMax="688">
      <component glyphName="K" x="0" y="0" flags="0x0"/>
    </TTGlyph>
    <TTGlyph name="Kcommaaccent" xMin="102" yMin="-293" xMax="582" yMax="688">
      <component glyphName="K" x="0" y="0" flags="0x0"/>
      <component glyphName="uni0326.case" x="400" y="0" flags="0x0"/>
    </TTGlyph>
    <TTGlyph name="L" xMin="102" yMin="0" xMax="474" yMax="688">
      <contour>
        <pt x="191" y="78" on="1"/>
        <pt x="474" y="78" on="1"/>
        <pt x="464" y="0" on="1"/>
        <pt x="102" y="0" on="1"/>
        <pt x="102" y="688" on="1"/>
        <pt x="191" y="688" on="1"/>
      </contour>
    </TTGlyph>
    <TTGlyph name="Lacute" xMin="29" yMin="0" xMax="474" yMax="907">
      <component glyphName="L" x="0" y="0" flags="0x0"/>
      <component glyphName="acutecomb.case" x="290" y="0" flags="0x0"/>
    </TTGlyph>
    <TTGlyph name="Lambda" xMin="8" yMin="0" xMax="564" yMax="688">
      <contour>
        <pt x="564" y="0" on="1"/>
        <pt x="470" y="0" on="1"/>
        <pt x="284" y="615" on="1"/>
        <pt x="98" y="0" on="1"/>
        <pt x="8" y="0" on="1"/>
        <pt x="230" y="688" on="1"/>
        <pt x="342" y="688" on="1"/>
      </contour>
    </TTGlyph>
    <TTGlyph name="Lcaron" xMin="102" yMin="0" xMax="474" yMax="698">
      <component glyphName="L" x="0" y="0" flags="0x0"/>
      <component glyphName="caron.alt" x="182" y="0" flags="0x0"/>
    </TTGlyph>
    <TTGlyph name="Lcommaaccent" xMin="102" yMin="-293" xMax="474" yMax="688">
      <component glyphName="L" x="0" y="0" flags="0x0"/>
      <component glyphName="uni0326.case" x="370" y="0" flags="0x0"/>
    </TTGlyph>
    <TTGlyph name="Ldot" xMin="102" yMin="0" xMax="474" yMax="688">
      <component glyphName="L" x="0" y="0" flags="0x0"/>
      <component glyphName="uni0307" x="478" y="-332" flags="0x0"/>
    </TTGlyph>
    <TTGlyph name="Lslash" xMin="24" yMin="0" xMax="489" yMax="688">
      <contour>
        <pt x="489" y="78" on="1"/>
        <pt x="479" y="0" on="1"/>
        <pt x="117" y="0" on="1"/>
        <pt x="117" y="261" on="1"/>
        <pt x="60" y="225" on="1"/>
        <pt x="24" y="282" on="1"/>
        <pt x="117" y="339" on="1"/>
        <pt x="117" y="688" on="1"/>
        <pt x="206" y="688" on="1"/>
        <pt x="206" y="394" on="1"/>
        <pt x="369" y="496" on="1"/>
        <pt x="405" y="439" on="1"/>
        <pt x="206" y="316" on="1"/>
        <pt x="206" y="78" on="1"/>
      </contour>
    </TTGlyph>
    <TTGlyph name="M" xMin="63" yMin="0" xMax="713" yMax="688">
      <contour>
        <pt x="713" y="0" on="1"/>
        <pt x="627" y="0" on="1"/>
        <pt x="602" y="314" on="1"/>
        <pt x="585" y="512" on="0"/>
        <pt x="584" y="598" on="1"/>
        <pt x="430" y="78" on="1"/>
        <pt x="347" y="78" on="1"/>
        <pt x="186" y="599" on="1"/>
        <pt x="186" y="486" on="0"/>
        <pt x="172" y="309" on="1"/>
        <pt x="147" y="0" on="1"/>
        <pt x="63" y="0" on="1"/>
        <pt x="122" y="688" on="1"/>
        <pt x="242" y="688" on="1"/>
        <pt x="391" y="182" on="1"/>
        <pt x="534" y="688" on="1"/>
        <pt x="655" y="688" on="1"/>
      </contour>
    </TTGlyph>
    <TTGlyph name="Mu" xMin="63" yMin="0" xMax="713" yMax="688">
      <component glyphName="M" x="0" y="0" flags="0x0"/>
    </TTGlyph>
    <TTGlyph name="N" xMin="102" yMin="0" xMax="579" yMax="688">
      <contour>
        <pt x="579" y="0" on="1"/>
        <pt x="461" y="0" on="1"/>
        <pt x="173" y="591" on="1"/>
        <pt x="185" y="459" on="0"/>
        <pt x="185" y="328" on="1"/>
        <pt x="185" y="0" on="1"/>
        <pt x="102" y="0" on="1"/>
        <pt x="102" y="688" on="1"/>
        <pt x="218" y="688" on="1"/>
        <pt x="508" y="96" on="1"/>
        <pt x="496" y="210" on="0"/>
        <pt x="496" y="305" on="1"/>
        <pt x="496" y="688" on="1"/>
        <pt x="579" y="688" on="1"/>
      </contour>
    </TTGlyph>
    <TTGlyph name="Nacute" xMin="102" yMin="0" xMax="579" yMax="907">
      <component glyphName="N" x="0" y="0" flags="0x0"/>
      <component glyphName="acutecomb.case" x="495" y="0" flags="0x0"/>
    </TTGlyph>
    <TTGlyph name="Nacute.loclPLK" xMin="102" yMin="0" xMax="579" yMax="923">
      <component glyphName="N" x="0" y="0" flags="0x0"/>
      <component glyphName="acute.case.loclPLK" x="206" y="0" flags="0x0"/>
    </TTGlyph>
    <TTGlyph name="Ncaron" xMin="102" yMin="0" xMax="579" yMax="905">
      <component glyphName="N" x="0" y="0" flags="0x0"/>
      <component glyphName="uni030C.case" x="543" y="0" flags="0x0"/>
    </TTGlyph>
    <TTGlyph name="Ncommaaccent" xMin="102" yMin="-293" xMax="579" yMax="688">
      <component glyphName="N" x="0" y="0" flags="0x0"/>
      <component glyphName="uni0326.case" x="429" y="0" flags="0x0"/>
    </TTGlyph>
    <TTGlyph name="Ntilde" xMin="102" yMin="0" xMax="579" yMax="897">
      <component glyphName="N" x="0" y="0" flags="0x0"/>
      <component glyphName="tildecomb.case" x="542" y="0" flags="0x0"/>
    </TTGlyph>
    <TTGlyph name="Nu" xMin="102" yMin="0" xMax="579" yMax="688">
      <component glyphName="N" x="0" y="0" flags="0x0"/>
    </TTGlyph>
    <TTGlyph name="O" xMin="57" yMin="-12" xMax="635" yMax="700">
      <contour>
        <pt x="433" y="700" on="0"/>
        <pt x="563" y="618" on="0"/>
        <pt x="635" y="458" on="0"/>
        <pt x="635" y="344" on="1"/>
        <pt x="635" y="232" on="0"/>
        <pt x="563" y="72" on="0"/>
        <pt x="432" y="-12" on="0"/>
        <pt x="346" y="-12" on="1"/>
        <pt x="260" y="-12" on="0"/>
        <pt x="129" y="70" on="0"/>
        <pt x="57" y="230" on="0"/>
        <pt x="57" y="343" on="1"/>
        <pt x="57" y="454" on="0"/>
        <pt x="130" y="616" on="0"/>
        <pt x="260" y="700" on="0"/>
        <pt x="346" y="700" on="1"/>
      </contour>
      <contour>
        <pt x="254" y="627" on="0"/>
        <pt x="151" y="488" on="0"/>
        <pt x="151" y="343" on="1"/>
        <pt x="151" y="199" on="0"/>
        <pt x="255" y="61" on="0"/>
        <pt x="346" y="61" on="1"/>
        <pt x="439" y="61" on="0"/>
        <pt x="541" y="198" on="0"/>
        <pt x="541" y="344" on="1"/>
        <pt x="541" y="489" on="0"/>
        <pt x="439" y="627" on="0"/>
        <pt x="346" y="627" on="1"/>
      </contour>
    </TTGlyph>
    <TTGlyph name="OE" xMin="57" yMin="-12" xMax="840" yMax="700">
      <contour>
        <pt x="840" y="0" on="1"/>
        <pt x="405" y="0" on="1"/>
        <pt x="372" y="-12" on="0"/>
        <pt x="333" y="-12" on="1"/>
        <pt x="253" y="-12" on="0"/>
        <pt x="128" y="70" on="0"/>
        <pt x="57" y="230" on="0"/>
        <pt x="57" y="343" on="1"/>
        <pt x="57" y="454" on="0"/>
        <pt x="128" y="615" on="0"/>
        <pt x="253" y="700" on="0"/>
        <pt x="333" y="700" on="1"/>
        <pt x="373" y="700" on="0"/>
        <pt x="409" y="688" on="1"/>
        <pt x="832" y="688" on="1"/>
        <pt x="821" y="617" on="1"/>
        <pt x="520" y="617" on="1"/>
        <pt x="560" y="579" on="0"/>
        <pt x="608" y="461" on="0"/>
        <pt x="613" y="387" on="1"/>
        <pt x="786" y="387" on="1"/>
        <pt x="786" y="315" on="1"/>
        <pt x="614" y="315" on="1"/>
        <pt x="610" y="238" on="0"/>
        <pt x="559" y="113" on="0"/>
        <pt x="514" y="71" on="1"/>
        <pt x="840" y="71" on="1"/>
      </contour>
      <contour>
        <pt x="151" y="200" on="0"/>
        <pt x="252" y="61" on="0"/>
        <pt x="336" y="61" on="1"/>
        <pt x="422" y="61" on="0"/>
        <pt x="521" y="199" on="0"/>
        <pt x="521" y="344" on="1"/>
        <pt x="521" y="488" on="0"/>
        <pt x="422" y="627" on="0"/>
        <pt x="336" y="627" on="1"/>
        <pt x="251" y="627" on="0"/>
        <pt x="151" y="487" on="0"/>
        <pt x="151" y="343" on="1"/>
      </contour>
    </TTGlyph>
    <TTGlyph name="Oacute" xMin="57" yMin="-12" xMax="635" yMax="907">
      <component glyphName="O" x="0" y="0" flags="0x0"/>
      <component glyphName="acutecomb.case" x="489" y="0" flags="0x0"/>
    </TTGlyph>
    <TTGlyph name="Oacute.loclPLK" xMin="57" yMin="-12" xMax="635" yMax="923">
      <component glyphName="O" x="0" y="0" flags="0x0"/>
      <component glyphName="acute.case.loclPLK" x="201" y="0" flags="0x0"/>
    </TTGlyph>
    <TTGlyph name="Obreve" xMin="57" yMin="-12" xMax="635" yMax="890">
      <component glyphName="O" x="0" y="0" flags="0x0"/>
      <component glyphName="uni0306.case" x="521" y="0" flags="0x0"/>
    </TTGlyph>
    <TTGlyph name="Ocircumflex" xMin="57" yMin="-12" xMax="635" yMax="910">
      <component glyphName="O" x="0" y="0" flags="0x0"/>
      <component glyphName="uni0302.case" x="538" y="0" flags="0x0"/>
    </TTGlyph>
    <TTGlyph name="Odieresis" xMin="57" yMin="-12" xMax="635" yMax="889">
      <component glyphName="O" x="0" y="0" flags="0x0"/>
      <component glyphName="uni0308.case" x="533" y="0" flags="0x0"/>
    </TTGlyph>
    <TTGlyph name="Ograve" xMin="57" yMin="-12" xMax="635" yMax="907">
      <component glyphName="O" x="0" y="0" flags="0x0"/>
      <component glyphName="gravecomb.case" x="480" y="0" flags="0x0"/>
    </TTGlyph>
    <TTGlyph name="Ohorn" xMin="57" yMin="-12" xMax="658" yMax="772">
      <contour>
        <pt x="658" y="652" on="0"/>
        <pt x="612" y="596" on="0"/>
        <pt x="571" y="588" on="1"/>
        <pt x="635" y="496" on="0"/>
        <pt x="635" y="344" on="1"/>
        <pt x="635" y="232" on="0"/>
        <pt x="563" y="72" on="0"/>
        <pt x="432" y="-12" on="0"/>
        <pt x="346" y="-12" on="1"/>
        <pt x="260" y="-12" on="0"/>
        <pt x="129" y="70" on="0"/>
        <pt x="57" y="230" on="0"/>
        <pt x="57" y="343" on="1"/>
        <pt x="57" y="454" on="0"/>
        <pt x="130" y="616" on="0"/>
        <pt x="260" y="700" on="0"/>
        <pt x="346" y="700" on="1"/>
        <pt x="458" y="700" on="0"/>
        <pt x="530" y="634" on="1"/>
        <pt x="586" y="641" on="0"/>
        <pt x="586" y="686" on="1"/>
        <pt x="586" y="709" on="0"/>
        <pt x="579" y="740" on="0"/>
        <pt x="572" y="758" on="1"/>
        <pt x="639" y="772" on="1"/>
        <pt x="658" y="741" on="0"/>
        <pt x="658" y="691" on="1"/>
      </contour>
      <contour>
        <pt x="439" y="61" on="0"/>
        <pt x="541" y="198" on="0"/>
        <pt x="541" y="344" on="1"/>
        <pt x="541" y="489" on="0"/>
        <pt x="439" y="627" on="0"/>
        <pt x="346" y="627" on="1"/>
        <pt x="254" y="627" on="0"/>
        <pt x="151" y="488" on="0"/>
        <pt x="151" y="343" on="1"/>
        <pt x="151" y="199" on="0"/>
        <pt x="255" y="61" on="0"/>
        <pt x="346" y="61" on="1"/>
      </contour>
    </TTGlyph>
    <TTGlyph name="Ohungarumlaut" xMin="57" yMin="-12" xMax="635" yMax="954">
      <component glyphName="O" x="0" y="0" flags="0x0"/>
      <component glyphName="uni030B.case" x="585" y="0" flags="0x0"/>
    </TTGlyph>
    <TTGlyph name="Omacron" xMin="57" yMin="-12" xMax="635" yMax="860">
      <component glyphName="O" x="0" y="0" flags="0x0"/>
      <component glyphName="uni0304.case" x="508" y="0" flags="0x0"/>
    </TTGlyph>
    <TTGlyph name="Omega" xMin="57" yMin="0" xMax="635" yMax="700">
      <contour>
        <pt x="434" y="700" on="0"/>
        <pt x="564" y="619" on="0"/>
        <pt x="635" y="463" on="0"/>
        <pt x="635" y="353" on="1"/>
        <pt x="635" y="243" on="0"/>
        <pt x="575" y="116" on="0"/>
        <pt x="501" y="75" on="1"/>
        <pt x="613" y="75" on="1"/>
        <pt x="613" y="0" on="1"/>
        <pt x="401" y="0" on="1"/>
        <pt x="401" y="75" on="1"/>
        <pt x="473" y="100" on="0"/>
        <pt x="541" y="233" on="0"/>
        <pt x="541" y="353" on="1"/>
        <pt x="541" y="492" on="0"/>
        <pt x="439" y="627" on="0"/>
        <pt x="346" y="627" on="1"/>
        <pt x="254" y="627" on="0"/>
        <pt x="151" y="491" on="0"/>
        <pt x="151" y="352" on="1"/>
        <pt x="151" y="229" on="0"/>
        <pt x="220" y="101" on="0"/>
        <pt x="290" y="75" on="1"/>
        <pt x="290" y="0" on="1"/>
        <pt x="78" y="0" on="1"/>
        <pt x="78" y="75" on="1"/>
        <pt x="185" y="75" on="1"/>
        <pt x="116" y="112" on="0"/>
        <pt x="57" y="241" on="0"/>
        <pt x="57" y="352" on="1"/>
        <pt x="57" y="459" on="0"/>
        <pt x="130" y="616" on="0"/>
        <pt x="261" y="700" on="0"/>
        <pt x="346" y="700" on="1"/>
      </contour>
    </TTGlyph>
    <TTGlyph name="Omegatonos" xMin="30" yMin="0" xMax="721" yMax="705">
      <component glyphName="tonos.case" x="0" y="0" flags="0x0"/>
      <component glyphName="Omega" x="86" y="0" flags="0x0"/>
    </TTGlyph>
    <TTGlyph name="Omicron" xMin="57" yMin="-12" xMax="635" yMax="700">
      <contour>
        <pt x="433" y="700" on="0"/>
        <pt x="563" y="618" on="0"/>
        <pt x="635" y="458" on="0"/>
        <pt x="635" y="344" on="1"/>
        <pt x="635" y="232" on="0"/>
        <pt x="563" y="72" on="0"/>
        <pt x="432" y="-12" on="0"/>
        <pt x="346" y="-12" on="1"/>
        <pt x="260" y="-12" on="0"/>
        <pt x="129" y="70" on="0"/>
        <pt x="57" y="230" on="0"/>
        <pt x="57" y="343" on="1"/>
        <pt x="57" y="454" on="0"/>
        <pt x="130" y="616" on="0"/>
        <pt x="260" y="700" on="0"/>
        <pt x="346" y="700" on="1"/>
      </contour>
      <contour>
        <pt x="254" y="627" on="0"/>
        <pt x="151" y="488" on="0"/>
        <pt x="151" y="343" on="1"/>
        <pt x="151" y="199" on="0"/>
        <pt x="255" y="61" on="0"/>
        <pt x="346" y="61" on="1"/>
        <pt x="439" y="61" on="0"/>
        <pt x="541" y="198" on="0"/>
        <pt x="541" y="344" on="1"/>
        <pt x="541" y="489" on="0"/>
        <pt x="439" y="627" on="0"/>
        <pt x="346" y="627" on="1"/>
      </contour>
    </TTGlyph>
    <TTGlyph name="Omicrontonos" xMin="30" yMin="-12" xMax="721" yMax="705">
      <component glyphName="tonos.case" x="0" y="0" flags="0x0"/>
      <component glyphName="O" x="86" y="0" flags="0x0"/>
    </TTGlyph>
    <TTGlyph name="Oslash" xMin="57" yMin="-126" xMax="635" yMax="817">
      <contour>
        <pt x="555" y="628" on="0"/>
        <pt x="635" y="463" on="0"/>
        <pt x="635" y="344" on="1"/>
        <pt x="635" y="232" on="0"/>
        <pt x="563" y="72" on="0"/>
        <pt x="432" y="-12" on="0"/>
        <pt x="346" y="-12" on="1"/>
        <pt x="316" y="-12" on="0"/>
        <pt x="277" y="-5" on="1"/>
        <pt x="242" y="-126" on="1"/>
        <pt x="168" y="-106" on="1"/>
        <pt x="208" y="21" on="1"/>
        <pt x="136" y="61" on="0"/>
        <pt x="57" y="225" on="0"/>
        <pt x="57" y="343" on="1"/>
        <pt x="57" y="454" on="0"/>
        <pt x="130" y="616" on="0"/>
        <pt x="260" y="700" on="0"/>
        <pt x="346" y="700" on="1"/>
        <pt x="384" y="700" on="0"/>
        <pt x="413" y="693" on="1"/>
        <pt x="450" y="817" on="1"/>
        <pt x="525" y="798" on="1"/>
        <pt x="483" y="667" on="1"/>
      </contour>
      <contour>
        <pt x="151" y="153" on="0"/>
        <pt x="239" y="92" on="1"/>
        <pt x="398" y="621" on="1"/>
        <pt x="374" y="627" on="0"/>
        <pt x="346" y="627" on="1"/>
        <pt x="254" y="627" on="0"/>
        <pt x="151" y="488" on="0"/>
        <pt x="151" y="343" on="1"/>
      </contour>
      <contour>
        <pt x="439" y="61" on="0"/>
        <pt x="541" y="198" on="0"/>
        <pt x="541" y="344" on="1"/>
        <pt x="541" y="539" on="0"/>
        <pt x="452" y="599" on="1"/>
        <pt x="293" y="68" on="1"/>
        <pt x="315" y="61" on="0"/>
        <pt x="346" y="61" on="1"/>
      </contour>
    </TTGlyph>
    <TTGlyph name="Oslashacute" xMin="57" yMin="-126" xMax="635" yMax="922">
      <component glyphName="Oslash" x="0" y="0" flags="0x0"/>
      <component glyphName="acutecomb.case" x="484" y="15" flags="0x0"/>
    </TTGlyph>
    <TTGlyph name="Otilde" xMin="57" yMin="-12" xMax="635" yMax="897">
      <component glyphName="O" x="0" y="0" flags="0x0"/>
      <component glyphName="tildecomb.case" x="536" y="0" flags="0x0"/>
    </TTGlyph>
    <TTGlyph name="P" xMin="102" yMin="0" xMax="545" yMax="688">
      <contour>
        <pt x="406" y="688" on="0"/>
        <pt x="545" y="583" on="0"/>
        <pt x="545" y="477" on="1"/>
        <pt x="545" y="364" on="0"/>
        <pt x="401" y="255" on="0"/>
        <pt x="280" y="255" on="1"/>
        <pt x="191" y="255" on="1"/>
        <pt x="191" y="0" on="1"/>
        <pt x="102" y="0" on="1"/>
        <pt x="102" y="688" on="1"/>
        <pt x="279" y="688" on="1"/>
      </contour>
      <contour>
        <pt x="361" y="326" on="0"/>
        <pt x="451" y="392" on="0"/>
        <pt x="451" y="476" on="1"/>
        <pt x="451" y="552" on="0"/>
        <pt x="362" y="619" on="0"/>
        <pt x="278" y="619" on="1"/>
        <pt x="191" y="619" on="1"/>
        <pt x="191" y="326" on="1"/>
        <pt x="276" y="326" on="1"/>
      </contour>
    </TTGlyph>
    <TTGlyph name="Phi" xMin="36" yMin="0" xMax="771" yMax="688">
      <contour>
        <pt x="771" y="216" on="0"/>
        <pt x="599" y="73" on="0"/>
        <pt x="446" y="69" on="1"/>
        <pt x="446" y="0" on="1"/>
        <pt x="360" y="0" on="1"/>
        <pt x="360" y="69" on="1"/>
        <pt x="203" y="75" on="0"/>
        <pt x="36" y="221" on="0"/>
        <pt x="36" y="345" on="1"/>
        <pt x="36" y="472" on="0"/>
        <pt x="208" y="614" on="0"/>
        <pt x="360" y="618" on="1"/>
        <pt x="360" y="688" on="1"/>
        <pt x="446" y="688" on="1"/>
        <pt x="446" y="618" on="1"/>
        <pt x="604" y="611" on="0"/>
        <pt x="771" y="467" on="0"/>
        <pt x="771" y="347" on="1"/>
      </contour>
      <contour>
        <pt x="128" y="144" on="0"/>
        <pt x="362" y="136" on="1"/>
        <pt x="362" y="553" on="1"/>
        <pt x="243" y="545" on="0"/>
        <pt x="128" y="444" on="0"/>
        <pt x="128" y="345" on="1"/>
      </contour>
      <contour>
        <pt x="563" y="141" on="0"/>
        <pt x="679" y="244" on="0"/>
        <pt x="679" y="347" on="1"/>
        <pt x="679" y="443" on="0"/>
        <pt x="560" y="547" on="0"/>
        <pt x="444" y="551" on="1"/>
        <pt x="444" y="134" on="1"/>
      </contour>
    </TTGlyph>
    <TTGlyph name="Pi" xMin="102" yMin="0" xMax="571" yMax="688">
      <component glyphName="uni041F" x="0" y="0" flags="0x0"/>
    </TTGlyph>
    <TTGlyph name="Psi" xMin="36" yMin="0" xMax="654" yMax="688">
      <contour>
        <pt x="654" y="688" on="1"/>
        <pt x="654" y="429" on="1"/>
        <pt x="654" y="320" on="0"/>
        <pt x="518" y="203" on="0"/>
        <pt x="389" y="194" on="1"/>
        <pt x="389" y="0" on="1"/>
        <pt x="300" y="0" on="1"/>
        <pt x="300" y="194" on="1"/>
        <pt x="36" y="214" on="0"/>
        <pt x="36" y="426" on="1"/>
        <pt x="36" y="688" on="1"/>
        <pt x="124" y="688" on="1"/>
        <pt x="124" y="433" on="1"/>
        <pt x="124" y="352" on="0"/>
        <pt x="209" y="271" on="0"/>
        <pt x="302" y="266" on="1"/>
        <pt x="302" y="688" on="1"/>
        <pt x="387" y="688" on="1"/>
        <pt x="387" y="266" on="1"/>
        <pt x="478" y="272" on="0"/>
        <pt x="566" y="353" on="0"/>
        <pt x="566" y="433" on="1"/>
        <pt x="566" y="688" on="1"/>
      </contour>
    </TTGlyph>
    <TTGlyph name="Q" xMin="57" yMin="-101" xMax="663" yMax="700">
      <contour>
        <pt x="574" y="36" on="0"/>
        <pt x="663" y="-26" on="1"/>
        <pt x="605" y="-101" on="1"/>
        <pt x="547" y="-49" on="0"/>
        <pt x="437" y="-10" on="0"/>
        <pt x="344" y="-10" on="1"/>
        <pt x="259" y="-10" on="0"/>
        <pt x="129" y="71" on="0"/>
        <pt x="57" y="230" on="0"/>
        <pt x="57" y="343" on="1"/>
        <pt x="57" y="454" on="0"/>
        <pt x="130" y="616" on="0"/>
        <pt x="260" y="700" on="0"/>
        <pt x="346" y="700" on="1"/>
        <pt x="433" y="700" on="0"/>
        <pt x="563" y="618" on="0"/>
        <pt x="635" y="458" on="0"/>
        <pt x="635" y="344" on="1"/>
        <pt x="635" y="220" on="0"/>
        <pt x="553" y="75" on="0"/>
        <pt x="474" y="36" on="1"/>
      </contour>
      <contour>
        <pt x="151" y="199" on="0"/>
        <pt x="255" y="61" on="0"/>
        <pt x="346" y="61" on="1"/>
        <pt x="439" y="61" on="0"/>
        <pt x="541" y="198" on="0"/>
        <pt x="541" y="344" on="1"/>
        <pt x="541" y="489" on="0"/>
        <pt x="439" y="627" on="0"/>
        <pt x="346" y="627" on="1"/>
        <pt x="254" y="627" on="0"/>
        <pt x="151" y="488" on="0"/>
        <pt x="151" y="343" on="1"/>
      </contour>
    </TTGlyph>
    <TTGlyph name="R" xMin="102" yMin="0" xMax="576" yMax="688">
      <contour>
        <pt x="303" y="295" on="1"/>
        <pt x="191" y="295" on="1"/>
        <pt x="191" y="0" on="1"/>
        <pt x="102" y="0" on="1"/>
        <pt x="102" y="688" on="1"/>
        <pt x="280" y="688" on="1"/>
        <pt x="408" y="688" on="0"/>
        <pt x="539" y="591" on="0"/>
        <pt x="539" y="495" on="1"/>
        <pt x="539" y="423" on="0"/>
        <pt x="464" y="333" on="0"/>
        <pt x="389" y="311" on="1"/>
        <pt x="576" y="0" on="1"/>
        <pt x="470" y="0" on="1"/>
      </contour>
      <contour>
        <pt x="290" y="363" on="1"/>
        <pt x="366" y="363" on="0"/>
        <pt x="445" y="426" on="0"/>
        <pt x="445" y="495" on="1"/>
        <pt x="445" y="560" on="0"/>
        <pt x="366" y="619" on="0"/>
        <pt x="279" y="619" on="1"/>
        <pt x="191" y="619" on="1"/>
        <pt x="191" y="363" on="1"/>
      </contour>
    </TTGlyph>
    <TTGlyph name="Racute" xMin="102" yMin="0" xMax="576" yMax="907">
      <component glyphName="R" x="0" y="0" flags="0x0"/>
      <component glyphName="acutecomb.case" x="441" y="0" flags="0x0"/>
    </TTGlyph>
    <TTGlyph name="Rcaron" xMin="102" yMin="0" xMax="576" yMax="905">
      <component glyphName="R" x="0" y="0" flags="0x0"/>
      <component glyphName="uni030C.case" x="489" y="0" flags="0x0"/>
    </TTGlyph>
    <TTGlyph name="Rcommaaccent" xMin="102" yMin="-293" xMax="576" yMax="688">
      <component glyphName="R" x="0" y="0" flags="0x0"/>
      <component glyphName="uni0326.case" x="395" y="0" flags="0x0"/>
    </TTGlyph>
    <TTGlyph name="Rho" xMin="102" yMin="0" xMax="545" yMax="688">
      <contour>
        <pt x="406" y="688" on="0"/>
        <pt x="545" y="583" on="0"/>
        <pt x="545" y="477" on="1"/>
        <pt x="545" y="364" on="0"/>
        <pt x="401" y="255" on="0"/>
        <pt x="280" y="255" on="1"/>
        <pt x="191" y="255" on="1"/>
        <pt x="191" y="0" on="1"/>
        <pt x="102" y="0" on="1"/>
        <pt x="102" y="688" on="1"/>
        <pt x="279" y="688" on="1"/>
      </contour>
      <contour>
        <pt x="361" y="326" on="0"/>
        <pt x="451" y="392" on="0"/>
        <pt x="451" y="476" on="1"/>
        <pt x="451" y="552" on="0"/>
        <pt x="362" y="619" on="0"/>
        <pt x="278" y="619" on="1"/>
        <pt x="191" y="619" on="1"/>
        <pt x="191" y="326" on="1"/>
        <pt x="276" y="326" on="1"/>
      </contour>
    </TTGlyph>
    <TTGlyph name="S" xMin="27" yMin="-12" xMax="502" yMax="700">
      <contour>
        <pt x="337" y="700" on="0"/>
        <pt x="434" y="661" on="0"/>
        <pt x="480" y="621" on="1"/>
        <pt x="431" y="566" on="1"/>
        <pt x="392" y="598" on="0"/>
        <pt x="317" y="627" on="0"/>
        <pt x="273" y="627" on="1"/>
        <pt x="217" y="627" on="0"/>
        <pt x="146" y="574" on="0"/>
        <pt x="146" y="526" on="1"/>
        <pt x="146" y="495" on="0"/>
        <pt x="171" y="453" on="0"/>
        <pt x="236" y="418" on="0"/>
        <pt x="298" y="399" on="1"/>
        <pt x="364" y="379" on="0"/>
        <pt x="450" y="332" on="0"/>
        <pt x="502" y="253" on="0"/>
        <pt x="502" y="191" on="1"/>
        <pt x="502" y="131" on="0"/>
        <pt x="444" y="39" on="0"/>
        <pt x="334" y="-12" on="0"/>
        <pt x="259" y="-12" on="1"/>
        <pt x="118" y="-12" on="0"/>
        <pt x="27" y="77" on="1"/>
        <pt x="77" y="132" on="1"/>
        <pt x="118" y="97" on="0"/>
        <pt x="204" y="61" on="0"/>
        <pt x="258" y="61" on="1"/>
        <pt x="324" y="61" on="0"/>
        <pt x="409" y="127" on="0"/>
        <pt x="409" y="188" on="1"/>
        <pt x="409" y="224" on="0"/>
        <pt x="382" y="271" on="0"/>
        <pt x="318" y="307" on="0"/>
        <pt x="258" y="325" on="1"/>
        <pt x="152" y="357" on="0"/>
        <pt x="55" y="446" on="0"/>
        <pt x="55" y="522" on="1"/>
        <pt x="55" y="574" on="0"/>
        <pt x="110" y="655" on="0"/>
        <pt x="208" y="700" on="0"/>
        <pt x="270" y="700" on="1"/>
      </contour>
    </TTGlyph>
    <TTGlyph name="Sacute" xMin="27" yMin="-12" xMax="502" yMax="907">
      <component glyphName="S" x="0" y="0" flags="0x0"/>
      <component glyphName="acutecomb.case" x="418" y="0" flags="0x0"/>
    </TTGlyph>
    <TTGlyph name="Sacute.loclPLK" xMin="27" yMin="-12" xMax="502" yMax="923">
      <component glyphName="S" x="0" y="0" flags="0x0"/>
      <component glyphName="acute.case.loclPLK" x="130" y="0" flags="0x0"/>
    </TTGlyph>
    <TTGlyph name="Scaron" xMin="27" yMin="-12" xMax="502" yMax="905">
      <component glyphName="S" x="0" y="0" flags="0x0"/>
      <component glyphName="uni030C.case" x="466" y="0" flags="0x0"/>
    </TTGlyph>
    <TTGlyph name="Scedilla" xMin="27" yMin="-239" xMax="502" yMax="700">
      <contour>
        <pt x="502" y="108" on="0"/>
        <pt x="391" y="-1" on="0"/>
        <pt x="294" y="-10" on="1"/>
        <pt x="294" y="-57" on="1"/>
        <pt x="341" y="-61" on="0"/>
        <pt x="387" y="-108" on="0"/>
        <pt x="387" y="-141" on="1"/>
        <pt x="387" y="-187" on="0"/>
        <pt x="318" y="-239" on="0"/>
        <pt x="266" y="-239" on="1"/>
        <pt x="209" y="-239" on="0"/>
        <pt x="177" y="-215" on="1"/>
        <pt x="201" y="-166" on="1"/>
        <pt x="230" y="-182" on="0"/>
        <pt x="263" y="-182" on="1"/>
        <pt x="286" y="-182" on="0"/>
        <pt x="314" y="-162" on="0"/>
        <pt x="314" y="-141" on="1"/>
        <pt x="314" y="-120" on="0"/>
        <pt x="272" y="-99" on="0"/>
        <pt x="225" y="-98" on="1"/>
        <pt x="236" y="-11" on="1"/>
        <pt x="111" y="-4" on="0"/>
        <pt x="27" y="77" on="1"/>
        <pt x="77" y="132" on="1"/>
        <pt x="118" y="97" on="0"/>
        <pt x="204" y="61" on="0"/>
        <pt x="258" y="61" on="1"/>
        <pt x="324" y="61" on="0"/>
        <pt x="409" y="127" on="0"/>
        <pt x="409" y="188" on="1"/>
        <pt x="409" y="224" on="0"/>
        <pt x="382" y="271" on="0"/>
        <pt x="318" y="307" on="0"/>
        <pt x="258" y="325" on="1"/>
        <pt x="152" y="357" on="0"/>
        <pt x="55" y="446" on="0"/>
        <pt x="55" y="522" on="1"/>
        <pt x="55" y="574" on="0"/>
        <pt x="110" y="655" on="0"/>
        <pt x="208" y="700" on="0"/>
        <pt x="270" y="700" on="1"/>
        <pt x="337" y="700" on="0"/>
        <pt x="434" y="661" on="0"/>
        <pt x="480" y="621" on="1"/>
        <pt x="431" y="566" on="1"/>
        <pt x="392" y="598" on="0"/>
        <pt x="317" y="627" on="0"/>
        <pt x="273" y="627" on="1"/>
        <pt x="217" y="627" on="0"/>
        <pt x="146" y="574" on="0"/>
        <pt x="146" y="526" on="1"/>
        <pt x="146" y="495" on="0"/>
        <pt x="171" y="453" on="0"/>
        <pt x="236" y="418" on="0"/>
        <pt x="298" y="399" on="1"/>
        <pt x="364" y="379" on="0"/>
        <pt x="450" y="332" on="0"/>
        <pt x="502" y="253" on="0"/>
        <pt x="502" y="191" on="1"/>
      </contour>
    </TTGlyph>
    <TTGlyph name="Scircumflex" xMin="27" yMin="-12" xMax="502" yMax="910">
      <component glyphName="S" x="0" y="0" flags="0x0"/>
      <component glyphName="uni0302.case" x="468" y="0" flags="0x0"/>
    </TTGlyph>
    <TTGlyph name="Scommaaccent" xMin="27" yMin="-293" xMax="502" yMax="700">
      <component glyphName="S" x="0" y="0" flags="0x0"/>
      <component glyphName="uni0326.case" x="353" y="0" flags="0x0"/>
    </TTGlyph>
    <TTGlyph name="Sigma" xMin="41" yMin="0" xMax="460" yMax="688">
      <contour>
        <pt x="460" y="615" on="1"/>
        <pt x="142" y="615" on="1"/>
        <pt x="344" y="369" on="1"/>
        <pt x="344" y="312" on="1"/>
        <pt x="142" y="73" on="1"/>
        <pt x="460" y="73" on="1"/>
        <pt x="460" y="0" on="1"/>
        <pt x="41" y="0" on="1"/>
        <pt x="41" y="72" on="1"/>
        <pt x="265" y="339" on="1"/>
        <pt x="41" y="616" on="1"/>
        <pt x="41" y="688" on="1"/>
        <pt x="460" y="688" on="1"/>
      </contour>
    </TTGlyph>
    <TTGlyph name="T" xMin="15" yMin="0" xMax="503" yMax="688">
      <contour>
        <pt x="494" y="612" on="1"/>
        <pt x="301" y="612" on="1"/>
        <pt x="301" y="0" on="1"/>
        <pt x="212" y="0" on="1"/>
        <pt x="212" y="612" on="1"/>
        <pt x="15" y="612" on="1"/>
        <pt x="15" y="688" on="1"/>
        <pt x="503" y="688" on="1"/>
      </contour>
    </TTGlyph>
    <TTGlyph name="Tau" xMin="15" yMin="0" xMax="503" yMax="688">
      <component glyphName="T" x="0" y="0" flags="0x0"/>
    </TTGlyph>
    <TTGlyph name="Tbar" xMin="15" yMin="-2" xMax="503" yMax="687">
      <contour>
        <pt x="301" y="610" on="1"/>
        <pt x="301" y="387" on="1"/>
        <pt x="426" y="387" on="1"/>
        <pt x="426" y="321" on="1"/>
        <pt x="301" y="321" on="1"/>
        <pt x="301" y="-2" on="1"/>
        <pt x="212" y="-2" on="1"/>
        <pt x="212" y="321" on="1"/>
        <pt x="89" y="321" on="1"/>
        <pt x="89" y="387" on="1"/>
        <pt x="212" y="387" on="1"/>
        <pt x="212" y="610" on="1"/>
        <pt x="15" y="610" on="1"/>
        <pt x="15" y="687" on="1"/>
        <pt x="503" y="687" on="1"/>
        <pt x="494" y="610" on="1"/>
      </contour>
    </TTGlyph>
    <TTGlyph name="Tcaron" xMin="15" yMin="0" xMax="503" yMax="905">
      <component glyphName="T" x="0" y="0" flags="0x0"/>
      <component glyphName="uni030C.case" x="448" y="0" flags="0x0"/>
    </TTGlyph>
    <TTGlyph name="Theta" xMin="57" yMin="-12" xMax="635" yMax="700">
      <contour>
        <pt x="433" y="700" on="0"/>
        <pt x="563" y="618" on="0"/>
        <pt x="635" y="458" on="0"/>
        <pt x="635" y="344" on="1"/>
        <pt x="635" y="232" on="0"/>
        <pt x="563" y="72" on="0"/>
        <pt x="432" y="-12" on="0"/>
        <pt x="346" y="-12" on="1"/>
        <pt x="260" y="-12" on="0"/>
        <pt x="129" y="70" on="0"/>
        <pt x="57" y="230" on="0"/>
        <pt x="57" y="343" on="1"/>
        <pt x="57" y="454" on="0"/>
        <pt x="130" y="616" on="0"/>
        <pt x="260" y="700" on="0"/>
        <pt x="346" y="700" on="1"/>
      </contour>
      <contour>
        <pt x="254" y="627" on="0"/>
        <pt x="151" y="488" on="0"/>
        <pt x="151" y="343" on="1"/>
        <pt x="151" y="199" on="0"/>
        <pt x="255" y="61" on="0"/>
        <pt x="346" y="61" on="1"/>
        <pt x="439" y="61" on="0"/>
        <pt x="541" y="198" on="0"/>
        <pt x="541" y="344" on="1"/>
        <pt x="541" y="489" on="0"/>
        <pt x="439" y="627" on="0"/>
        <pt x="346" y="627" on="1"/>
      </contour>
      <contour>
        <pt x="467" y="317" on="1"/>
        <pt x="224" y="317" on="1"/>
        <pt x="224" y="387" on="1"/>
        <pt x="467" y="387" on="1"/>
      </contour>
    </TTGlyph>
    <TTGlyph name="Thorn" xMin="102" yMin="0" xMax="545" yMax="688">
      <contour>
        <pt x="406" y="570" on="0"/>
        <pt x="545" y="462" on="0"/>
        <pt x="545" y="354" on="1"/>
        <pt x="545" y="239" on="0"/>
        <pt x="401" y="129" on="0"/>
        <pt x="280" y="129" on="1"/>
        <pt x="191" y="129" on="1"/>
        <pt x="191" y="0" on="1"/>
        <pt x="102" y="0" on="1"/>
        <pt x="102" y="688" on="1"/>
        <pt x="191" y="688" on="1"/>
        <pt x="191" y="570" on="1"/>
        <pt x="279" y="570" on="1"/>
      </contour>
      <contour>
        <pt x="361" y="199" on="0"/>
        <pt x="451" y="266" on="0"/>
        <pt x="451" y="353" on="1"/>
        <pt x="451" y="431" on="0"/>
        <pt x="362" y="500" on="0"/>
        <pt x="278" y="500" on="1"/>
        <pt x="191" y="500" on="1"/>
        <pt x="191" y="199" on="1"/>
        <pt x="276" y="199" on="1"/>
      </contour>
    </TTGlyph>
    <TTGlyph name="U" xMin="92" yMin="-12" xMax="568" yMax="688">
      <contour>
        <pt x="568" y="220" on="1"/>
        <pt x="568" y="116" on="0"/>
        <pt x="442" y="-12" on="0"/>
        <pt x="329" y="-12" on="1"/>
        <pt x="215" y="-12" on="0"/>
        <pt x="92" y="115" on="0"/>
        <pt x="92" y="220" on="1"/>
        <pt x="92" y="688" on="1"/>
        <pt x="181" y="688" on="1"/>
        <pt x="181" y="226" on="1"/>
        <pt x="181" y="63" on="0"/>
        <pt x="329" y="63" on="1"/>
        <pt x="479" y="63" on="0"/>
        <pt x="479" y="226" on="1"/>
        <pt x="479" y="688" on="1"/>
        <pt x="568" y="688" on="1"/>
      </contour>
    </TTGlyph>
    <TTGlyph name="Uacute" xMin="92" yMin="-12" xMax="568" yMax="907">
      <component glyphName="U" x="0" y="0" flags="0x0"/>
      <component glyphName="acutecomb.case" x="473" y="0" flags="0x0"/>
    </TTGlyph>
    <TTGlyph name="Ubreve" xMin="92" yMin="-12" xMax="568" yMax="890">
      <component glyphName="U" x="0" y="0" flags="0x0"/>
      <component glyphName="uni0306.case" x="505" y="0" flags="0x0"/>
    </TTGlyph>
    <TTGlyph name="Ucircumflex" xMin="92" yMin="-12" xMax="568" yMax="910">
      <component glyphName="U" x="0" y="0" flags="0x0"/>
      <component glyphName="uni0302.case" x="522" y="0" flags="0x0"/>
    </TTGlyph>
    <TTGlyph name="Udieresis" xMin="92" yMin="-12" xMax="568" yMax="889">
      <component glyphName="U" x="0" y="0" flags="0x0"/>
      <component glyphName="uni0308.case" x="517" y="0" flags="0x0"/>
    </TTGlyph>
    <TTGlyph name="Ugrave" xMin="92" yMin="-12" xMax="568" yMax="907">
      <component glyphName="U" x="0" y="0" flags="0x0"/>
      <component glyphName="gravecomb.case" x="464" y="0" flags="0x0"/>
    </TTGlyph>
    <TTGlyph name="Uhorn" xMin="92" yMin="-12" xMax="688" yMax="772">
      <component glyphName="U" x="0" y="0" flags="0x0"/>
      <component glyphName="uni031B.case" x="718" y="0" flags="0x0"/>
    </TTGlyph>
    <TTGlyph name="Uhungarumlaut" xMin="92" yMin="-12" xMax="568" yMax="954">
      <component glyphName="U" x="0" y="0" flags="0x0"/>
      <component glyphName="uni030B.case" x="569" y="0" flags="0x0"/>
    </TTGlyph>
    <TTGlyph name="Umacron" xMin="92" yMin="-12" xMax="568" yMax="860">
      <component glyphName="U" x="0" y="0" flags="0x0"/>
      <component glyphName="uni0304.case" x="492" y="0" flags="0x0"/>
    </TTGlyph>
    <TTGlyph name="Uogonek" xMin="92" yMin="-229" xMax="568" yMax="688">
      <contour>
        <pt x="568" y="688" on="1"/>
        <pt x="568" y="220" on="1"/>
        <pt x="568" y="138" on="0"/>
        <pt x="489" y="22" on="0"/>
        <pt x="416" y="0" on="1"/>
        <pt x="345" y="-30" on="0"/>
        <pt x="293" y="-84" on="0"/>
        <pt x="293" y="-115" on="1"/>
        <pt x="293" y="-163" on="0"/>
        <pt x="350" y="-163" on="1"/>
        <pt x="378" y="-163" on="0"/>
        <pt x="410" y="-156" on="1"/>
        <pt x="402" y="-223" on="1"/>
        <pt x="372" y="-229" on="0"/>
        <pt x="340" y="-229" on="1"/>
        <pt x="284" y="-229" on="0"/>
        <pt x="217" y="-174" on="0"/>
        <pt x="217" y="-130" on="1"/>
        <pt x="217" y="-53" on="0"/>
        <pt x="312" y="-11" on="1"/>
        <pt x="206" y="-6" on="0"/>
        <pt x="92" y="119" on="0"/>
        <pt x="92" y="220" on="1"/>
        <pt x="92" y="688" on="1"/>
        <pt x="181" y="688" on="1"/>
        <pt x="181" y="226" on="1"/>
        <pt x="181" y="63" on="0"/>
        <pt x="329" y="63" on="1"/>
        <pt x="479" y="63" on="0"/>
        <pt x="479" y="226" on="1"/>
        <pt x="479" y="688" on="1"/>
      </contour>
    </TTGlyph>
    <TTGlyph name="Upsilon" xMin="6" yMin="0" xMax="539" yMax="688">
      <contour>
        <pt x="318" y="266" on="1"/>
        <pt x="318" y="0" on="1"/>
        <pt x="228" y="0" on="1"/>
        <pt x="228" y="265" on="1"/>
        <pt x="6" y="688" on="1"/>
        <pt x="105" y="688" on="1"/>
        <pt x="275" y="343" on="1"/>
        <pt x="446" y="688" on="1"/>
        <pt x="539" y="688" on="1"/>
      </contour>
    </TTGlyph>
    <TTGlyph name="Upsilondieresis" xMin="6" yMin="0" xMax="539" yMax="889">
      <component glyphName="Y" x="0" y="0" flags="0x0"/>
      <component glyphName="uni0308.case" x="460" y="0" flags="0x0"/>
    </TTGlyph>
    <TTGlyph name="Upsilontonos" xMin="30" yMin="0" xMax="715" yMax="705">
      <component glyphName="tonos.case" x="0" y="0" flags="0x0"/>
      <component glyphName="Y" x="176" y="0" flags="0x0"/>
    </TTGlyph>
    <TTGlyph name="Uring" xMin="92" yMin="-12" xMax="568" yMax="959">
      <component glyphName="U" x="0" y="0" flags="0x0"/>
      <component glyphName="uni030A.case" x="471" y="0" flags="0x0"/>
    </TTGlyph>
    <TTGlyph name="Utilde" xMin="92" yMin="-12" xMax="568" yMax="897">
      <component glyphName="U" x="0" y="0" flags="0x0"/>
      <component glyphName="tildecomb.case" x="520" y="0" flags="0x0"/>
    </TTGlyph>
    <TTGlyph name="V" xMin="8" yMin="0" xMax="546" yMax="688">
      <contour>
        <pt x="326" y="0" on="1"/>
        <pt x="230" y="0" on="1"/>
        <pt x="8" y="688" on="1"/>
        <pt x="103" y="688" on="1"/>
        <pt x="280" y="96" on="1"/>
        <pt x="457" y="688" on="1"/>
        <pt x="546" y="688" on="1"/>
      </contour>
    </TTGlyph>
    <TTGlyph name="W" xMin="26" yMin="0" xMax="797" yMax="688">
      <contour>
        <pt x="655" y="0" on="1"/>
        <pt x="542" y="0" on="1"/>
        <pt x="411" y="584" on="1"/>
        <pt x="279" y="0" on="1"/>
        <pt x="168" y="0" on="1"/>
        <pt x="26" y="688" on="1"/>
        <pt x="113" y="688" on="1"/>
        <pt x="228" y="78" on="1"/>
        <pt x="364" y="688" on="1"/>
        <pt x="459" y="688" on="1"/>
        <pt x="598" y="78" on="1"/>
        <pt x="715" y="688" on="1"/>
        <pt x="797" y="688" on="1"/>
      </contour>
    </TTGlyph>
    <TTGlyph name="Wacute" xMin="26" yMin="0" xMax="797" yMax="907">
      <component glyphName="W" x="0" y="0" flags="0x0"/>
      <component glyphName="acutecomb.case" x="555" y="0" flags="0x0"/>
    </TTGlyph>
    <TTGlyph name="Wcircumflex" xMin="26" yMin="0" xMax="797" yMax="910">
      <component glyphName="W" x="0" y="0" flags="0x0"/>
      <component glyphName="uni0302.case" x="604" y="0" flags="0x0"/>
    </TTGlyph>
    <TTGlyph name="Wdieresis" xMin="26" yMin="0" xMax="797" yMax="889">
      <component glyphName="W" x="0" y="0" flags="0x0"/>
      <component glyphName="uni0308.case" x="598" y="0" flags="0x0"/>
    </TTGlyph>
    <TTGlyph name="Wgrave" xMin="26" yMin="0" xMax="797" yMax="907">
      <component glyphName="W" x="0" y="0" flags="0x0"/>
      <component glyphName="gravecomb.case" x="546" y="0" flags="0x0"/>
    </TTGlyph>
    <TTGlyph name="X" xMin="6" yMin="0" xMax="529" yMax="688">
      <contour>
        <pt x="529" y="0" on="1"/>
        <pt x="429" y="0" on="1"/>
        <pt x="266" y="309" on="1"/>
        <pt x="101" y="0" on="1"/>
        <pt x="6" y="0" on="1"/>
        <pt x="213" y="367" on="1"/>
        <pt x="24" y="688" on="1"/>
        <pt x="125" y="688" on="1"/>
        <pt x="267" y="426" on="1"/>
        <pt x="410" y="688" on="1"/>
        <pt x="506" y="688" on="1"/>
        <pt x="319" y="372" on="1"/>
      </contour>
    </TTGlyph>
    <TTGlyph name="Xi" xMin="46" yMin="0" xMax="463" yMax="688">
      <contour>
        <pt x="442" y="608" on="1"/>
        <pt x="46" y="608" on="1"/>
        <pt x="46" y="688" on="1"/>
        <pt x="454" y="688" on="1"/>
      </contour>
      <contour>
        <pt x="395" y="311" on="1"/>
        <pt x="107" y="311" on="1"/>
        <pt x="107" y="390" on="1"/>
        <pt x="395" y="390" on="1"/>
      </contour>
      <contour>
        <pt x="463" y="0" on="1"/>
        <pt x="46" y="0" on="1"/>
        <pt x="46" y="82" on="1"/>
        <pt x="463" y="82" on="1"/>
      </contour>
    </TTGlyph>
    <TTGlyph name="Y" xMin="6" yMin="0" xMax="539" yMax="688">
      <contour>
        <pt x="318" y="266" on="1"/>
        <pt x="318" y="0" on="1"/>
        <pt x="228" y="0" on="1"/>
        <pt x="228" y="265" on="1"/>
        <pt x="6" y="688" on="1"/>
        <pt x="105" y="688" on="1"/>
        <pt x="275" y="343" on="1"/>
        <pt x="446" y="688" on="1"/>
        <pt x="539" y="688" on="1"/>
      </contour>
    </TTGlyph>
    <TTGlyph name="Yacute" xMin="6" yMin="0" xMax="539" yMax="907">
      <component glyphName="Y" x="0" y="0" flags="0x0"/>
      <component glyphName="acutecomb.case" x="416" y="0" flags="0x0"/>
    </TTGlyph>
    <TTGlyph name="Ycircumflex" xMin="6" yMin="0" xMax="539" yMax="910">
      <component glyphName="Y" x="0" y="0" flags="0x0"/>
      <component glyphName="uni0302.case" x="465" y="0" flags="0x0"/>
    </TTGlyph>
    <TTGlyph name="Ydieresis" xMin="6" yMin="0" xMax="539" yMax="889">
      <component glyphName="Y" x="0" y="0" flags="0x0"/>
      <component glyphName="uni0308.case" x="460" y="0" flags="0x0"/>
    </TTGlyph>
    <TTGlyph name="Ygrave" xMin="6" yMin="0" xMax="539" yMax="907">
      <component glyphName="Y" x="0" y="0" flags="0x0"/>
      <component glyphName="gravecomb.case" x="407" y="0" flags="0x0"/>
    </TTGlyph>
    <TTGlyph name="Z" xMin="31" yMin="0" xMax="475" yMax="688">
      <contour>
        <pt x="475" y="616" on="1"/>
        <pt x="130" y="76" on="1"/>
        <pt x="474" y="76" on="1"/>
        <pt x="464" y="0" on="1"/>
        <pt x="31" y="0" on="1"/>
        <pt x="31" y="71" on="1"/>
        <pt x="379" y="613" on="1"/>
        <pt x="67" y="613" on="1"/>
        <pt x="67" y="688" on="1"/>
        <pt x="475" y="688" on="1"/>
      </contour>
    </TTGlyph>
    <TTGlyph name="Zacute" xMin="31" yMin="0" xMax="475" yMax="907">
      <component glyphName="Z" x="0" y="0" flags="0x0"/>
      <component glyphName="acutecomb.case" x="414" y="0" flags="0x0"/>
    </TTGlyph>
    <TTGlyph name="Zacute.loclPLK" xMin="31" yMin="0" xMax="475" yMax="923">
      <component glyphName="Z" x="0" y="0" flags="0x0"/>
      <component glyphName="acute.case.loclPLK" x="125" y="0" flags="0x0"/>
    </TTGlyph>
    <TTGlyph name="Zcaron" xMin="31" yMin="0" xMax="475" yMax="905">
      <component glyphName="Z" x="0" y="0" flags="0x0"/>
      <component glyphName="uni030C.case" x="462" y="0" flags="0x0"/>
    </TTGlyph>
    <TTGlyph name="Zdotaccent" xMin="31" yMin="0" xMax="475" yMax="901">
      <component glyphName="Z" x="0" y="0" flags="0x0"/>
      <component glyphName="uni0307.case" x="359" y="0" flags="0x0"/>
    </TTGlyph>
    <TTGlyph name="Zeta" xMin="31" yMin="0" xMax="475" yMax="688">
      <component glyphName="Z" x="0" y="0" flags="0x0"/>
    </TTGlyph>
    <TTGlyph name="a" xMin="47" yMin="-12" xMax="491" yMax="538">
      <contour>
        <pt x="447" y="88" on="0"/>
        <pt x="468" y="56" on="0"/>
        <pt x="491" y="48" on="1"/>
        <pt x="471" y="-12" on="1"/>
        <pt x="430" y="-7" on="0"/>
        <pt x="382" y="30" on="0"/>
        <pt x="372" y="68" on="1"/>
        <pt x="345" y="28" on="0"/>
        <pt x="264" y="-12" on="0"/>
        <pt x="214" y="-12" on="1"/>
        <pt x="137" y="-12" on="0"/>
        <pt x="47" y="76" on="0"/>
        <pt x="47" y="147" on="1"/>
        <pt x="47" y="230" on="0"/>
        <pt x="167" y="320" on="0"/>
        <pt x="276" y="320" on="1"/>
        <pt x="361" y="320" on="1"/>
        <pt x="361" y="361" on="1"/>
        <pt x="361" y="418" on="0"/>
        <pt x="306" y="468" on="0"/>
        <pt x="249" y="468" on="1"/>
        <pt x="192" y="468" on="0"/>
        <pt x="107" y="439" on="1"/>
        <pt x="85" y="502" on="1"/>
        <pt x="181" y="538" on="0"/>
        <pt x="264" y="538" on="1"/>
        <pt x="357" y="538" on="0"/>
        <pt x="447" y="449" on="0"/>
        <pt x="447" y="365" on="1"/>
        <pt x="447" y="122" on="1"/>
      </contour>
      <contour>
        <pt x="275" y="53" on="0"/>
        <pt x="337" y="94" on="0"/>
        <pt x="361" y="137" on="1"/>
        <pt x="361" y="262" on="1"/>
        <pt x="288" y="262" on="1"/>
        <pt x="139" y="262" on="0"/>
        <pt x="139" y="151" on="1"/>
        <pt x="139" y="103" on="0"/>
        <pt x="187" y="53" on="0"/>
        <pt x="233" y="53" on="1"/>
      </contour>
    </TTGlyph>
    <TTGlyph name="a.sc" xMin="8" yMin="0" xMax="496" yMax="564">
      <contour>
        <pt x="362" y="139" on="1"/>
        <pt x="139" y="139" on="1"/>
        <pt x="96" y="0" on="1"/>
        <pt x="8" y="0" on="1"/>
        <pt x="199" y="564" on="1"/>
        <pt x="306" y="564" on="1"/>
        <pt x="496" y="0" on="1"/>
        <pt x="405" y="0" on="1"/>
      </contour>
      <contour>
        <pt x="340" y="207" on="1"/>
        <pt x="251" y="494" on="1"/>
        <pt x="161" y="207" on="1"/>
      </contour>
    </TTGlyph>
    <TTGlyph name="aacute" xMin="47" yMin="-12" xMax="491" yMax="798">
      <component glyphName="a" x="0" y="0" flags="0x0"/>
      <component glyphName="acutecomb" x="408" y="0" flags="0x0"/>
    </TTGlyph>
    <TTGlyph name="aacute.sc" xMin="8" yMin="0" xMax="496" yMax="828">
      <component glyphName="a.sc" x="0" y="0" flags="0x0"/>
      <component glyphName="acutecomb.sc" x="105" y="0" flags="0x0"/>
    </TTGlyph>
    <TTGlyph name="abreve" xMin="47" yMin="-12" xMax="491" yMax="786">
      <component glyphName="a" x="0" y="0" flags="0x0"/>
      <component glyphName="uni0306" x="438" y="0" flags="0x0"/>
    </TTGlyph>
    <TTGlyph name="abreve.sc" xMin="8" yMin="0" xMax="496" yMax="816">
      <component glyphName="a.sc" x="0" y="0" flags="0x0"/>
      <component glyphName="uni0306.sc" x="74" y="0" flags="0x0"/>
    </TTGlyph>
    <TTGlyph name="abrevecy.sc" xMin="8" yMin="0" xMax="496" yMax="800">
      <component glyphName="a.sc" x="0" y="0" flags="0x0"/>
      <component glyphName="brevecy.sc" x="74" y="0" flags="0x0"/>
    </TTGlyph>
    <TTGlyph name="acircumflex" xMin="47" yMin="-12" xMax="491" yMax="790">
      <component glyphName="a" x="0" y="0" flags="0x0"/>
      <component glyphName="uni0302" x="454" y="0" flags="0x0"/>
    </TTGlyph>
    <TTGlyph name="acircumflex.sc" xMin="8" yMin="0" xMax="496" yMax="820">
      <component glyphName="a.sc" x="0" y="0" flags="0x0"/>
      <component glyphName="uni0302.sc" x="60" y="0" flags="0x0"/>
    </TTGlyph>
    <TTGlyph name="acute" xMin="30" yMin="639" xMax="265" yMax="798">
      <contour>
        <pt x="265" y="725" on="1"/>
        <pt x="56" y="639" on="1"/>
        <pt x="30" y="686" on="1"/>
        <pt x="227" y="798" on="1"/>
      </contour>
    </TTGlyph>
    <TTGlyph name="acute.case" xMin="30" yMin="756" xMax="265" yMax="907">
      <contour>
        <pt x="265" y="834" on="1"/>
        <pt x="53" y="756" on="1"/>
        <pt x="30" y="802" on="1"/>
        <pt x="228" y="907" on="1"/>
      </contour>
    </TTGlyph>
    <TTGlyph name="acute.case.loclPLK" xMin="95" yMin="734" xMax="267" yMax="923">
      <contour>
        <pt x="267" y="879" on="1"/>
        <pt x="137" y="734" on="1"/>
        <pt x="95" y="760" on="1"/>
        <pt x="199" y="923" on="1"/>
      </contour>
    </TTGlyph>
    <TTGlyph name="acute.loclPLK" xMin="95" yMin="577" xMax="266" yMax="774">
      <contour>
        <pt x="266" y="730" on="1"/>
        <pt x="137" y="577" on="1"/>
        <pt x="95" y="604" on="1"/>
        <pt x="198" y="774" on="1"/>
      </contour>
    </TTGlyph>
    <TTGlyph name="acute.sc" xMin="30" yMin="669" xMax="265" yMax="828">
      <component glyphName="acutecomb" x="296" y="30" flags="0x0"/>
    </TTGlyph>
    <TTGlyph name="acute.sc.loclPLK" xMin="95" yMin="619" xMax="266" yMax="816">
      <contour>
        <pt x="266" y="772" on="1"/>
        <pt x="137" y="619" on="1"/>
        <pt x="95" y="645" on="1"/>
        <pt x="198" y="816" on="1"/>
      </contour>
    </TTGlyph>
    <TTGlyph name="acutecomb" xMin="-266" yMin="639" xMax="-31" yMax="798">
      <contour>
        <pt x="-31" y="725" on="1"/>
        <pt x="-240" y="639" on="1"/>
        <pt x="-266" y="686" on="1"/>
        <pt x="-69" y="798" on="1"/>
      </contour>
    </TTGlyph>
    <TTGlyph name="acutecomb.case" xMin="-261" yMin="756" xMax="-26" yMax="907">
      <contour>
        <pt x="-26" y="834" on="1"/>
        <pt x="-238" y="756" on="1"/>
        <pt x="-261" y="802" on="1"/>
        <pt x="-63" y="907" on="1"/>
      </contour>
    </TTGlyph>
    <TTGlyph name="acutecomb.sc" xMin="30" yMin="669" xMax="265" yMax="828">
      <contour>
        <pt x="265" y="755" on="1"/>
        <pt x="56" y="669" on="1"/>
        <pt x="30" y="716" on="1"/>
        <pt x="227" y="828" on="1"/>
      </contour>
    </TTGlyph>
    <TTGlyph name="adieresis" xMin="47" yMin="-12" xMax="491" yMax="763">
      <component glyphName="a" x="0" y="0" flags="0x0"/>
      <component glyphName="uni0308" x="447" y="0" flags="0x0"/>
    </TTGlyph>
    <TTGlyph name="adieresis.sc" xMin="8" yMin="0" xMax="496" yMax="793">
      <component glyphName="a.sc" x="0" y="0" flags="0x0"/>
      <component glyphName="uni0308.sc" x="64" y="0" flags="0x0"/>
    </TTGlyph>
    <TTGlyph name="ae" xMin="47" yMin="-12" xMax="795" yMax="538">
      <contour>
        <pt x="795" y="257" on="0"/>
        <pt x="793" y="233" on="1"/>
        <pt x="455" y="233" on="1"/>
        <pt x="461" y="143" on="0"/>
        <pt x="538" y="59" on="0"/>
        <pt x="601" y="59" on="1"/>
        <pt x="640" y="59" on="0"/>
        <pt x="703" y="81" on="0"/>
        <pt x="738" y="106" on="1"/>
        <pt x="776" y="54" on="1"/>
        <pt x="694" y="-12" on="0"/>
        <pt x="594" y="-12" on="1"/>
        <pt x="531" y="-12" on="0"/>
        <pt x="434" y="39" on="0"/>
        <pt x="405" y="87" on="1"/>
        <pt x="368" y="34" on="0"/>
        <pt x="278" y="-12" on="0"/>
        <pt x="217" y="-12" on="1"/>
        <pt x="138" y="-12" on="0"/>
        <pt x="47" y="76" on="0"/>
        <pt x="47" y="147" on="1"/>
        <pt x="47" y="230" on="0"/>
        <pt x="169" y="320" on="0"/>
        <pt x="279" y="320" on="1"/>
        <pt x="363" y="320" on="1"/>
        <pt x="363" y="361" on="1"/>
        <pt x="363" y="418" on="0"/>
        <pt x="309" y="468" on="0"/>
        <pt x="251" y="468" on="1"/>
        <pt x="196" y="468" on="0"/>
        <pt x="109" y="439" on="1"/>
        <pt x="88" y="502" on="1"/>
        <pt x="184" y="538" on="0"/>
        <pt x="267" y="538" on="1"/>
        <pt x="328" y="538" on="0"/>
        <pt x="405" y="494" on="0"/>
        <pt x="425" y="452" on="1"/>
        <pt x="481" y="538" on="0"/>
        <pt x="585" y="538" on="1"/>
        <pt x="686" y="538" on="0"/>
        <pt x="795" y="401" on="0"/>
        <pt x="795" y="279" on="1"/>
      </contour>
      <contour>
        <pt x="710" y="305" on="1"/>
        <pt x="710" y="385" on="0"/>
        <pt x="646" y="469" on="0"/>
        <pt x="583" y="469" on="1"/>
        <pt x="465" y="469" on="0"/>
        <pt x="455" y="297" on="1"/>
        <pt x="710" y="297" on="1"/>
      </contour>
      <contour>
        <pt x="279" y="53" on="0"/>
        <pt x="348" y="99" on="0"/>
        <pt x="378" y="148" on="1"/>
        <pt x="365" y="196" on="0"/>
        <pt x="363" y="257" on="1"/>
        <pt x="364" y="261" on="1"/>
        <pt x="363" y="261" on="1"/>
        <pt x="363" y="262" on="1"/>
        <pt x="290" y="262" on="1"/>
        <pt x="141" y="262" on="0"/>
        <pt x="141" y="151" on="1"/>
        <pt x="141" y="103" on="0"/>
        <pt x="189" y="53" on="0"/>
        <pt x="236" y="53" on="1"/>
      </contour>
    </TTGlyph>
    <TTGlyph name="ae.sc" xMin="-10" yMin="0" xMax="662" yMax="564">
      <contour>
        <pt x="662" y="67" on="1"/>
        <pt x="662" y="0" on="1"/>
        <pt x="395" y="0" on="1"/>
        <pt x="362" y="139" on="1"/>
        <pt x="135" y="139" on="1"/>
        <pt x="80" y="0" on="1"/>
        <pt x="-10" y="0" on="1"/>
        <pt x="226" y="564" on="1"/>
        <pt x="626" y="564" on="1"/>
        <pt x="617" y="497" on="1"/>
        <pt x="357" y="497" on="1"/>
        <pt x="400" y="321" on="1"/>
        <pt x="619" y="321" on="1"/>
        <pt x="619" y="254" on="1"/>
        <pt x="416" y="254" on="1"/>
        <pt x="461" y="67" on="1"/>
      </contour>
      <contour>
        <pt x="345" y="207" on="1"/>
        <pt x="276" y="496" on="1"/>
        <pt x="161" y="207" on="1"/>
      </contour>
    </TTGlyph>
    <TTGlyph name="aeacute" xMin="47" yMin="-12" xMax="795" yMax="798">
      <component glyphName="ae" x="0" y="0" flags="0x0"/>
      <component glyphName="acutecomb" x="574" y="0" flags="0x0"/>
    </TTGlyph>
    <TTGlyph name="aeacute.sc" xMin="-10" yMin="0" xMax="662" yMax="828">
      <component glyphName="ae.sc" x="0" y="0" flags="0x0"/>
      <component glyphName="acutecomb.sc" x="255" y="0" flags="0x0"/>
    </TTGlyph>
    <TTGlyph name="agrave" xMin="47" yMin="-12" xMax="491" yMax="798">
      <component glyphName="a" x="0" y="0" flags="0x0"/>
      <component glyphName="gravecomb" x="417" y="0" flags="0x0"/>
    </TTGlyph>
    <TTGlyph name="agrave.sc" xMin="8" yMin="0" xMax="496" yMax="828">
      <component glyphName="a.sc" x="0" y="0" flags="0x0"/>
      <component glyphName="gravecomb.sc" x="105" y="0" flags="0x0"/>
    </TTGlyph>
    <TTGlyph name="alpha" xMin="58" yMin="-12" xMax="546" yMax="538">
      <contour>
        <pt x="326" y="538" on="0"/>
        <pt x="406" y="461" on="0"/>
        <pt x="422" y="370" on="1"/>
        <pt x="450" y="526" on="1"/>
        <pt x="529" y="526" on="1"/>
        <pt x="474" y="252" on="1"/>
        <pt x="500" y="112" on="1"/>
        <pt x="504" y="91" on="0"/>
        <pt x="524" y="67" on="0"/>
        <pt x="546" y="59" on="1"/>
        <pt x="516" y="-12" on="1"/>
        <pt x="481" y="-6" on="0"/>
        <pt x="431" y="40" on="0"/>
        <pt x="425" y="80" on="1"/>
        <pt x="415" y="145" on="1"/>
        <pt x="368" y="-12" on="0"/>
        <pt x="249" y="-12" on="1"/>
        <pt x="158" y="-12" on="0"/>
        <pt x="58" y="125" on="0"/>
        <pt x="58" y="259" on="1"/>
        <pt x="58" y="385" on="0"/>
        <pt x="162" y="538" on="0"/>
        <pt x="258" y="538" on="1"/>
      </contour>
      <contour>
        <pt x="209" y="470" on="0"/>
        <pt x="150" y="361" on="0"/>
        <pt x="150" y="259" on="1"/>
        <pt x="150" y="57" on="0"/>
        <pt x="258" y="57" on="1"/>
        <pt x="303" y="57" on="0"/>
        <pt x="376" y="147" on="0"/>
        <pt x="399" y="267" on="1"/>
        <pt x="379" y="382" on="0"/>
        <pt x="315" y="470" on="0"/>
        <pt x="263" y="470" on="1"/>
      </contour>
    </TTGlyph>
    <TTGlyph name="alpha.sc" xMin="8" yMin="0" xMax="496" yMax="564">
      <component glyphName="a.sc" x="0" y="0" flags="0x0"/>
    </TTGlyph>
    <TTGlyph name="alphadasiaoxiaprosgegrammeni.sc" xMin="8" yMin="0" xMax="496" yMax="564">
      <component glyphName="a.sc" x="0" y="0" flags="0x0"/>
    </TTGlyph>
    <TTGlyph name="alphadasiaperispomeniprosgegram" xMin="8" yMin="0" xMax="496" yMax="564">
      <component glyphName="a.sc" x="0" y="0" flags="0x0"/>
    </TTGlyph>
    <TTGlyph name="alphadasiaprosgegrammeni.sc" xMin="8" yMin="0" xMax="496" yMax="564">
      <component glyphName="a.sc" x="0" y="0" flags="0x0"/>
    </TTGlyph>
    <TTGlyph name="alphadasiavariaprosgegrammeni.s" xMin="8" yMin="0" xMax="496" yMax="564">
      <component glyphName="a.sc" x="0" y="0" flags="0x0"/>
    </TTGlyph>
    <TTGlyph name="alphaprosgegrammeni.sc" xMin="8" yMin="0" xMax="496" yMax="564">
      <component glyphName="a.sc" x="0" y="0" flags="0x0"/>
    </TTGlyph>
    <TTGlyph name="alphapsilioxiaprosgegrammeni.sc" xMin="8" yMin="0" xMax="496" yMax="564">
      <component glyphName="a.sc" x="0" y="0" flags="0x0"/>
    </TTGlyph>
    <TTGlyph name="alphapsiliperispomeniprosgegram" xMin="8" yMin="0" xMax="496" yMax="564">
      <component glyphName="a.sc" x="0" y="0" flags="0x0"/>
    </TTGlyph>
    <TTGlyph name="alphapsiliprosgegrammeni.sc" xMin="8" yMin="0" xMax="496" yMax="564">
      <component glyphName="a.sc" x="0" y="0" flags="0x0"/>
    </TTGlyph>
    <TTGlyph name="alphapsilivariaprosgegrammeni.s" xMin="8" yMin="0" xMax="496" yMax="564">
      <component glyphName="a.sc" x="0" y="0" flags="0x0"/>
    </TTGlyph>
    <TTGlyph name="alphatonos" xMin="58" yMin="-12" xMax="546" yMax="805">
      <component glyphName="alpha" x="0" y="0" flags="0x0"/>
      <component glyphName="tonos" x="217" y="0" flags="0x0"/>
    </TTGlyph>
    <TTGlyph name="alphatonos.sc" xMin="8" yMin="0" xMax="496" yMax="564">
      <component glyphName="a.sc" x="0" y="0" flags="0x0"/>
    </TTGlyph>
    <TTGlyph name="amacron" xMin="47" yMin="-12" xMax="491" yMax="734">
      <component glyphName="a" x="0" y="0" flags="0x0"/>
      <component glyphName="uni0304" x="423" y="0" flags="0x0"/>
    </TTGlyph>
    <TTGlyph name="amacron.sc" xMin="8" yMin="0" xMax="496" yMax="764">
      <component glyphName="a.sc" x="0" y="0" flags="0x0"/>
      <component glyphName="uni0304.sc" x="88" y="0" flags="0x0"/>
    </TTGlyph>
    <TTGlyph name="ampersand" xMin="83" yMin="-12" xMax="687" yMax="700">
      <contour>
        <pt x="355" y="700" on="0"/>
        <pt x="437" y="661" on="0"/>
        <pt x="482" y="592" on="0"/>
        <pt x="482" y="549" on="1"/>
        <pt x="482" y="491" on="0"/>
        <pt x="407" y="405" on="0"/>
        <pt x="339" y="365" on="1"/>
        <pt x="520" y="195" on="1"/>
        <pt x="561" y="279" on="0"/>
        <pt x="581" y="368" on="1"/>
        <pt x="661" y="344" on="1"/>
        <pt x="628" y="232" on="0"/>
        <pt x="573" y="145" on="1"/>
        <pt x="687" y="39" on="1"/>
        <pt x="625" y="-12" on="1"/>
        <pt x="525" y="85" on="1"/>
        <pt x="482" y="37" on="0"/>
        <pt x="375" y="-12" on="0"/>
        <pt x="304" y="-12" on="1"/>
        <pt x="239" y="-12" on="0"/>
        <pt x="139" y="34" on="0"/>
        <pt x="83" y="118" on="0"/>
        <pt x="83" y="174" on="1"/>
        <pt x="83" y="236" on="0"/>
        <pt x="153" y="329" on="0"/>
        <pt x="223" y="373" on="1"/>
        <pt x="172" y="422" on="0"/>
        <pt x="125" y="497" on="0"/>
        <pt x="125" y="546" on="1"/>
        <pt x="125" y="613" on="0"/>
        <pt x="219" y="700" on="0"/>
        <pt x="302" y="700" on="1"/>
      </contour>
      <contour>
        <pt x="259" y="636" on="0"/>
        <pt x="209" y="586" on="0"/>
        <pt x="209" y="547" on="1"/>
        <pt x="209" y="511" on="0"/>
        <pt x="247" y="453" on="0"/>
        <pt x="290" y="412" on="1"/>
        <pt x="344" y="444" on="0"/>
        <pt x="398" y="506" on="0"/>
        <pt x="398" y="544" on="1"/>
        <pt x="398" y="587" on="0"/>
        <pt x="346" y="636" on="0"/>
        <pt x="303" y="636" on="1"/>
      </contour>
      <contour>
        <pt x="220" y="292" on="0"/>
        <pt x="171" y="222" on="0"/>
        <pt x="171" y="177" on="1"/>
        <pt x="171" y="122" on="0"/>
        <pt x="250" y="57" on="0"/>
        <pt x="313" y="57" on="1"/>
        <pt x="362" y="57" on="0"/>
        <pt x="440" y="95" on="0"/>
        <pt x="475" y="132" on="1"/>
        <pt x="272" y="326" on="1"/>
      </contour>
    </TTGlyph>
    <TTGlyph name="ampersand.ss03" xMin="43" yMin="-12" xMax="880" yMax="618">
      <contour>
        <pt x="880" y="474" on="1"/>
        <pt x="880" y="402" on="1"/>
        <pt x="769" y="402" on="1"/>
        <pt x="759" y="288" on="0"/>
        <pt x="660" y="100" on="0"/>
        <pt x="480" y="-12" on="0"/>
        <pt x="356" y="-12" on="1"/>
        <pt x="204" y="-12" on="0"/>
        <pt x="43" y="157" on="0"/>
        <pt x="43" y="313" on="1"/>
        <pt x="43" y="404" on="0"/>
        <pt x="110" y="543" on="0"/>
        <pt x="227" y="618" on="0"/>
        <pt x="300" y="618" on="1"/>
        <pt x="355" y="618" on="0"/>
        <pt x="438" y="576" on="0"/>
        <pt x="483" y="503" on="0"/>
        <pt x="483" y="458" on="1"/>
        <pt x="483" y="359" on="0"/>
        <pt x="306" y="250" on="0"/>
        <pt x="138" y="240" on="1"/>
        <pt x="152" y="148" on="0"/>
        <pt x="258" y="61" on="0"/>
        <pt x="356" y="61" on="1"/>
        <pt x="496" y="61" on="0"/>
        <pt x="670" y="242" on="0"/>
        <pt x="687" y="402" on="1"/>
        <pt x="582" y="402" on="1"/>
        <pt x="582" y="474" on="1"/>
      </contour>
      <contour>
        <pt x="249" y="547" on="0"/>
        <pt x="174" y="489" on="0"/>
        <pt x="133" y="384" on="0"/>
        <pt x="133" y="315" on="1"/>
        <pt x="133" y="306" on="1"/>
        <pt x="272" y="316" on="0"/>
        <pt x="392" y="394" on="0"/>
        <pt x="392" y="460" on="1"/>
        <pt x="392" y="500" on="0"/>
        <pt x="343" y="547" on="0"/>
        <pt x="298" y="547" on="1"/>
      </contour>
    </TTGlyph>
    <TTGlyph name="anoteleia" xMin="51" yMin="246" xMax="182" yMax="378">
      <component glyphName="periodcentered" x="0" y="0" flags="0x0"/>
    </TTGlyph>
    <TTGlyph name="aogonek" xMin="47" yMin="-241" xMax="491" yMax="538">
      <contour>
        <pt x="401" y="-42" on="0"/>
        <pt x="349" y="-96" on="0"/>
        <pt x="349" y="-127" on="1"/>
        <pt x="349" y="-151" on="0"/>
        <pt x="376" y="-175" on="0"/>
        <pt x="406" y="-175" on="1"/>
        <pt x="434" y="-175" on="0"/>
        <pt x="466" y="-168" on="1"/>
        <pt x="458" y="-235" on="1"/>
        <pt x="428" y="-241" on="0"/>
        <pt x="396" y="-241" on="1"/>
        <pt x="340" y="-241" on="0"/>
        <pt x="273" y="-186" on="0"/>
        <pt x="273" y="-142" on="1"/>
        <pt x="273" y="-94" on="0"/>
        <pt x="343" y="-22" on="0"/>
        <pt x="416" y="6" on="1"/>
        <pt x="384" y="25" on="0"/>
        <pt x="372" y="68" on="1"/>
        <pt x="345" y="28" on="0"/>
        <pt x="264" y="-12" on="0"/>
        <pt x="214" y="-12" on="1"/>
        <pt x="137" y="-12" on="0"/>
        <pt x="47" y="76" on="0"/>
        <pt x="47" y="147" on="1"/>
        <pt x="47" y="230" on="0"/>
        <pt x="167" y="320" on="0"/>
        <pt x="276" y="320" on="1"/>
        <pt x="361" y="320" on="1"/>
        <pt x="361" y="361" on="1"/>
        <pt x="361" y="418" on="0"/>
        <pt x="306" y="468" on="0"/>
        <pt x="249" y="468" on="1"/>
        <pt x="192" y="468" on="0"/>
        <pt x="107" y="439" on="1"/>
        <pt x="85" y="502" on="1"/>
        <pt x="181" y="538" on="0"/>
        <pt x="264" y="538" on="1"/>
        <pt x="357" y="538" on="0"/>
        <pt x="447" y="449" on="0"/>
        <pt x="447" y="365" on="1"/>
        <pt x="447" y="122" on="1"/>
        <pt x="447" y="88" on="0"/>
        <pt x="468" y="56" on="0"/>
        <pt x="491" y="48" on="1"/>
        <pt x="471" y="-11" on="1"/>
        <pt x="472" y="-12" on="1"/>
      </contour>
      <contour>
        <pt x="275" y="53" on="0"/>
        <pt x="337" y="94" on="0"/>
        <pt x="361" y="137" on="1"/>
        <pt x="361" y="262" on="1"/>
        <pt x="288" y="262" on="1"/>
        <pt x="139" y="262" on="0"/>
        <pt x="139" y="151" on="1"/>
        <pt x="139" y="103" on="0"/>
        <pt x="187" y="53" on="0"/>
        <pt x="233" y="53" on="1"/>
      </contour>
    </TTGlyph>
    <TTGlyph name="aogonek.sc" xMin="8" yMin="-229" xMax="496" yMax="564">
      <contour>
        <pt x="399" y="-30" on="0"/>
        <pt x="346" y="-84" on="0"/>
        <pt x="346" y="-115" on="1"/>
        <pt x="346" y="-163" on="0"/>
        <pt x="404" y="-163" on="1"/>
        <pt x="430" y="-163" on="0"/>
        <pt x="464" y="-156" on="1"/>
        <pt x="456" y="-223" on="1"/>
        <pt x="426" y="-229" on="0"/>
        <pt x="394" y="-229" on="1"/>
        <pt x="337" y="-229" on="0"/>
        <pt x="271" y="-174" on="0"/>
        <pt x="271" y="-130" on="1"/>
        <pt x="271" y="-84" on="0"/>
        <pt x="335" y="-14" on="0"/>
        <pt x="401" y="13" on="1"/>
        <pt x="362" y="139" on="1"/>
        <pt x="139" y="139" on="1"/>
        <pt x="96" y="0" on="1"/>
        <pt x="8" y="0" on="1"/>
        <pt x="199" y="564" on="1"/>
        <pt x="306" y="564" on="1"/>
        <pt x="496" y="0" on="1"/>
        <pt x="469" y="0" on="1"/>
      </contour>
      <contour>
        <pt x="340" y="207" on="1"/>
        <pt x="251" y="494" on="1"/>
        <pt x="161" y="207" on="1"/>
      </contour>
    </TTGlyph>
    <TTGlyph name="approxequal" xMin="38" yMin="165" xMax="447" yMax="295">
      <component glyphName="asciitilde" x="0" y="-87" flags="0x0"/>
      <component glyphName="asciitilde" x="0" y="98" flags="0x0"/>
    </TTGlyph>
    <TTGlyph name="approxequal.osf" xMin="38" yMin="165" xMax="447" yMax="480">
      <contour>
        <pt x="288" y="350" on="0"/>
        <pt x="243" y="370" on="0"/>
        <pt x="216" y="389" on="1"/>
        <pt x="198" y="401" on="0"/>
        <pt x="176" y="412" on="0"/>
        <pt x="165" y="412" on="1"/>
        <pt x="141" y="412" on="0"/>
        <pt x="106" y="383" on="0"/>
        <pt x="90" y="359" on="1"/>
        <pt x="38" y="386" on="1"/>
        <pt x="86" y="480" on="0"/>
        <pt x="170" y="480" on="1"/>
        <pt x="198" y="480" on="0"/>
        <pt x="242" y="461" on="0"/>
        <pt x="269" y="443" on="1"/>
        <pt x="287" y="431" on="0"/>
        <pt x="311" y="419" on="0"/>
        <pt x="323" y="419" on="1"/>
        <pt x="365" y="419" on="0"/>
        <pt x="396" y="467" on="1"/>
        <pt x="447" y="438" on="1"/>
        <pt x="401" y="350" on="0"/>
        <pt x="318" y="350" on="1"/>
      </contour>
      <contour>
        <pt x="288" y="165" on="0"/>
        <pt x="243" y="185" on="0"/>
        <pt x="216" y="204" on="1"/>
        <pt x="198" y="216" on="0"/>
        <pt x="176" y="227" on="0"/>
        <pt x="165" y="227" on="1"/>
        <pt x="141" y="227" on="0"/>
        <pt x="106" y="198" on="0"/>
        <pt x="90" y="174" on="1"/>
        <pt x="38" y="201" on="1"/>
        <pt x="86" y="295" on="0"/>
        <pt x="170" y="295" on="1"/>
        <pt x="198" y="295" on="0"/>
        <pt x="242" y="276" on="0"/>
        <pt x="269" y="258" on="1"/>
        <pt x="287" y="246" on="0"/>
        <pt x="311" y="234" on="0"/>
        <pt x="323" y="234" on="1"/>
        <pt x="365" y="234" on="0"/>
        <pt x="396" y="282" on="1"/>
        <pt x="447" y="253" on="1"/>
        <pt x="401" y="165" on="0"/>
        <pt x="318" y="165" on="1"/>
      </contour>
    </TTGlyph>
    <TTGlyph name="approxequal.tf" xMin="75" yMin="165" xMax="484" yMax="480">
      <contour>
        <pt x="325" y="350" on="0"/>
        <pt x="280" y="370" on="0"/>
        <pt x="253" y="389" on="1"/>
        <pt x="235" y="401" on="0"/>
        <pt x="213" y="412" on="0"/>
        <pt x="202" y="412" on="1"/>
        <pt x="178" y="412" on="0"/>
        <pt x="143" y="383" on="0"/>
        <pt x="127" y="359" on="1"/>
        <pt x="75" y="386" on="1"/>
        <pt x="123" y="480" on="0"/>
        <pt x="207" y="480" on="1"/>
        <pt x="235" y="480" on="0"/>
        <pt x="279" y="461" on="0"/>
        <pt x="306" y="443" on="1"/>
        <pt x="324" y="431" on="0"/>
        <pt x="348" y="419" on="0"/>
        <pt x="360" y="419" on="1"/>
        <pt x="402" y="419" on="0"/>
        <pt x="433" y="467" on="1"/>
        <pt x="484" y="438" on="1"/>
        <pt x="438" y="350" on="0"/>
        <pt x="355" y="350" on="1"/>
      </contour>
      <contour>
        <pt x="325" y="165" on="0"/>
        <pt x="280" y="185" on="0"/>
        <pt x="253" y="204" on="1"/>
        <pt x="235" y="216" on="0"/>
        <pt x="213" y="227" on="0"/>
        <pt x="202" y="227" on="1"/>
        <pt x="178" y="227" on="0"/>
        <pt x="143" y="198" on="0"/>
        <pt x="127" y="174" on="1"/>
        <pt x="75" y="201" on="1"/>
        <pt x="123" y="295" on="0"/>
        <pt x="207" y="295" on="1"/>
        <pt x="235" y="295" on="0"/>
        <pt x="279" y="276" on="0"/>
        <pt x="306" y="258" on="1"/>
        <pt x="324" y="246" on="0"/>
        <pt x="348" y="234" on="0"/>
        <pt x="360" y="234" on="1"/>
        <pt x="402" y="234" on="0"/>
        <pt x="433" y="282" on="1"/>
        <pt x="484" y="253" on="1"/>
        <pt x="438" y="165" on="0"/>
        <pt x="355" y="165" on="1"/>
      </contour>
    </TTGlyph>
    <TTGlyph name="approxequal.tosf" xMin="75" yMin="165" xMax="484" yMax="480">
      <contour>
        <pt x="325" y="350" on="0"/>
        <pt x="280" y="370" on="0"/>
        <pt x="253" y="389" on="1"/>
        <pt x="235" y="401" on="0"/>
        <pt x="213" y="412" on="0"/>
        <pt x="202" y="412" on="1"/>
        <pt x="178" y="412" on="0"/>
        <pt x="143" y="383" on="0"/>
        <pt x="127" y="359" on="1"/>
        <pt x="75" y="386" on="1"/>
        <pt x="123" y="480" on="0"/>
        <pt x="207" y="480" on="1"/>
        <pt x="235" y="480" on="0"/>
        <pt x="279" y="461" on="0"/>
        <pt x="306" y="443" on="1"/>
        <pt x="324" y="431" on="0"/>
        <pt x="348" y="419" on="0"/>
        <pt x="360" y="419" on="1"/>
        <pt x="402" y="419" on="0"/>
        <pt x="433" y="467" on="1"/>
        <pt x="484" y="438" on="1"/>
        <pt x="438" y="350" on="0"/>
        <pt x="355" y="350" on="1"/>
      </contour>
      <contour>
        <pt x="325" y="165" on="0"/>
        <pt x="280" y="185" on="0"/>
        <pt x="253" y="204" on="1"/>
        <pt x="235" y="216" on="0"/>
        <pt x="213" y="227" on="0"/>
        <pt x="202" y="227" on="1"/>
        <pt x="178" y="227" on="0"/>
        <pt x="143" y="198" on="0"/>
        <pt x="127" y="174" on="1"/>
        <pt x="75" y="201" on="1"/>
        <pt x="123" y="295" on="0"/>
        <pt x="207" y="295" on="1"/>
        <pt x="235" y="295" on="0"/>
        <pt x="279" y="276" on="0"/>
        <pt x="306" y="258" on="1"/>
        <pt x="324" y="246" on="0"/>
        <pt x="348" y="234" on="0"/>
        <pt x="360" y="234" on="1"/>
        <pt x="402" y="234" on="0"/>
        <pt x="433" y="282" on="1"/>
        <pt x="484" y="253" on="1"/>
        <pt x="438" y="165" on="0"/>
        <pt x="355" y="165" on="1"/>
      </contour>
    </TTGlyph>
    <TTGlyph name="aring" xMin="47" yMin="-12" xMax="491" yMax="833">
      <component glyphName="a" x="0" y="0" flags="0x0"/>
      <component glyphName="uni030A" x="401" y="0" flags="0x0"/>
    </TTGlyph>
    <TTGlyph name="aring.sc" xMin="8" yMin="0" xMax="496" yMax="863">
      <component glyphName="a.sc" x="0" y="0" flags="0x0"/>
      <component glyphName="uni030A.sc" x="111" y="0" flags="0x0"/>
    </TTGlyph>
    <TTGlyph name="aringacute" xMin="47" yMin="-12" xMax="491" yMax="950">
      <contour>
        <pt x="169" y="799" on="1"/>
        <pt x="146" y="845" on="1"/>
        <pt x="344" y="950" on="1"/>
        <pt x="381" y="877" on="1"/>
      </contour>
      <contour>
        <pt x="150" y="733" on="0"/>
        <pt x="213" y="792" on="0"/>
        <pt x="261" y="792" on="1"/>
        <pt x="310" y="792" on="0"/>
        <pt x="373" y="733" on="0"/>
        <pt x="373" y="688" on="1"/>
        <pt x="373" y="644" on="0"/>
        <pt x="310" y="585" on="0"/>
        <pt x="261" y="585" on="1"/>
        <pt x="213" y="585" on="0"/>
        <pt x="150" y="644" on="0"/>
        <pt x="150" y="688" on="1"/>
      </contour>
      <contour>
        <pt x="315" y="715" on="0"/>
        <pt x="287" y="745" on="0"/>
        <pt x="261" y="745" on="1"/>
        <pt x="236" y="745" on="0"/>
        <pt x="208" y="715" on="0"/>
        <pt x="208" y="688" on="1"/>
        <pt x="208" y="662" on="0"/>
        <pt x="236" y="632" on="0"/>
        <pt x="261" y="632" on="1"/>
        <pt x="286" y="632" on="0"/>
        <pt x="315" y="662" on="0"/>
        <pt x="315" y="688" on="1"/>
      </contour>
      <contour>
        <pt x="447" y="88" on="0"/>
        <pt x="468" y="56" on="0"/>
        <pt x="491" y="48" on="1"/>
        <pt x="471" y="-12" on="1"/>
        <pt x="430" y="-7" on="0"/>
        <pt x="382" y="30" on="0"/>
        <pt x="372" y="68" on="1"/>
        <pt x="345" y="28" on="0"/>
        <pt x="264" y="-12" on="0"/>
        <pt x="214" y="-12" on="1"/>
        <pt x="137" y="-12" on="0"/>
        <pt x="47" y="76" on="0"/>
        <pt x="47" y="147" on="1"/>
        <pt x="47" y="230" on="0"/>
        <pt x="167" y="320" on="0"/>
        <pt x="276" y="320" on="1"/>
        <pt x="361" y="320" on="1"/>
        <pt x="361" y="361" on="1"/>
        <pt x="361" y="418" on="0"/>
        <pt x="306" y="468" on="0"/>
        <pt x="249" y="468" on="1"/>
        <pt x="192" y="468" on="0"/>
        <pt x="107" y="439" on="1"/>
        <pt x="85" y="502" on="1"/>
        <pt x="181" y="538" on="0"/>
        <pt x="264" y="538" on="1"/>
        <pt x="357" y="538" on="0"/>
        <pt x="447" y="449" on="0"/>
        <pt x="447" y="365" on="1"/>
        <pt x="447" y="122" on="1"/>
      </contour>
      <contour>
        <pt x="275" y="53" on="0"/>
        <pt x="337" y="94" on="0"/>
        <pt x="361" y="137" on="1"/>
        <pt x="361" y="262" on="1"/>
        <pt x="288" y="262" on="1"/>
        <pt x="139" y="262" on="0"/>
        <pt x="139" y="151" on="1"/>
        <pt x="139" y="103" on="0"/>
        <pt x="187" y="53" on="0"/>
        <pt x="233" y="53" on="1"/>
      </contour>
    </TTGlyph>
    <TTGlyph name="aringacute.sc" xMin="8" yMin="0" xMax="496" yMax="971">
      <contour>
        <pt x="159" y="820" on="1"/>
        <pt x="136" y="866" on="1"/>
        <pt x="334" y="971" on="1"/>
        <pt x="371" y="898" on="1"/>
      </contour>
      <contour>
        <pt x="140" y="753" on="0"/>
        <pt x="203" y="812" on="0"/>
        <pt x="251" y="812" on="1"/>
        <pt x="300" y="812" on="0"/>
        <pt x="363" y="753" on="0"/>
        <pt x="363" y="708" on="1"/>
        <pt x="363" y="664" on="0"/>
        <pt x="300" y="605" on="0"/>
        <pt x="251" y="605" on="1"/>
        <pt x="203" y="605" on="0"/>
        <pt x="140" y="664" on="0"/>
        <pt x="140" y="708" on="1"/>
      </contour>
      <contour>
        <pt x="305" y="735" on="0"/>
        <pt x="277" y="765" on="0"/>
        <pt x="251" y="765" on="1"/>
        <pt x="226" y="765" on="0"/>
        <pt x="198" y="735" on="0"/>
        <pt x="198" y="708" on="1"/>
        <pt x="198" y="682" on="0"/>
        <pt x="226" y="652" on="0"/>
        <pt x="251" y="652" on="1"/>
        <pt x="276" y="652" on="0"/>
        <pt x="305" y="682" on="0"/>
        <pt x="305" y="708" on="1"/>
      </contour>
      <contour>
        <pt x="362" y="139" on="1"/>
        <pt x="139" y="139" on="1"/>
        <pt x="96" y="0" on="1"/>
        <pt x="8" y="0" on="1"/>
        <pt x="199" y="564" on="1"/>
        <pt x="306" y="564" on="1"/>
        <pt x="496" y="0" on="1"/>
        <pt x="405" y="0" on="1"/>
      </contour>
      <contour>
        <pt x="340" y="207" on="1"/>
        <pt x="251" y="494" on="1"/>
        <pt x="161" y="207" on="1"/>
      </contour>
    </TTGlyph>
    <TTGlyph name="arrowboth" xMin="116" yMin="25" xMax="1164" yMax="633">
      <contour>
        <pt x="1164" y="329" on="1"/>
        <pt x="892" y="25" on="1"/>
        <pt x="829" y="78" on="1"/>
        <pt x="965" y="227" on="1"/>
        <pt x="1004" y="271" on="0"/>
        <pt x="1036" y="292" on="1"/>
        <pt x="244" y="292" on="1"/>
        <pt x="277" y="271" on="0"/>
        <pt x="315" y="227" on="1"/>
        <pt x="451" y="78" on="1"/>
        <pt x="388" y="25" on="1"/>
        <pt x="116" y="329" on="1"/>
        <pt x="388" y="633" on="1"/>
        <pt x="451" y="580" on="1"/>
        <pt x="315" y="431" on="1"/>
        <pt x="291" y="404" on="0"/>
        <pt x="264" y="379" on="0"/>
        <pt x="244" y="366" on="1"/>
        <pt x="1036" y="366" on="1"/>
        <pt x="1016" y="379" on="0"/>
        <pt x="989" y="404" on="0"/>
        <pt x="965" y="431" on="1"/>
        <pt x="829" y="580" on="1"/>
        <pt x="892" y="633" on="1"/>
      </contour>
    </TTGlyph>
    <TTGlyph name="arrowdown" xMin="140" yMin="-33" xMax="760" yMax="633">
      <contour>
        <pt x="492" y="88" on="1"/>
        <pt x="504" y="109" on="0"/>
        <pt x="532" y="141" on="0"/>
        <pt x="555" y="162" on="1"/>
        <pt x="709" y="302" on="1"/>
        <pt x="760" y="245" on="1"/>
        <pt x="450" y="-33" on="1"/>
        <pt x="140" y="245" on="1"/>
        <pt x="191" y="302" on="1"/>
        <pt x="345" y="162" on="1"/>
        <pt x="368" y="141" on="0"/>
        <pt x="396" y="109" on="0"/>
        <pt x="408" y="88" on="1"/>
        <pt x="408" y="633" on="1"/>
        <pt x="492" y="633" on="1"/>
      </contour>
    </TTGlyph>
    <TTGlyph name="arrowleft" xMin="116" yMin="25" xMax="775" yMax="633">
      <contour>
        <pt x="451" y="580" on="1"/>
        <pt x="315" y="431" on="1"/>
        <pt x="291" y="404" on="0"/>
        <pt x="264" y="379" on="0"/>
        <pt x="244" y="366" on="1"/>
        <pt x="775" y="366" on="1"/>
        <pt x="775" y="292" on="1"/>
        <pt x="244" y="292" on="1"/>
        <pt x="277" y="271" on="0"/>
        <pt x="315" y="227" on="1"/>
        <pt x="451" y="78" on="1"/>
        <pt x="388" y="25" on="1"/>
        <pt x="116" y="329" on="1"/>
        <pt x="388" y="633" on="1"/>
      </contour>
    </TTGlyph>
    <TTGlyph name="arrowright" xMin="125" yMin="25" xMax="784" yMax="633">
      <component glyphName="arrowleft" x="900" y="0" scalex="-1.0" scaley="1.0" flags="0x0"/>
    </TTGlyph>
    <TTGlyph name="arrowup" xMin="140" yMin="0" xMax="760" yMax="666">
      <component glyphName="arrowdown" x="900" y="633" scale="-1.0" flags="0x0"/>
    </TTGlyph>
    <TTGlyph name="arrowupdn" xMin="140" yMin="-187" xMax="760" yMax="865">
      <contour>
        <pt x="760" y="587" on="1"/>
        <pt x="709" y="530" on="1"/>
        <pt x="555" y="670" on="1"/>
        <pt x="532" y="691" on="0"/>
        <pt x="504" y="723" on="0"/>
        <pt x="492" y="744" on="1"/>
        <pt x="492" y="-66" on="1"/>
        <pt x="504" y="-45" on="0"/>
        <pt x="534" y="-11" on="0"/>
        <pt x="555" y="8" on="1"/>
        <pt x="709" y="149" on="1"/>
        <pt x="760" y="92" on="1"/>
        <pt x="450" y="-187" on="1"/>
        <pt x="140" y="92" on="1"/>
        <pt x="191" y="149" on="1"/>
        <pt x="345" y="8" on="1"/>
        <pt x="366" y="-11" on="0"/>
        <pt x="396" y="-45" on="0"/>
        <pt x="408" y="-66" on="1"/>
        <pt x="408" y="744" on="1"/>
        <pt x="396" y="723" on="0"/>
        <pt x="368" y="691" on="0"/>
        <pt x="345" y="670" on="1"/>
        <pt x="191" y="530" on="1"/>
        <pt x="140" y="587" on="1"/>
        <pt x="450" y="865" on="1"/>
      </contour>
    </TTGlyph>
    <TTGlyph name="asciicircum" xMin="43" yMin="527" xMax="495" yMax="839">
      <contour>
        <pt x="495" y="527" on="1"/>
        <pt x="403" y="527" on="1"/>
        <pt x="268" y="763" on="1"/>
        <pt x="134" y="527" on="1"/>
        <pt x="43" y="527" on="1"/>
        <pt x="231" y="839" on="1"/>
        <pt x="307" y="839" on="1"/>
      </contour>
    </TTGlyph>
    <TTGlyph name="asciitilde" xMin="38" yMin="252" xMax="447" yMax="382">
      <contour>
        <pt x="288" y="252" on="0"/>
        <pt x="243" y="272" on="0"/>
        <pt x="216" y="291" on="1"/>
        <pt x="198" y="303" on="0"/>
        <pt x="176" y="314" on="0"/>
        <pt x="165" y="314" on="1"/>
        <pt x="141" y="314" on="0"/>
        <pt x="106" y="285" on="0"/>
        <pt x="90" y="261" on="1"/>
        <pt x="38" y="288" on="1"/>
        <pt x="86" y="382" on="0"/>
        <pt x="170" y="382" on="1"/>
        <pt x="198" y="382" on="0"/>
        <pt x="242" y="363" on="0"/>
        <pt x="269" y="345" on="1"/>
        <pt x="287" y="333" on="0"/>
        <pt x="311" y="321" on="0"/>
        <pt x="323" y="321" on="1"/>
        <pt x="365" y="321" on="0"/>
        <pt x="396" y="369" on="1"/>
        <pt x="447" y="340" on="1"/>
        <pt x="401" y="252" on="0"/>
        <pt x="318" y="252" on="1"/>
      </contour>
    </TTGlyph>
    <TTGlyph name="asciitilde.osf" xMin="38" yMin="252" xMax="447" yMax="382">
      <component glyphName="asciitilde" x="0" y="0" flags="0x0"/>
    </TTGlyph>
    <TTGlyph name="asciitilde.tf" xMin="75" yMin="252" xMax="484" yMax="382">
      <component glyphName="asciitilde" x="37" y="0" flags="0x0"/>
    </TTGlyph>
    <TTGlyph name="asciitilde.tosf" xMin="75" yMin="252" xMax="484" yMax="382">
      <component glyphName="asciitilde" x="37" y="0" flags="0x0"/>
    </TTGlyph>
    <TTGlyph name="asterisk" xMin="22" yMin="364" xMax="416" yMax="739">
      <contour>
        <pt x="263" y="530" on="1"/>
        <pt x="366" y="413" on="1"/>
        <pt x="299" y="364" on="1"/>
        <pt x="219" y="497" on="1"/>
        <pt x="140" y="364" on="1"/>
        <pt x="72" y="412" on="1"/>
        <pt x="175" y="530" on="1"/>
        <pt x="22" y="565" on="1"/>
        <pt x="48" y="641" on="1"/>
        <pt x="190" y="581" on="1"/>
        <pt x="177" y="739" on="1"/>
        <pt x="261" y="739" on="1"/>
        <pt x="247" y="580" on="1"/>
        <pt x="390" y="642" on="1"/>
        <pt x="416" y="565" on="1"/>
      </contour>
    </TTGlyph>
    <TTGlyph name="at" xMin="73" yMin="-212" xMax="947" yMax="700">
      <contour>
        <pt x="659" y="700" on="0"/>
        <pt x="850" y="593" on="0"/>
        <pt x="947" y="414" on="0"/>
        <pt x="947" y="307" on="1"/>
        <pt x="947" y="175" on="0"/>
        <pt x="847" y="10" on="0"/>
        <pt x="753" y="10" on="1"/>
        <pt x="698" y="10" on="0"/>
        <pt x="636" y="71" on="0"/>
        <pt x="626" y="114" on="1"/>
        <pt x="606" y="69" on="0"/>
        <pt x="536" y="12" on="0"/>
        <pt x="482" y="12" on="1"/>
        <pt x="403" y="12" on="0"/>
        <pt x="309" y="131" on="0"/>
        <pt x="309" y="231" on="1"/>
        <pt x="309" y="357" on="0"/>
        <pt x="429" y="491" on="0"/>
        <pt x="526" y="491" on="1"/>
        <pt x="567" y="491" on="0"/>
        <pt x="641" y="472" on="0"/>
        <pt x="681" y="451" on="1"/>
        <pt x="681" y="192" on="1"/>
        <pt x="681" y="129" on="0"/>
        <pt x="716" y="76" on="0"/>
        <pt x="751" y="76" on="1"/>
        <pt x="860" y="76" on="0"/>
        <pt x="860" y="305" on="1"/>
        <pt x="860" y="402" on="0"/>
        <pt x="784" y="548" on="0"/>
        <pt x="633" y="629" on="0"/>
        <pt x="526" y="629" on="1"/>
        <pt x="415" y="629" on="0"/>
        <pt x="249" y="528" on="0"/>
        <pt x="160" y="351" on="0"/>
        <pt x="160" y="240" on="1"/>
        <pt x="160" y="128" on="0"/>
        <pt x="247" y="-44" on="0"/>
        <pt x="412" y="-140" on="0"/>
        <pt x="526" y="-140" on="1"/>
        <pt x="625" y="-140" on="0"/>
        <pt x="717" y="-106" on="1"/>
        <pt x="741" y="-173" on="1"/>
        <pt x="686" y="-193" on="0"/>
        <pt x="588" y="-212" on="0"/>
        <pt x="525" y="-212" on="1"/>
        <pt x="392" y="-212" on="0"/>
        <pt x="187" y="-101" on="0"/>
        <pt x="73" y="104" on="0"/>
        <pt x="73" y="240" on="1"/>
        <pt x="73" y="369" on="0"/>
        <pt x="187" y="579" on="0"/>
        <pt x="393" y="700" on="0"/>
        <pt x="526" y="700" on="1"/>
      </contour>
      <contour>
        <pt x="537" y="75" on="0"/>
        <pt x="590" y="129" on="0"/>
        <pt x="603" y="164" on="1"/>
        <pt x="603" y="412" on="1"/>
        <pt x="569" y="428" on="0"/>
        <pt x="529" y="428" on="1"/>
        <pt x="462" y="428" on="0"/>
        <pt x="394" y="328" on="0"/>
        <pt x="394" y="231" on="1"/>
        <pt x="394" y="155" on="0"/>
        <pt x="444" y="75" on="0"/>
        <pt x="492" y="75" on="1"/>
      </contour>
    </TTGlyph>
    <TTGlyph name="atilde" xMin="47" yMin="-12" xMax="491" yMax="771">
      <component glyphName="a" x="0" y="0" flags="0x0"/>
      <component glyphName="tildecomb" x="454" y="0" flags="0x0"/>
    </TTGlyph>
    <TTGlyph name="atilde.sc" xMin="8" yMin="0" xMax="496" yMax="801">
      <component glyphName="a.sc" x="0" y="0" flags="0x0"/>
      <component glyphName="tildecomb.sc" x="58" y="0" flags="0x0"/>
    </TTGlyph>
    <TTGlyph name="b" xMin="97" yMin="-12" xMax="528" yMax="749">
      <contour>
        <pt x="423" y="538" on="0"/>
        <pt x="528" y="394" on="0"/>
        <pt x="528" y="264" on="1"/>
        <pt x="528" y="182" on="0"/>
        <pt x="479" y="57" on="0"/>
        <pt x="386" y="-12" on="0"/>
        <pt x="323" y="-12" on="1"/>
        <pt x="237" y="-12" on="0"/>
        <pt x="181" y="59" on="1"/>
        <pt x="173" y="0" on="1"/>
        <pt x="97" y="0" on="1"/>
        <pt x="97" y="739" on="1"/>
        <pt x="183" y="749" on="1"/>
        <pt x="183" y="459" on="1"/>
        <pt x="241" y="538" on="0"/>
        <pt x="333" y="538" on="1"/>
      </contour>
      <contour>
        <pt x="366" y="57" on="0"/>
        <pt x="436" y="159" on="0"/>
        <pt x="436" y="264" on="1"/>
        <pt x="436" y="373" on="0"/>
        <pt x="371" y="469" on="0"/>
        <pt x="310" y="469" on="1"/>
        <pt x="237" y="469" on="0"/>
        <pt x="183" y="386" on="1"/>
        <pt x="183" y="130" on="1"/>
        <pt x="205" y="96" on="0"/>
        <pt x="267" y="57" on="0"/>
        <pt x="303" y="57" on="1"/>
      </contour>
    </TTGlyph>
    <TTGlyph name="b.sc" xMin="102" yMin="0" xMax="507" yMax="564">
      <contour>
        <pt x="507" y="274" on="0"/>
        <pt x="507" y="161" on="1"/>
        <pt x="507" y="0" on="0"/>
        <pt x="271" y="0" on="1"/>
        <pt x="102" y="0" on="1"/>
        <pt x="102" y="564" on="1"/>
        <pt x="246" y="564" on="1"/>
        <pt x="360" y="564" on="0"/>
        <pt x="481" y="493" on="0"/>
        <pt x="481" y="418" on="1"/>
        <pt x="481" y="366" on="0"/>
        <pt x="421" y="312" on="0"/>
        <pt x="371" y="299" on="1"/>
      </contour>
      <contour>
        <pt x="188" y="498" on="1"/>
        <pt x="188" y="327" on="1"/>
        <pt x="278" y="327" on="1"/>
        <pt x="329" y="327" on="0"/>
        <pt x="393" y="373" on="0"/>
        <pt x="393" y="415" on="1"/>
        <pt x="393" y="461" on="0"/>
        <pt x="324" y="498" on="0"/>
        <pt x="254" y="498" on="1"/>
      </contour>
      <contour>
        <pt x="341" y="67" on="0"/>
        <pt x="416" y="109" on="0"/>
        <pt x="416" y="163" on="1"/>
        <pt x="416" y="216" on="0"/>
        <pt x="344" y="264" on="0"/>
        <pt x="285" y="264" on="1"/>
        <pt x="188" y="264" on="1"/>
        <pt x="188" y="67" on="1"/>
        <pt x="271" y="67" on="1"/>
      </contour>
    </TTGlyph>
    <TTGlyph name="backslash" xMin="107" yMin="-103" xMax="412" yMax="806">
      <contour>
        <pt x="412" y="-85" on="1"/>
        <pt x="339" y="-103" on="1"/>
        <pt x="107" y="789" on="1"/>
        <pt x="180" y="806" on="1"/>
      </contour>
    </TTGlyph>
    <TTGlyph name="bar" xMin="163" yMin="-102" xMax="241" yMax="807">
      <contour>
        <pt x="241" y="-102" on="1"/>
        <pt x="163" y="-102" on="1"/>
        <pt x="163" y="807" on="1"/>
        <pt x="241" y="807" on="1"/>
      </contour>
    </TTGlyph>
    <TTGlyph name="beta" xMin="97" yMin="-213" xMax="554" yMax="749">
      <contour>
        <pt x="437" y="395" on="0"/>
        <pt x="554" y="304" on="0"/>
        <pt x="554" y="203" on="1"/>
        <pt x="554" y="139" on="0"/>
        <pt x="493" y="41" on="0"/>
        <pt x="393" y="-12" on="0"/>
        <pt x="334" y="-12" on="1"/>
        <pt x="251" y="-12" on="0"/>
        <pt x="183" y="41" on="1"/>
        <pt x="183" y="-200" on="1"/>
        <pt x="97" y="-213" on="1"/>
        <pt x="97" y="541" on="1"/>
        <pt x="97" y="639" on="0"/>
        <pt x="206" y="749" on="0"/>
        <pt x="301" y="749" on="1"/>
        <pt x="357" y="749" on="0"/>
        <pt x="448" y="705" on="0"/>
        <pt x="500" y="622" on="0"/>
        <pt x="500" y="566" on="1"/>
        <pt x="500" y="496" on="0"/>
        <pt x="417" y="413" on="0"/>
        <pt x="350" y="404" on="1"/>
      </contour>
      <contour>
        <pt x="385" y="58" on="0"/>
        <pt x="466" y="134" on="0"/>
        <pt x="466" y="203" on="1"/>
        <pt x="466" y="283" on="0"/>
        <pt x="373" y="365" on="0"/>
        <pt x="287" y="365" on="1"/>
        <pt x="236" y="365" on="1"/>
        <pt x="245" y="431" on="1"/>
        <pt x="294" y="431" on="1"/>
        <pt x="348" y="431" on="0"/>
        <pt x="419" y="496" on="0"/>
        <pt x="419" y="563" on="1"/>
        <pt x="419" y="621" on="0"/>
        <pt x="355" y="681" on="0"/>
        <pt x="302" y="681" on="1"/>
        <pt x="183" y="681" on="0"/>
        <pt x="183" y="541" on="1"/>
        <pt x="183" y="109" on="1"/>
        <pt x="211" y="82" on="0"/>
        <pt x="278" y="58" on="0"/>
        <pt x="323" y="58" on="1"/>
      </contour>
    </TTGlyph>
    <TTGlyph name="beta.sc" xMin="102" yMin="0" xMax="507" yMax="564">
      <component glyphName="b.sc" x="0" y="0" flags="0x0"/>
    </TTGlyph>
    <TTGlyph name="braceleft" xMin="28" yMin="-135" xMax="274" yMax="835">
      <contour>
        <pt x="274" y="768" on="1"/>
        <pt x="224" y="768" on="0"/>
        <pt x="181" y="736" on="0"/>
        <pt x="181" y="698" on="1"/>
        <pt x="181" y="457" on="1"/>
        <pt x="181" y="407" on="0"/>
        <pt x="145" y="361" on="0"/>
        <pt x="106" y="349" on="1"/>
        <pt x="145" y="336" on="0"/>
        <pt x="181" y="293" on="0"/>
        <pt x="181" y="243" on="1"/>
        <pt x="181" y="1" on="1"/>
        <pt x="181" y="-36" on="0"/>
        <pt x="224" y="-68" on="0"/>
        <pt x="274" y="-68" on="1"/>
        <pt x="274" y="-135" on="1"/>
        <pt x="179" y="-135" on="0"/>
        <pt x="99" y="-67" on="0"/>
        <pt x="99" y="10" on="1"/>
        <pt x="99" y="238" on="1"/>
        <pt x="99" y="279" on="0"/>
        <pt x="68" y="313" on="0"/>
        <pt x="28" y="313" on="1"/>
        <pt x="28" y="385" on="1"/>
        <pt x="67" y="385" on="0"/>
        <pt x="99" y="420" on="0"/>
        <pt x="99" y="462" on="1"/>
        <pt x="99" y="690" on="1"/>
        <pt x="99" y="767" on="0"/>
        <pt x="179" y="835" on="0"/>
        <pt x="274" y="835" on="1"/>
      </contour>
    </TTGlyph>
    <TTGlyph name="braceleft.case" xMin="28" yMin="-145" xMax="274" yMax="825">
      <component glyphName="braceleft" x="0" y="-10" flags="0x0"/>
    </TTGlyph>
    <TTGlyph name="braceright" xMin="48" yMin="-135" xMax="294" yMax="835">
      <contour>
        <pt x="144" y="835" on="0"/>
        <pt x="223" y="767" on="0"/>
        <pt x="223" y="690" on="1"/>
        <pt x="223" y="462" on="1"/>
        <pt x="223" y="420" on="0"/>
        <pt x="255" y="385" on="0"/>
        <pt x="294" y="385" on="1"/>
        <pt x="294" y="313" on="1"/>
        <pt x="255" y="313" on="0"/>
        <pt x="223" y="279" on="0"/>
        <pt x="223" y="238" on="1"/>
        <pt x="223" y="10" on="1"/>
        <pt x="223" y="-67" on="0"/>
        <pt x="144" y="-135" on="0"/>
        <pt x="48" y="-135" on="1"/>
        <pt x="48" y="-68" on="1"/>
        <pt x="98" y="-68" on="0"/>
        <pt x="142" y="-36" on="0"/>
        <pt x="142" y="1" on="1"/>
        <pt x="142" y="243" on="1"/>
        <pt x="142" y="293" on="0"/>
        <pt x="178" y="336" on="0"/>
        <pt x="217" y="349" on="1"/>
        <pt x="178" y="361" on="0"/>
        <pt x="142" y="407" on="0"/>
        <pt x="142" y="457" on="1"/>
        <pt x="142" y="698" on="1"/>
        <pt x="142" y="736" on="0"/>
        <pt x="99" y="768" on="0"/>
        <pt x="48" y="768" on="1"/>
        <pt x="48" y="835" on="1"/>
      </contour>
    </TTGlyph>
    <TTGlyph name="braceright.case" xMin="48" yMin="-145" xMax="294" yMax="825">
      <component glyphName="braceright" x="0" y="-10" flags="0x0"/>
    </TTGlyph>
    <TTGlyph name="bracketleft" xMin="68" yMin="-115" xMax="268" yMax="814">
      <contour>
        <pt x="268" y="743" on="1"/>
        <pt x="150" y="743" on="1"/>
        <pt x="150" y="-44" on="1"/>
        <pt x="268" y="-44" on="1"/>
        <pt x="268" y="-115" on="1"/>
        <pt x="68" y="-115" on="1"/>
        <pt x="68" y="814" on="1"/>
        <pt x="268" y="814" on="1"/>
      </contour>
    </TTGlyph>
    <TTGlyph name="bracketleft.case" xMin="68" yMin="-125" xMax="268" yMax="804">
      <component glyphName="bracketleft" x="0" y="-10" flags="0x0"/>
    </TTGlyph>
    <TTGlyph name="bracketright" xMin="53" yMin="-115" xMax="253" yMax="814">
      <contour>
        <pt x="253" y="-115" on="1"/>
        <pt x="53" y="-115" on="1"/>
        <pt x="53" y="-44" on="1"/>
        <pt x="172" y="-44" on="1"/>
        <pt x="172" y="743" on="1"/>
        <pt x="53" y="743" on="1"/>
        <pt x="53" y="814" on="1"/>
        <pt x="253" y="814" on="1"/>
      </contour>
    </TTGlyph>
    <TTGlyph name="bracketright.case" xMin="53" yMin="-125" xMax="253" yMax="804">
      <component glyphName="bracketright" x="0" y="-10" flags="0x0"/>
    </TTGlyph>
    <TTGlyph name="breve" xMin="30" yMin="645" xMax="326" yMax="786">
      <contour>
        <pt x="116" y="645" on="0"/>
        <pt x="36" y="714" on="0"/>
        <pt x="30" y="774" on="1"/>
        <pt x="87" y="786" on="1"/>
        <pt x="108" y="711" on="0"/>
        <pt x="176" y="711" on="1"/>
        <pt x="211" y="711" on="0"/>
        <pt x="258" y="749" on="0"/>
        <pt x="268" y="786" on="1"/>
        <pt x="326" y="774" on="1"/>
        <pt x="319" y="714" on="0"/>
        <pt x="236" y="645" on="0"/>
        <pt x="176" y="645" on="1"/>
      </contour>
    </TTGlyph>
    <TTGlyph name="breve.case" xMin="30" yMin="759" xMax="326" yMax="890">
      <contour>
        <pt x="117" y="759" on="0"/>
        <pt x="36" y="825" on="0"/>
        <pt x="30" y="878" on="1"/>
        <pt x="87" y="890" on="1"/>
        <pt x="110" y="825" on="0"/>
        <pt x="176" y="825" on="1"/>
        <pt x="210" y="825" on="0"/>
        <pt x="258" y="860" on="0"/>
        <pt x="268" y="890" on="1"/>
        <pt x="326" y="878" on="1"/>
        <pt x="319" y="825" on="0"/>
        <pt x="236" y="759" on="0"/>
        <pt x="176" y="759" on="1"/>
      </contour>
    </TTGlyph>
    <TTGlyph name="breve.sc" xMin="30" yMin="675" xMax="326" yMax="816">
      <component glyphName="uni0306" x="356" y="30" flags="0x0"/>
    </TTGlyph>
    <TTGlyph name="brevecy" xMin="30" yMin="645" xMax="326" yMax="770">
      <contour>
        <pt x="116" y="645" on="0"/>
        <pt x="36" y="705" on="0"/>
        <pt x="30" y="757" on="1"/>
        <pt x="87" y="770" on="1"/>
        <pt x="97" y="739" on="0"/>
        <pt x="140" y="711" on="0"/>
        <pt x="176" y="711" on="1"/>
        <pt x="250" y="711" on="0"/>
        <pt x="268" y="770" on="1"/>
        <pt x="326" y="757" on="1"/>
        <pt x="319" y="705" on="0"/>
        <pt x="237" y="645" on="0"/>
        <pt x="176" y="645" on="1"/>
      </contour>
    </TTGlyph>
    <TTGlyph name="brevecy.case" xMin="30" yMin="771" xMax="326" yMax="896">
      <contour>
        <pt x="116" y="771" on="0"/>
        <pt x="36" y="831" on="0"/>
        <pt x="30" y="883" on="1"/>
        <pt x="87" y="896" on="1"/>
        <pt x="97" y="865" on="0"/>
        <pt x="140" y="837" on="0"/>
        <pt x="176" y="837" on="1"/>
        <pt x="250" y="837" on="0"/>
        <pt x="268" y="896" on="1"/>
        <pt x="326" y="883" on="1"/>
        <pt x="319" y="831" on="0"/>
        <pt x="237" y="771" on="0"/>
        <pt x="176" y="771" on="1"/>
      </contour>
    </TTGlyph>
    <TTGlyph name="brevecy.sc" xMin="30" yMin="675" xMax="326" yMax="800">
      <contour>
        <pt x="116" y="675" on="0"/>
        <pt x="36" y="735" on="0"/>
        <pt x="30" y="787" on="1"/>
        <pt x="87" y="800" on="1"/>
        <pt x="97" y="769" on="0"/>
        <pt x="140" y="741" on="0"/>
        <pt x="176" y="741" on="1"/>
        <pt x="250" y="741" on="0"/>
        <pt x="268" y="800" on="1"/>
        <pt x="326" y="787" on="1"/>
        <pt x="319" y="735" on="0"/>
        <pt x="237" y="675" on="0"/>
        <pt x="176" y="675" on="1"/>
      </contour>
    </TTGlyph>
    <TTGlyph name="brokenbar" xMin="163" yMin="-49" xMax="241" yMax="754">
      <contour>
        <pt x="241" y="391" on="1"/>
        <pt x="163" y="391" on="1"/>
        <pt x="163" y="754" on="1"/>
        <pt x="241" y="754" on="1"/>
      </contour>
      <contour>
        <pt x="241" y="-49" on="1"/>
        <pt x="163" y="-49" on="1"/>
        <pt x="163" y="314" on="1"/>
        <pt x="241" y="314" on="1"/>
      </contour>
    </TTGlyph>
    <TTGlyph name="bullet" xMin="53" yMin="237" xMax="264" yMax="448">
      <contour>
        <pt x="204" y="448" on="0"/>
        <pt x="264" y="387" on="0"/>
        <pt x="264" y="342" on="1"/>
        <pt x="264" y="297" on="0"/>
        <pt x="204" y="237" on="0"/>
        <pt x="159" y="237" on="1"/>
        <pt x="113" y="237" on="0"/>
        <pt x="53" y="298" on="0"/>
        <pt x="53" y="343" on="1"/>
        <pt x="53" y="388" on="0"/>
        <pt x="113" y="448" on="0"/>
        <pt x="159" y="448" on="1"/>
      </contour>
    </TTGlyph>
    <TTGlyph name="c" xMin="58" yMin="-12" xMax="446" yMax="538">
      <contour>
        <pt x="334" y="538" on="0"/>
        <pt x="410" y="512" on="0"/>
        <pt x="445" y="482" on="1"/>
        <pt x="404" y="427" on="1"/>
        <pt x="376" y="448" on="0"/>
        <pt x="323" y="467" on="0"/>
        <pt x="290" y="467" on="1"/>
        <pt x="225" y="467" on="0"/>
        <pt x="151" y="363" on="0"/>
        <pt x="151" y="261" on="1"/>
        <pt x="151" y="159" on="0"/>
        <pt x="224" y="61" on="0"/>
        <pt x="290" y="61" on="1"/>
        <pt x="322" y="61" on="0"/>
        <pt x="374" y="81" on="0"/>
        <pt x="406" y="102" on="1"/>
        <pt x="446" y="46" on="1"/>
        <pt x="376" y="-12" on="0"/>
        <pt x="287" y="-12" on="1"/>
        <pt x="181" y="-12" on="0"/>
        <pt x="58" y="132" on="0"/>
        <pt x="58" y="259" on="1"/>
        <pt x="58" y="343" on="0"/>
        <pt x="113" y="469" on="0"/>
        <pt x="217" y="538" on="0"/>
        <pt x="287" y="538" on="1"/>
      </contour>
    </TTGlyph>
    <TTGlyph name="c.sc" xMin="57" yMin="-11" xMax="480" yMax="573">
      <contour>
        <pt x="360" y="573" on="0"/>
        <pt x="435" y="545" on="0"/>
        <pt x="472" y="516" on="1"/>
        <pt x="427" y="463" on="1"/>
        <pt x="399" y="484" on="0"/>
        <pt x="344" y="505" on="0"/>
        <pt x="312" y="505" on="1"/>
        <pt x="239" y="505" on="0"/>
        <pt x="148" y="398" on="0"/>
        <pt x="148" y="284" on="1"/>
        <pt x="148" y="170" on="0"/>
        <pt x="238" y="60" on="0"/>
        <pt x="312" y="60" on="1"/>
        <pt x="349" y="60" on="0"/>
        <pt x="404" y="85" on="0"/>
        <pt x="436" y="108" on="1"/>
        <pt x="480" y="54" on="1"/>
        <pt x="451" y="25" on="0"/>
        <pt x="365" y="-11" on="0"/>
        <pt x="308" y="-11" on="1"/>
        <pt x="234" y="-11" on="0"/>
        <pt x="121" y="57" on="0"/>
        <pt x="57" y="190" on="0"/>
        <pt x="57" y="284" on="1"/>
        <pt x="57" y="375" on="0"/>
        <pt x="123" y="505" on="0"/>
        <pt x="236" y="573" on="0"/>
        <pt x="306" y="573" on="1"/>
      </contour>
    </TTGlyph>
    <TTGlyph name="cacute" xMin="58" yMin="-12" xMax="446" yMax="798">
      <component glyphName="c" x="0" y="0" flags="0x0"/>
      <component glyphName="acutecomb" x="436" y="0" flags="0x0"/>
    </TTGlyph>
    <TTGlyph name="cacute.loclPLK" xMin="58" yMin="-12" xMax="446" yMax="774">
      <component glyphName="c" x="0" y="0" flags="0x0"/>
      <component glyphName="acute.loclPLK" x="143" y="0" flags="0x0"/>
    </TTGlyph>
    <TTGlyph name="cacute.sc" xMin="57" yMin="-11" xMax="480" yMax="828">
      <component glyphName="c.sc" x="0" y="0" flags="0x0"/>
      <component glyphName="acutecomb.sc" x="164" y="0" flags="0x0"/>
    </TTGlyph>
    <TTGlyph name="cacute.sc.loclPLK" xMin="57" yMin="-11" xMax="480" yMax="816">
      <component glyphName="c.sc" x="0" y="0" flags="0x0"/>
      <component glyphName="acute.sc.loclPLK" x="166" y="0" flags="0x0"/>
    </TTGlyph>
    <TTGlyph name="caron" xMin="30" yMin="628" xMax="356" yMax="782">
      <contour>
        <pt x="356" y="740" on="1"/>
        <pt x="222" y="628" on="1"/>
        <pt x="165" y="628" on="1"/>
        <pt x="30" y="740" on="1"/>
        <pt x="68" y="782" on="1"/>
        <pt x="193" y="698" on="1"/>
        <pt x="319" y="782" on="1"/>
      </contour>
    </TTGlyph>
    <TTGlyph name="caron.alt" xMin="65" yMin="508" xMax="163" yMax="698">
      <contour>
        <pt x="163" y="688" on="1"/>
        <pt x="115" y="508" on="1"/>
        <pt x="65" y="515" on="1"/>
        <pt x="85" y="698" on="1"/>
      </contour>
    </TTGlyph>
    <TTGlyph name="caron.case" xMin="30" yMin="754" xMax="356" yMax="905">
      <contour>
        <pt x="356" y="863" on="1"/>
        <pt x="222" y="754" on="1"/>
        <pt x="165" y="754" on="1"/>
        <pt x="30" y="863" on="1"/>
        <pt x="68" y="905" on="1"/>
        <pt x="193" y="824" on="1"/>
        <pt x="319" y="905" on="1"/>
      </contour>
    </TTGlyph>
    <TTGlyph name="caron.sc" xMin="30" yMin="658" xMax="356" yMax="812">
      <component glyphName="uni030C" x="386" y="30" flags="0x0"/>
    </TTGlyph>
    <TTGlyph name="ccaron" xMin="58" yMin="-12" xMax="452" yMax="782">
      <component glyphName="c" x="0" y="0" flags="0x0"/>
      <component glyphName="uni030C" x="482" y="0" flags="0x0"/>
    </TTGlyph>
    <TTGlyph name="ccaron.sc" xMin="57" yMin="-11" xMax="480" yMax="812">
      <component glyphName="c.sc" x="0" y="0" flags="0x0"/>
      <component glyphName="uni030C.sc" x="118" y="0" flags="0x0"/>
    </TTGlyph>
    <TTGlyph name="ccedilla" xMin="58" yMin="-239" xMax="446" yMax="538">
      <contour>
        <pt x="353" y="-61" on="0"/>
        <pt x="399" y="-108" on="0"/>
        <pt x="399" y="-141" on="1"/>
        <pt x="399" y="-187" on="0"/>
        <pt x="330" y="-239" on="0"/>
        <pt x="278" y="-239" on="1"/>
        <pt x="221" y="-239" on="0"/>
        <pt x="189" y="-215" on="1"/>
        <pt x="213" y="-166" on="1"/>
        <pt x="242" y="-182" on="0"/>
        <pt x="275" y="-182" on="1"/>
        <pt x="298" y="-182" on="0"/>
        <pt x="326" y="-162" on="0"/>
        <pt x="326" y="-141" on="1"/>
        <pt x="326" y="-120" on="0"/>
        <pt x="284" y="-99" on="0"/>
        <pt x="237" y="-98" on="1"/>
        <pt x="248" y="-9" on="1"/>
        <pt x="159" y="4" on="0"/>
        <pt x="58" y="144" on="0"/>
        <pt x="58" y="259" on="1"/>
        <pt x="58" y="343" on="0"/>
        <pt x="113" y="469" on="0"/>
        <pt x="217" y="538" on="0"/>
        <pt x="287" y="538" on="1"/>
        <pt x="334" y="538" on="0"/>
        <pt x="410" y="512" on="0"/>
        <pt x="445" y="482" on="1"/>
        <pt x="404" y="427" on="1"/>
        <pt x="376" y="448" on="0"/>
        <pt x="323" y="467" on="0"/>
        <pt x="290" y="467" on="1"/>
        <pt x="225" y="467" on="0"/>
        <pt x="151" y="363" on="0"/>
        <pt x="151" y="261" on="1"/>
        <pt x="151" y="159" on="0"/>
        <pt x="224" y="61" on="0"/>
        <pt x="290" y="61" on="1"/>
        <pt x="322" y="61" on="0"/>
        <pt x="374" y="81" on="0"/>
        <pt x="406" y="102" on="1"/>
        <pt x="446" y="46" on="1"/>
        <pt x="384" y="-5" on="0"/>
        <pt x="306" y="-11" on="1"/>
        <pt x="306" y="-57" on="1"/>
      </contour>
    </TTGlyph>
    <TTGlyph name="ccedilla.sc" xMin="57" yMin="-239" xMax="480" yMax="573">
      <contour>
        <pt x="454" y="28" on="0"/>
        <pt x="379" y="-6" on="0"/>
        <pt x="330" y="-10" on="1"/>
        <pt x="330" y="-57" on="1"/>
        <pt x="377" y="-61" on="0"/>
        <pt x="423" y="-108" on="0"/>
        <pt x="423" y="-141" on="1"/>
        <pt x="423" y="-187" on="0"/>
        <pt x="354" y="-239" on="0"/>
        <pt x="302" y="-239" on="1"/>
        <pt x="245" y="-239" on="0"/>
        <pt x="213" y="-215" on="1"/>
        <pt x="237" y="-166" on="1"/>
        <pt x="266" y="-182" on="0"/>
        <pt x="299" y="-182" on="1"/>
        <pt x="322" y="-182" on="0"/>
        <pt x="350" y="-162" on="0"/>
        <pt x="350" y="-141" on="1"/>
        <pt x="350" y="-120" on="0"/>
        <pt x="308" y="-99" on="0"/>
        <pt x="261" y="-98" on="1"/>
        <pt x="272" y="-9" on="1"/>
        <pt x="174" y="3" on="0"/>
        <pt x="57" y="155" on="0"/>
        <pt x="57" y="284" on="1"/>
        <pt x="57" y="375" on="0"/>
        <pt x="123" y="505" on="0"/>
        <pt x="236" y="573" on="0"/>
        <pt x="306" y="573" on="1"/>
        <pt x="360" y="573" on="0"/>
        <pt x="435" y="545" on="0"/>
        <pt x="472" y="516" on="1"/>
        <pt x="427" y="463" on="1"/>
        <pt x="399" y="484" on="0"/>
        <pt x="344" y="505" on="0"/>
        <pt x="312" y="505" on="1"/>
        <pt x="239" y="505" on="0"/>
        <pt x="148" y="398" on="0"/>
        <pt x="148" y="284" on="1"/>
        <pt x="148" y="170" on="0"/>
        <pt x="238" y="60" on="0"/>
        <pt x="312" y="60" on="1"/>
        <pt x="349" y="60" on="0"/>
        <pt x="404" y="85" on="0"/>
        <pt x="436" y="108" on="1"/>
        <pt x="480" y="54" on="1"/>
      </contour>
    </TTGlyph>
    <TTGlyph name="ccircumflex" xMin="58" yMin="-12" xMax="452" yMax="790">
      <component glyphName="c" x="0" y="0" flags="0x0"/>
      <component glyphName="uni0302" x="482" y="0" flags="0x0"/>
    </TTGlyph>
    <TTGlyph name="ccircumflex.sc" xMin="57" yMin="-11" xMax="480" yMax="820">
      <component glyphName="c.sc" x="0" y="0" flags="0x0"/>
      <component glyphName="uni0302.sc" x="118" y="0" flags="0x0"/>
    </TTGlyph>
    <TTGlyph name="cdotaccent" xMin="58" yMin="-12" xMax="446" yMax="775">
      <component glyphName="c" x="0" y="0" flags="0x0"/>
      <component glyphName="uni0307" x="379" y="0" flags="0x0"/>
    </TTGlyph>
    <TTGlyph name="cdotaccent.sc" xMin="57" yMin="-11" xMax="480" yMax="805">
      <component glyphName="c.sc" x="0" y="0" flags="0x0"/>
      <component glyphName="uni0307.sc" x="220" y="0" flags="0x0"/>
    </TTGlyph>
    <TTGlyph name="cedilla" xMin="30" yMin="-239" xMax="240" yMax="16">
      <contour>
        <pt x="147" y="-57" on="1"/>
        <pt x="194" y="-61" on="0"/>
        <pt x="240" y="-108" on="0"/>
        <pt x="240" y="-141" on="1"/>
        <pt x="240" y="-187" on="0"/>
        <pt x="171" y="-239" on="0"/>
        <pt x="119" y="-239" on="1"/>
        <pt x="62" y="-239" on="0"/>
        <pt x="30" y="-215" on="1"/>
        <pt x="54" y="-166" on="1"/>
        <pt x="83" y="-182" on="0"/>
        <pt x="116" y="-182" on="1"/>
        <pt x="139" y="-182" on="0"/>
        <pt x="167" y="-162" on="0"/>
        <pt x="167" y="-141" on="1"/>
        <pt x="167" y="-120" on="0"/>
        <pt x="125" y="-99" on="0"/>
        <pt x="78" y="-98" on="1"/>
        <pt x="92" y="16" on="1"/>
        <pt x="147" y="16" on="1"/>
      </contour>
    </TTGlyph>
    <TTGlyph name="cedilla.case" xMin="30" yMin="-239" xMax="240" yMax="16">
      <component glyphName="uni0327" x="270" y="0" flags="0x0"/>
    </TTGlyph>
    <TTGlyph name="cedilla.sc" xMin="30" yMin="-239" xMax="240" yMax="16">
      <component glyphName="uni0327" x="270" y="0" flags="0x0"/>
    </TTGlyph>
    <TTGlyph name="cent" xMin="58" yMin="-153" xMax="446" yMax="683">
      <contour>
        <pt x="390" y="1" on="0"/>
        <pt x="326" y="-9" on="1"/>
        <pt x="326" y="-153" on="1"/>
        <pt x="251" y="-153" on="1"/>
        <pt x="251" y="-9" on="1"/>
        <pt x="161" y="2" on="0"/>
        <pt x="58" y="143" on="0"/>
        <pt x="58" y="259" on="1"/>
        <pt x="58" y="375" on="0"/>
        <pt x="161" y="523" on="0"/>
        <pt x="252" y="536" on="1"/>
        <pt x="252" y="683" on="1"/>
        <pt x="326" y="683" on="1"/>
        <pt x="326" y="536" on="1"/>
        <pt x="391" y="527" on="0"/>
        <pt x="445" y="482" on="1"/>
        <pt x="404" y="427" on="1"/>
        <pt x="376" y="448" on="0"/>
        <pt x="323" y="467" on="0"/>
        <pt x="290" y="467" on="1"/>
        <pt x="225" y="467" on="0"/>
        <pt x="151" y="363" on="0"/>
        <pt x="151" y="261" on="1"/>
        <pt x="151" y="159" on="0"/>
        <pt x="224" y="61" on="0"/>
        <pt x="290" y="61" on="1"/>
        <pt x="322" y="61" on="0"/>
        <pt x="374" y="81" on="0"/>
        <pt x="406" y="102" on="1"/>
        <pt x="446" y="46" on="1"/>
      </contour>
    </TTGlyph>
    <TTGlyph name="cent.osf" xMin="58" yMin="-153" xMax="446" yMax="683">
      <component glyphName="cent" x="0" y="0" flags="0x0"/>
    </TTGlyph>
    <TTGlyph name="cent.tf" xMin="87" yMin="-153" xMax="474" yMax="683">
      <contour>
        <pt x="474" y="46" on="1"/>
        <pt x="420" y="1" on="0"/>
        <pt x="354" y="-9" on="1"/>
        <pt x="354" y="-153" on="1"/>
        <pt x="279" y="-153" on="1"/>
        <pt x="279" y="-10" on="1"/>
        <pt x="189" y="2" on="0"/>
        <pt x="87" y="143" on="0"/>
        <pt x="87" y="259" on="1"/>
        <pt x="87" y="375" on="0"/>
        <pt x="190" y="523" on="0"/>
        <pt x="280" y="536" on="1"/>
        <pt x="280" y="683" on="1"/>
        <pt x="354" y="683" on="1"/>
        <pt x="354" y="536" on="1"/>
        <pt x="419" y="527" on="0"/>
        <pt x="474" y="482" on="1"/>
        <pt x="432" y="427" on="1"/>
        <pt x="405" y="448" on="0"/>
        <pt x="351" y="467" on="0"/>
        <pt x="319" y="467" on="1"/>
        <pt x="253" y="467" on="0"/>
        <pt x="179" y="363" on="0"/>
        <pt x="179" y="261" on="1"/>
        <pt x="179" y="159" on="0"/>
        <pt x="252" y="61" on="0"/>
        <pt x="319" y="61" on="1"/>
        <pt x="350" y="61" on="0"/>
        <pt x="402" y="81" on="0"/>
        <pt x="435" y="102" on="1"/>
      </contour>
    </TTGlyph>
    <TTGlyph name="cent.tosf" xMin="87" yMin="-153" xMax="474" yMax="683">
      <component glyphName="cent.tf" x="0" y="0" flags="0x0"/>
    </TTGlyph>
    <TTGlyph name="chi" xMin="-4" yMin="-210" xMax="454" yMax="537">
      <contour>
        <pt x="454" y="-198" on="1"/>
        <pt x="367" y="-210" on="1"/>
        <pt x="230" y="112" on="1"/>
        <pt x="85" y="-209" on="1"/>
        <pt x="0" y="-198" on="1"/>
        <pt x="185" y="187" on="1"/>
        <pt x="125" y="320" on="0"/>
        <pt x="46" y="452" on="0"/>
        <pt x="-4" y="506" on="1"/>
        <pt x="80" y="537" on="1"/>
        <pt x="121" y="489" on="0"/>
        <pt x="190" y="364" on="0"/>
        <pt x="233" y="252" on="1"/>
        <pt x="349" y="537" on="1"/>
        <pt x="438" y="526" on="1"/>
        <pt x="278" y="186" on="1"/>
      </contour>
    </TTGlyph>
    <TTGlyph name="chi.sc" xMin="6" yMin="0" xMax="467" yMax="564">
      <component glyphName="x.sc" x="0" y="0" flags="0x0"/>
    </TTGlyph>
    <TTGlyph name="circumflex" xMin="30" yMin="636" xMax="356" yMax="790">
      <contour>
        <pt x="30" y="678" on="1"/>
        <pt x="164" y="790" on="1"/>
        <pt x="221" y="790" on="1"/>
        <pt x="356" y="678" on="1"/>
        <pt x="318" y="636" on="1"/>
        <pt x="193" y="720" on="1"/>
        <pt x="67" y="636" on="1"/>
      </contour>
    </TTGlyph>
    <TTGlyph name="circumflex.case" xMin="30" yMin="760" xMax="356" yMax="910">
      <contour>
        <pt x="193" y="840" on="1"/>
        <pt x="68" y="760" on="1"/>
        <pt x="30" y="802" on="1"/>
        <pt x="165" y="910" on="1"/>
        <pt x="222" y="910" on="1"/>
        <pt x="356" y="802" on="1"/>
        <pt x="319" y="760" on="1"/>
      </contour>
    </TTGlyph>
    <TTGlyph name="circumflex.sc" xMin="30" yMin="666" xMax="356" yMax="820">
      <component glyphName="uni0302" x="386" y="30" flags="0x0"/>
    </TTGlyph>
    <TTGlyph name="colon" xMin="51" yMin="-12" xMax="182" yMax="119">
      <component glyphName="period" x="0" y="0" flags="0x0"/>
      <component glyphName="period" x="0" y="372" flags="0x0"/>
    </TTGlyph>
    <TTGlyph name="comma" xMin="38" yMin="-163" xMax="182" yMax="119">
      <contour>
        <pt x="144" y="119" on="0"/>
        <pt x="182" y="81" on="0"/>
        <pt x="182" y="54" on="1"/>
        <pt x="182" y="26" on="0"/>
        <pt x="165" y="-14" on="1"/>
        <pt x="100" y="-163" on="1"/>
        <pt x="38" y="-163" on="1"/>
        <pt x="78" y="-1" on="1"/>
        <pt x="65" y="8" on="0"/>
        <pt x="51" y="37" on="0"/>
        <pt x="51" y="54" on="1"/>
        <pt x="51" y="81" on="0"/>
        <pt x="88" y="119" on="0"/>
        <pt x="116" y="119" on="1"/>
      </contour>
    </TTGlyph>
    <TTGlyph name="copyright" xMin="95" yMin="123" xMax="715" yMax="746">
      <contour>
        <pt x="491" y="746" on="0"/>
        <pt x="632" y="663" on="0"/>
        <pt x="715" y="520" on="0"/>
        <pt x="715" y="434" on="1"/>
        <pt x="715" y="349" on="0"/>
        <pt x="632" y="206" on="0"/>
        <pt x="491" y="123" on="0"/>
        <pt x="406" y="123" on="1"/>
        <pt x="321" y="123" on="0"/>
        <pt x="178" y="206" on="0"/>
        <pt x="95" y="349" on="0"/>
        <pt x="95" y="434" on="1"/>
        <pt x="95" y="520" on="0"/>
        <pt x="178" y="663" on="0"/>
        <pt x="321" y="746" on="0"/>
        <pt x="406" y="746" on="1"/>
      </contour>
      <contour>
        <pt x="335" y="696" on="0"/>
        <pt x="219" y="626" on="0"/>
        <pt x="153" y="506" on="0"/>
        <pt x="153" y="434" on="1"/>
        <pt x="153" y="362" on="0"/>
        <pt x="219" y="243" on="0"/>
        <pt x="335" y="174" on="0"/>
        <pt x="406" y="174" on="1"/>
        <pt x="477" y="174" on="0"/>
        <pt x="592" y="243" on="0"/>
        <pt x="658" y="362" on="0"/>
        <pt x="658" y="434" on="1"/>
        <pt x="658" y="506" on="0"/>
        <pt x="592" y="626" on="0"/>
        <pt x="477" y="696" on="0"/>
        <pt x="406" y="696" on="1"/>
      </contour>
      <contour>
        <pt x="444" y="623" on="0"/>
        <pt x="497" y="604" on="0"/>
        <pt x="522" y="584" on="1"/>
        <pt x="487" y="538" on="1"/>
        <pt x="455" y="566" on="0"/>
        <pt x="411" y="566" on="1"/>
        <pt x="370" y="566" on="0"/>
        <pt x="319" y="502" on="0"/>
        <pt x="319" y="435" on="1"/>
        <pt x="319" y="371" on="0"/>
        <pt x="369" y="306" on="0"/>
        <pt x="412" y="306" on="1"/>
        <pt x="437" y="306" on="0"/>
        <pt x="475" y="322" on="0"/>
        <pt x="495" y="337" on="1"/>
        <pt x="526" y="291" on="1"/>
        <pt x="502" y="270" on="0"/>
        <pt x="446" y="247" on="0"/>
        <pt x="409" y="247" on="1"/>
        <pt x="336" y="247" on="0"/>
        <pt x="247" y="346" on="0"/>
        <pt x="247" y="435" on="1"/>
        <pt x="247" y="495" on="0"/>
        <pt x="291" y="580" on="0"/>
        <pt x="364" y="623" on="0"/>
        <pt x="408" y="623" on="1"/>
      </contour>
    </TTGlyph>
    <TTGlyph name="currency" xMin="33" yMin="90" xMax="527" yMax="592">
      <contour>
        <pt x="489" y="272" on="0"/>
        <pt x="451" y="218" on="1"/>
        <pt x="527" y="142" on="1"/>
        <pt x="476" y="90" on="1"/>
        <pt x="398" y="167" on="1"/>
        <pt x="346" y="134" on="0"/>
        <pt x="278" y="134" on="1"/>
        <pt x="213" y="134" on="0"/>
        <pt x="162" y="169" on="1"/>
        <pt x="84" y="90" on="1"/>
        <pt x="33" y="142" on="1"/>
        <pt x="111" y="220" on="1"/>
        <pt x="74" y="272" on="0"/>
        <pt x="74" y="341" on="1"/>
        <pt x="74" y="408" on="0"/>
        <pt x="110" y="461" on="1"/>
        <pt x="33" y="541" on="1"/>
        <pt x="84" y="592" on="1"/>
        <pt x="162" y="512" on="1"/>
        <pt x="215" y="547" on="0"/>
        <pt x="278" y="547" on="1"/>
        <pt x="346" y="547" on="0"/>
        <pt x="398" y="514" on="1"/>
        <pt x="476" y="592" on="1"/>
        <pt x="527" y="541" on="1"/>
        <pt x="451" y="463" on="1"/>
        <pt x="489" y="409" on="0"/>
        <pt x="489" y="341" on="1"/>
      </contour>
      <contour>
        <pt x="342" y="203" on="0"/>
        <pt x="405" y="276" on="0"/>
        <pt x="405" y="342" on="1"/>
        <pt x="405" y="407" on="0"/>
        <pt x="341" y="481" on="0"/>
        <pt x="281" y="481" on="1"/>
        <pt x="221" y="481" on="0"/>
        <pt x="156" y="407" on="0"/>
        <pt x="156" y="342" on="1"/>
        <pt x="156" y="276" on="0"/>
        <pt x="220" y="203" on="0"/>
        <pt x="281" y="203" on="1"/>
      </contour>
    </TTGlyph>
    <TTGlyph name="currency.osf" xMin="33" yMin="90" xMax="527" yMax="592">
      <component glyphName="currency" x="0" y="0" flags="0x0"/>
    </TTGlyph>
    <TTGlyph name="currency.tf" xMin="33" yMin="90" xMax="527" yMax="592">
      <component glyphName="currency" x="0" y="0" flags="0x0"/>
    </TTGlyph>
    <TTGlyph name="currency.tosf" xMin="33" yMin="90" xMax="527" yMax="592">
      <component glyphName="currency" x="0" y="0" flags="0x0"/>
    </TTGlyph>
    <TTGlyph name="d" xMin="63" yMin="-12" xMax="499" yMax="749">
      <contour>
        <pt x="499" y="739" on="1"/>
        <pt x="499" y="0" on="1"/>
        <pt x="423" y="0" on="1"/>
        <pt x="415" y="74" on="1"/>
        <pt x="389" y="33" on="0"/>
        <pt x="310" y="-12" on="0"/>
        <pt x="262" y="-12" on="1"/>
        <pt x="168" y="-12" on="0"/>
        <pt x="63" y="136" on="0"/>
        <pt x="63" y="261" on="1"/>
        <pt x="63" y="342" on="0"/>
        <pt x="113" y="467" on="0"/>
        <pt x="207" y="538" on="0"/>
        <pt x="270" y="538" on="1"/>
        <pt x="352" y="538" on="0"/>
        <pt x="413" y="472" on="1"/>
        <pt x="413" y="749" on="1"/>
      </contour>
      <contour>
        <pt x="323" y="57" on="0"/>
        <pt x="384" y="97" on="0"/>
        <pt x="413" y="138" on="1"/>
        <pt x="413" y="399" on="1"/>
        <pt x="386" y="433" on="0"/>
        <pt x="326" y="469" on="0"/>
        <pt x="288" y="469" on="1"/>
        <pt x="226" y="469" on="0"/>
        <pt x="156" y="364" on="0"/>
        <pt x="156" y="263" on="1"/>
        <pt x="156" y="159" on="0"/>
        <pt x="220" y="57" on="0"/>
        <pt x="280" y="57" on="1"/>
      </contour>
    </TTGlyph>
    <TTGlyph name="d.sc" xMin="102" yMin="0" xMax="528" yMax="564">
      <contour>
        <pt x="366" y="564" on="0"/>
        <pt x="528" y="445" on="0"/>
        <pt x="528" y="286" on="1"/>
        <pt x="528" y="129" on="0"/>
        <pt x="366" y="0" on="0"/>
        <pt x="248" y="0" on="1"/>
        <pt x="102" y="0" on="1"/>
        <pt x="102" y="564" on="1"/>
        <pt x="232" y="564" on="1"/>
      </contour>
      <contour>
        <pt x="188" y="497" on="1"/>
        <pt x="188" y="66" on="1"/>
        <pt x="254" y="66" on="1"/>
        <pt x="337" y="66" on="0"/>
        <pt x="438" y="162" on="0"/>
        <pt x="438" y="286" on="1"/>
        <pt x="438" y="410" on="0"/>
        <pt x="335" y="497" on="0"/>
        <pt x="248" y="497" on="1"/>
      </contour>
    </TTGlyph>
    <TTGlyph name="dagger" xMin="44" yMin="0" xMax="466" yMax="668">
      <contour>
        <pt x="296" y="520" on="1"/>
        <pt x="466" y="520" on="1"/>
        <pt x="466" y="448" on="1"/>
        <pt x="296" y="448" on="1"/>
        <pt x="296" y="0" on="1"/>
        <pt x="213" y="0" on="1"/>
        <pt x="213" y="448" on="1"/>
        <pt x="44" y="448" on="1"/>
        <pt x="44" y="520" on="1"/>
        <pt x="213" y="520" on="1"/>
        <pt x="213" y="668" on="1"/>
        <pt x="296" y="668" on="1"/>
      </contour>
    </TTGlyph>
    <TTGlyph name="dagger.osf" xMin="44" yMin="0" xMax="466" yMax="668">
      <component glyphName="dagger" x="0" y="0" flags="0x0"/>
    </TTGlyph>
    <TTGlyph name="dagger.tf" xMin="59" yMin="0" xMax="501" yMax="688">
      <contour>
        <pt x="321" y="540" on="1"/>
        <pt x="501" y="540" on="1"/>
        <pt x="501" y="468" on="1"/>
        <pt x="321" y="468" on="1"/>
        <pt x="321" y="0" on="1"/>
        <pt x="239" y="0" on="1"/>
        <pt x="239" y="468" on="1"/>
        <pt x="59" y="468" on="1"/>
        <pt x="59" y="540" on="1"/>
        <pt x="239" y="540" on="1"/>
        <pt x="239" y="688" on="1"/>
        <pt x="321" y="688" on="1"/>
      </contour>
    </TTGlyph>
    <TTGlyph name="dagger.tosf" xMin="69" yMin="0" xMax="491" yMax="668">
      <component glyphName="dagger" x="25" y="0" flags="0x0"/>
    </TTGlyph>
    <TTGlyph name="daggerdbl" xMin="44" yMin="0" xMax="466" yMax="668">
      <contour>
        <pt x="466" y="162" on="1"/>
        <pt x="296" y="162" on="1"/>
        <pt x="296" y="0" on="1"/>
        <pt x="214" y="0" on="1"/>
        <pt x="214" y="162" on="1"/>
        <pt x="44" y="162" on="1"/>
        <pt x="44" y="234" on="1"/>
        <pt x="214" y="234" on="1"/>
        <pt x="214" y="448" on="1"/>
        <pt x="44" y="448" on="1"/>
        <pt x="44" y="520" on="1"/>
        <pt x="214" y="520" on="1"/>
        <pt x="214" y="668" on="1"/>
        <pt x="296" y="668" on="1"/>
        <pt x="296" y="520" on="1"/>
        <pt x="466" y="520" on="1"/>
        <pt x="466" y="448" on="1"/>
        <pt x="296" y="448" on="1"/>
        <pt x="296" y="234" on="1"/>
        <pt x="466" y="234" on="1"/>
      </contour>
    </TTGlyph>
    <TTGlyph name="daggerdbl.osf" xMin="44" yMin="0" xMax="466" yMax="668">
      <component glyphName="daggerdbl" x="0" y="0" flags="0x0"/>
    </TTGlyph>
    <TTGlyph name="daggerdbl.tf" xMin="59" yMin="0" xMax="501" yMax="688">
      <contour>
        <pt x="321" y="468" on="1"/>
        <pt x="321" y="266" on="1"/>
        <pt x="501" y="266" on="1"/>
        <pt x="501" y="194" on="1"/>
        <pt x="321" y="194" on="1"/>
        <pt x="321" y="0" on="1"/>
        <pt x="239" y="0" on="1"/>
        <pt x="239" y="194" on="1"/>
        <pt x="59" y="194" on="1"/>
        <pt x="59" y="266" on="1"/>
        <pt x="239" y="266" on="1"/>
        <pt x="239" y="468" on="1"/>
        <pt x="59" y="468" on="1"/>
        <pt x="59" y="540" on="1"/>
        <pt x="239" y="540" on="1"/>
        <pt x="239" y="688" on="1"/>
        <pt x="321" y="688" on="1"/>
        <pt x="321" y="540" on="1"/>
        <pt x="501" y="540" on="1"/>
        <pt x="501" y="468" on="1"/>
      </contour>
    </TTGlyph>
    <TTGlyph name="daggerdbl.tosf" xMin="69" yMin="0" xMax="491" yMax="668">
      <component glyphName="daggerdbl" x="25" y="0" flags="0x0"/>
    </TTGlyph>
    <TTGlyph name="dcaron" xMin="63" yMin="-12" xMax="644" yMax="749">
      <component glyphName="d" x="0" y="0" flags="0x0"/>
      <component glyphName="caron.alt" x="481" y="50" flags="0x0"/>
    </TTGlyph>
    <TTGlyph name="dcaron.sc" xMin="102" yMin="0" xMax="528" yMax="812">
      <component glyphName="d.sc" x="0" y="0" flags="0x0"/>
      <component glyphName="uni030C.sc" x="86" y="0" flags="0x0"/>
    </TTGlyph>
    <TTGlyph name="dcroat" xMin="63" yMin="-12" xMax="577" yMax="749">
      <contour>
        <pt x="577" y="674" on="1"/>
        <pt x="577" y="608" on="1"/>
        <pt x="499" y="608" on="1"/>
        <pt x="499" y="0" on="1"/>
        <pt x="423" y="0" on="1"/>
        <pt x="415" y="74" on="1"/>
        <pt x="389" y="33" on="0"/>
        <pt x="310" y="-12" on="0"/>
        <pt x="262" y="-12" on="1"/>
        <pt x="168" y="-12" on="0"/>
        <pt x="63" y="136" on="0"/>
        <pt x="63" y="261" on="1"/>
        <pt x="63" y="342" on="0"/>
        <pt x="113" y="467" on="0"/>
        <pt x="207" y="538" on="0"/>
        <pt x="270" y="538" on="1"/>
        <pt x="352" y="538" on="0"/>
        <pt x="413" y="472" on="1"/>
        <pt x="413" y="608" on="1"/>
        <pt x="254" y="608" on="1"/>
        <pt x="254" y="674" on="1"/>
        <pt x="413" y="674" on="1"/>
        <pt x="413" y="749" on="1"/>
        <pt x="499" y="739" on="1"/>
        <pt x="499" y="674" on="1"/>
      </contour>
      <contour>
        <pt x="323" y="57" on="0"/>
        <pt x="384" y="97" on="0"/>
        <pt x="413" y="138" on="1"/>
        <pt x="413" y="399" on="1"/>
        <pt x="386" y="433" on="0"/>
        <pt x="326" y="469" on="0"/>
        <pt x="288" y="469" on="1"/>
        <pt x="226" y="469" on="0"/>
        <pt x="156" y="364" on="0"/>
        <pt x="156" y="263" on="1"/>
        <pt x="156" y="159" on="0"/>
        <pt x="220" y="57" on="0"/>
        <pt x="280" y="57" on="1"/>
      </contour>
    </TTGlyph>
    <TTGlyph name="dcroat.sc" xMin="42" yMin="0" xMax="528" yMax="564">
      <component glyphName="eth.sc" x="0" y="0" flags="0x0"/>
    </TTGlyph>
    <TTGlyph name="degree" xMin="57" yMin="384" xMax="381" yMax="700">
      <contour>
        <pt x="177" y="384" on="0"/>
        <pt x="103" y="421" on="0"/>
        <pt x="57" y="493" on="0"/>
        <pt x="57" y="542" on="1"/>
        <pt x="57" y="590" on="0"/>
        <pt x="103" y="662" on="0"/>
        <pt x="177" y="700" on="0"/>
        <pt x="219" y="700" on="1"/>
        <pt x="261" y="700" on="0"/>
        <pt x="336" y="662" on="0"/>
        <pt x="381" y="590" on="0"/>
        <pt x="381" y="541" on="1"/>
        <pt x="381" y="492" on="0"/>
        <pt x="336" y="421" on="0"/>
        <pt x="261" y="384" on="0"/>
        <pt x="219" y="384" on="1"/>
      </contour>
      <contour>
        <pt x="257" y="442" on="0"/>
        <pt x="308" y="494" on="0"/>
        <pt x="308" y="541" on="1"/>
        <pt x="308" y="588" on="0"/>
        <pt x="257" y="641" on="0"/>
        <pt x="219" y="641" on="1"/>
        <pt x="181" y="641" on="0"/>
        <pt x="130" y="590" on="0"/>
        <pt x="130" y="542" on="1"/>
        <pt x="130" y="494" on="0"/>
        <pt x="181" y="442" on="0"/>
        <pt x="219" y="442" on="1"/>
      </contour>
    </TTGlyph>
    <TTGlyph name="degree.osf" xMin="57" yMin="384" xMax="381" yMax="700">
      <component glyphName="degree" x="0" y="0" flags="0x0"/>
    </TTGlyph>
    <TTGlyph name="degree.tf" xMin="77" yMin="404" xMax="401" yMax="720">
      <component glyphName="degree" x="20" y="20" flags="0x0"/>
    </TTGlyph>
    <TTGlyph name="degree.tosf" xMin="77" yMin="384" xMax="401" yMax="700">
      <component glyphName="degree" x="20" y="0" flags="0x0"/>
    </TTGlyph>
    <TTGlyph name="delta" xMin="58" yMin="-12" xMax="519" yMax="749">
      <contour>
        <pt x="426" y="457" on="0"/>
        <pt x="519" y="342" on="0"/>
        <pt x="519" y="242" on="1"/>
        <pt x="519" y="172" on="0"/>
        <pt x="464" y="56" on="0"/>
        <pt x="359" y="-12" on="0"/>
        <pt x="288" y="-12" on="1"/>
        <pt x="219" y="-12" on="0"/>
        <pt x="115" y="48" on="0"/>
        <pt x="58" y="162" on="0"/>
        <pt x="58" y="240" on="1"/>
        <pt x="58" y="323" on="0"/>
        <pt x="139" y="438" on="0"/>
        <pt x="210" y="472" on="1"/>
        <pt x="157" y="499" on="0"/>
        <pt x="113" y="564" on="0"/>
        <pt x="113" y="609" on="1"/>
        <pt x="113" y="647" on="0"/>
        <pt x="154" y="711" on="0"/>
        <pt x="233" y="749" on="0"/>
        <pt x="287" y="749" on="1"/>
        <pt x="341" y="749" on="0"/>
        <pt x="424" y="722" on="0"/>
        <pt x="463" y="696" on="1"/>
        <pt x="419" y="642" on="1"/>
        <pt x="388" y="663" on="0"/>
        <pt x="332" y="681" on="0"/>
        <pt x="298" y="681" on="1"/>
        <pt x="249" y="681" on="0"/>
        <pt x="202" y="641" on="0"/>
        <pt x="202" y="609" on="1"/>
        <pt x="202" y="585" on="0"/>
        <pt x="222" y="553" on="0"/>
        <pt x="273" y="521" on="0"/>
        <pt x="325" y="500" on="1"/>
      </contour>
      <contour>
        <pt x="355" y="58" on="0"/>
        <pt x="426" y="152" on="0"/>
        <pt x="426" y="242" on="1"/>
        <pt x="426" y="297" on="0"/>
        <pt x="396" y="370" on="0"/>
        <pt x="327" y="424" on="0"/>
        <pt x="265" y="449" on="1"/>
        <pt x="209" y="415" on="0"/>
        <pt x="151" y="316" on="0"/>
        <pt x="151" y="240" on="1"/>
        <pt x="151" y="151" on="0"/>
        <pt x="220" y="58" on="0"/>
        <pt x="288" y="58" on="1"/>
      </contour>
    </TTGlyph>
    <TTGlyph name="delta.sc" xMin="8" yMin="0" xMax="505" yMax="564">
      <contour>
        <pt x="505" y="0" on="1"/>
        <pt x="8" y="0" on="1"/>
        <pt x="203" y="564" on="1"/>
        <pt x="310" y="564" on="1"/>
      </contour>
      <contour>
        <pt x="115" y="69" on="1"/>
        <pt x="394" y="69" on="1"/>
        <pt x="255" y="494" on="1"/>
      </contour>
    </TTGlyph>
    <TTGlyph name="dieresis" xMin="30" yMin="656" xMax="345" yMax="763">
      <contour>
        <pt x="108" y="763" on="0"/>
        <pt x="139" y="732" on="0"/>
        <pt x="139" y="709" on="1"/>
        <pt x="139" y="687" on="0"/>
        <pt x="108" y="656" on="0"/>
        <pt x="85" y="656" on="1"/>
        <pt x="62" y="656" on="0"/>
        <pt x="30" y="687" on="0"/>
        <pt x="30" y="709" on="1"/>
        <pt x="30" y="732" on="0"/>
        <pt x="62" y="763" on="0"/>
        <pt x="85" y="763" on="1"/>
      </contour>
      <contour>
        <pt x="314" y="763" on="0"/>
        <pt x="345" y="732" on="0"/>
        <pt x="345" y="709" on="1"/>
        <pt x="345" y="686" on="0"/>
        <pt x="314" y="656" on="0"/>
        <pt x="290" y="656" on="1"/>
        <pt x="267" y="656" on="0"/>
        <pt x="236" y="687" on="0"/>
        <pt x="236" y="709" on="1"/>
        <pt x="236" y="732" on="0"/>
        <pt x="267" y="763" on="0"/>
        <pt x="290" y="763" on="1"/>
      </contour>
    </TTGlyph>
    <TTGlyph name="dieresis.case" xMin="30" yMin="782" xMax="345" yMax="889">
      <component glyphName="uni0308" x="375" y="126" flags="0x0"/>
    </TTGlyph>
    <TTGlyph name="dieresis.sc" xMin="30" yMin="686" xMax="345" yMax="793">
      <component glyphName="uni0308" x="375" y="30" flags="0x0"/>
    </TTGlyph>
    <TTGlyph name="dieresistonos" xMin="30" yMin="626" xMax="345" yMax="910">
      <contour>
        <pt x="274" y="892" on="1"/>
        <pt x="215" y="727" on="1"/>
        <pt x="157" y="736" on="1"/>
        <pt x="186" y="910" on="1"/>
      </contour>
      <contour>
        <pt x="108" y="733" on="0"/>
        <pt x="139" y="702" on="0"/>
        <pt x="139" y="679" on="1"/>
        <pt x="139" y="657" on="0"/>
        <pt x="108" y="626" on="0"/>
        <pt x="85" y="626" on="1"/>
        <pt x="62" y="626" on="0"/>
        <pt x="30" y="657" on="0"/>
        <pt x="30" y="679" on="1"/>
        <pt x="30" y="702" on="0"/>
        <pt x="62" y="733" on="0"/>
        <pt x="85" y="733" on="1"/>
      </contour>
      <contour>
        <pt x="314" y="733" on="0"/>
        <pt x="345" y="702" on="0"/>
        <pt x="345" y="679" on="1"/>
        <pt x="345" y="656" on="0"/>
        <pt x="314" y="626" on="0"/>
        <pt x="290" y="626" on="1"/>
        <pt x="267" y="626" on="0"/>
        <pt x="236" y="657" on="0"/>
        <pt x="236" y="679" on="1"/>
        <pt x="236" y="702" on="0"/>
        <pt x="267" y="733" on="0"/>
        <pt x="290" y="733" on="1"/>
      </contour>
    </TTGlyph>
    <TTGlyph name="divide" xMin="63" yMin="40" xMax="436" yMax="368">
      <component glyphName="period" x="133" y="52" flags="0x0"/>
      <component glyphName="period" x="133" y="506" flags="0x0"/>
      <component glyphName="minus" x="0" y="0" flags="0x0"/>
    </TTGlyph>
    <TTGlyph name="divide.osf" xMin="63" yMin="40" xMax="436" yMax="625">
      <contour>
        <pt x="277" y="625" on="0"/>
        <pt x="315" y="587" on="0"/>
        <pt x="315" y="560" on="1"/>
        <pt x="315" y="532" on="0"/>
        <pt x="277" y="494" on="0"/>
        <pt x="249" y="494" on="1"/>
        <pt x="221" y="494" on="0"/>
        <pt x="184" y="532" on="0"/>
        <pt x="184" y="560" on="1"/>
        <pt x="184" y="587" on="0"/>
        <pt x="221" y="625" on="0"/>
        <pt x="249" y="625" on="1"/>
      </contour>
      <contour>
        <pt x="63" y="368" on="1"/>
        <pt x="436" y="368" on="1"/>
        <pt x="436" y="296" on="1"/>
        <pt x="63" y="296" on="1"/>
      </contour>
      <contour>
        <pt x="277" y="171" on="0"/>
        <pt x="315" y="133" on="0"/>
        <pt x="315" y="106" on="1"/>
        <pt x="315" y="78" on="0"/>
        <pt x="277" y="40" on="0"/>
        <pt x="249" y="40" on="1"/>
        <pt x="221" y="40" on="0"/>
        <pt x="184" y="78" on="0"/>
        <pt x="184" y="106" on="1"/>
        <pt x="184" y="133" on="0"/>
        <pt x="221" y="171" on="0"/>
        <pt x="249" y="171" on="1"/>
      </contour>
    </TTGlyph>
    <TTGlyph name="divide.tf" xMin="94" yMin="40" xMax="467" yMax="625">
      <contour>
        <pt x="308" y="625" on="0"/>
        <pt x="346" y="587" on="0"/>
        <pt x="346" y="560" on="1"/>
        <pt x="346" y="532" on="0"/>
        <pt x="308" y="494" on="0"/>
        <pt x="280" y="494" on="1"/>
        <pt x="252" y="494" on="0"/>
        <pt x="215" y="532" on="0"/>
        <pt x="215" y="560" on="1"/>
        <pt x="215" y="587" on="0"/>
        <pt x="252" y="625" on="0"/>
        <pt x="280" y="625" on="1"/>
      </contour>
      <contour>
        <pt x="94" y="368" on="1"/>
        <pt x="467" y="368" on="1"/>
        <pt x="467" y="296" on="1"/>
        <pt x="94" y="296" on="1"/>
      </contour>
      <contour>
        <pt x="308" y="171" on="0"/>
        <pt x="346" y="133" on="0"/>
        <pt x="346" y="106" on="1"/>
        <pt x="346" y="78" on="0"/>
        <pt x="308" y="40" on="0"/>
        <pt x="280" y="40" on="1"/>
        <pt x="252" y="40" on="0"/>
        <pt x="215" y="78" on="0"/>
        <pt x="215" y="106" on="1"/>
        <pt x="215" y="133" on="0"/>
        <pt x="252" y="171" on="0"/>
        <pt x="280" y="171" on="1"/>
      </contour>
    </TTGlyph>
    <TTGlyph name="divide.tosf" xMin="94" yMin="40" xMax="467" yMax="625">
      <contour>
        <pt x="308" y="625" on="0"/>
        <pt x="346" y="587" on="0"/>
        <pt x="346" y="560" on="1"/>
        <pt x="346" y="532" on="0"/>
        <pt x="308" y="494" on="0"/>
        <pt x="280" y="494" on="1"/>
        <pt x="252" y="494" on="0"/>
        <pt x="215" y="532" on="0"/>
        <pt x="215" y="560" on="1"/>
        <pt x="215" y="587" on="0"/>
        <pt x="252" y="625" on="0"/>
        <pt x="280" y="625" on="1"/>
      </contour>
      <contour>
        <pt x="94" y="368" on="1"/>
        <pt x="467" y="368" on="1"/>
        <pt x="467" y="296" on="1"/>
        <pt x="94" y="296" on="1"/>
      </contour>
      <contour>
        <pt x="308" y="171" on="0"/>
        <pt x="346" y="133" on="0"/>
        <pt x="346" y="106" on="1"/>
        <pt x="346" y="78" on="0"/>
        <pt x="308" y="40" on="0"/>
        <pt x="280" y="40" on="1"/>
        <pt x="252" y="40" on="0"/>
        <pt x="215" y="78" on="0"/>
        <pt x="215" y="106" on="1"/>
        <pt x="215" y="133" on="0"/>
        <pt x="252" y="171" on="0"/>
        <pt x="280" y="171" on="1"/>
      </contour>
    </TTGlyph>
    <TTGlyph name="dollar" xMin="27" yMin="-154" xMax="488" yMax="823">
      <contour>
        <pt x="488" y="109" on="0"/>
        <pt x="391" y="5" on="0"/>
        <pt x="306" y="-8" on="1"/>
        <pt x="306" y="-154" on="1"/>
        <pt x="231" y="-154" on="1"/>
        <pt x="231" y="-11" on="1"/>
        <pt x="109" y="-5" on="0"/>
        <pt x="27" y="74" on="1"/>
        <pt x="78" y="130" on="1"/>
        <pt x="150" y="60" on="0"/>
        <pt x="251" y="60" on="1"/>
        <pt x="315" y="60" on="0"/>
        <pt x="398" y="124" on="0"/>
        <pt x="398" y="182" on="1"/>
        <pt x="398" y="217" on="0"/>
        <pt x="372" y="262" on="0"/>
        <pt x="310" y="297" on="0"/>
        <pt x="251" y="315" on="1"/>
        <pt x="148" y="346" on="0"/>
        <pt x="54" y="433" on="0"/>
        <pt x="54" y="506" on="1"/>
        <pt x="54" y="575" on="0"/>
        <pt x="152" y="669" on="0"/>
        <pt x="231" y="678" on="1"/>
        <pt x="231" y="823" on="1"/>
        <pt x="306" y="823" on="1"/>
        <pt x="306" y="677" on="1"/>
        <pt x="356" y="671" on="0"/>
        <pt x="432" y="635" on="0"/>
        <pt x="467" y="602" on="1"/>
        <pt x="417" y="547" on="1"/>
        <pt x="383" y="579" on="0"/>
        <pt x="310" y="608" on="0"/>
        <pt x="266" y="608" on="1"/>
        <pt x="212" y="608" on="0"/>
        <pt x="143" y="557" on="0"/>
        <pt x="143" y="510" on="1"/>
        <pt x="143" y="480" on="0"/>
        <pt x="168" y="440" on="0"/>
        <pt x="231" y="406" on="0"/>
        <pt x="291" y="387" on="1"/>
        <pt x="354" y="367" on="0"/>
        <pt x="438" y="322" on="0"/>
        <pt x="488" y="245" on="0"/>
        <pt x="488" y="185" on="1"/>
      </contour>
    </TTGlyph>
    <TTGlyph name="dollar.osf" xMin="27" yMin="-154" xMax="488" yMax="823">
      <component glyphName="dollar" x="0" y="0" flags="0x0"/>
    </TTGlyph>
    <TTGlyph name="dollar.tf" xMin="37" yMin="-153" xMax="502" yMax="846">
      <contour>
        <pt x="502" y="117" on="0"/>
        <pt x="404" y="12" on="0"/>
        <pt x="316" y="-1" on="1"/>
        <pt x="316" y="-153" on="1"/>
        <pt x="241" y="-153" on="1"/>
        <pt x="241" y="-4" on="1"/>
        <pt x="119" y="3" on="0"/>
        <pt x="37" y="82" on="1"/>
        <pt x="87" y="138" on="1"/>
        <pt x="123" y="104" on="0"/>
        <pt x="209" y="68" on="0"/>
        <pt x="263" y="68" on="1"/>
        <pt x="328" y="68" on="0"/>
        <pt x="411" y="132" on="0"/>
        <pt x="411" y="192" on="1"/>
        <pt x="411" y="227" on="0"/>
        <pt x="385" y="273" on="0"/>
        <pt x="322" y="308" on="0"/>
        <pt x="263" y="327" on="1"/>
        <pt x="159" y="358" on="0"/>
        <pt x="64" y="445" on="0"/>
        <pt x="64" y="520" on="1"/>
        <pt x="64" y="589" on="0"/>
        <pt x="162" y="683" on="0"/>
        <pt x="241" y="692" on="1"/>
        <pt x="241" y="846" on="1"/>
        <pt x="316" y="846" on="1"/>
        <pt x="316" y="692" on="1"/>
        <pt x="366" y="687" on="0"/>
        <pt x="444" y="650" on="0"/>
        <pt x="480" y="617" on="1"/>
        <pt x="430" y="561" on="1"/>
        <pt x="395" y="593" on="0"/>
        <pt x="322" y="623" on="0"/>
        <pt x="278" y="623" on="1"/>
        <pt x="223" y="623" on="0"/>
        <pt x="153" y="571" on="0"/>
        <pt x="153" y="523" on="1"/>
        <pt x="153" y="492" on="0"/>
        <pt x="178" y="452" on="0"/>
        <pt x="242" y="418" on="0"/>
        <pt x="303" y="399" on="1"/>
        <pt x="367" y="379" on="0"/>
        <pt x="451" y="334" on="0"/>
        <pt x="502" y="256" on="0"/>
        <pt x="502" y="195" on="1"/>
      </contour>
    </TTGlyph>
    <TTGlyph name="dollar.tosf" xMin="44" yMin="-153" xMax="495" yMax="825">
      <contour>
        <pt x="495" y="110" on="0"/>
        <pt x="400" y="6" on="0"/>
        <pt x="316" y="-7" on="1"/>
        <pt x="316" y="-153" on="1"/>
        <pt x="242" y="-153" on="1"/>
        <pt x="242" y="-10" on="1"/>
        <pt x="123" y="-3" on="0"/>
        <pt x="44" y="76" on="1"/>
        <pt x="94" y="131" on="1"/>
        <pt x="167" y="61" on="0"/>
        <pt x="263" y="61" on="1"/>
        <pt x="325" y="61" on="0"/>
        <pt x="407" y="125" on="0"/>
        <pt x="407" y="184" on="1"/>
        <pt x="407" y="219" on="0"/>
        <pt x="381" y="264" on="0"/>
        <pt x="320" y="299" on="0"/>
        <pt x="262" y="317" on="1"/>
        <pt x="163" y="350" on="0"/>
        <pt x="71" y="435" on="0"/>
        <pt x="71" y="507" on="1"/>
        <pt x="71" y="575" on="0"/>
        <pt x="166" y="669" on="0"/>
        <pt x="242" y="678" on="1"/>
        <pt x="242" y="825" on="1"/>
        <pt x="317" y="825" on="1"/>
        <pt x="317" y="678" on="1"/>
        <pt x="364" y="672" on="0"/>
        <pt x="439" y="636" on="0"/>
        <pt x="474" y="603" on="1"/>
        <pt x="425" y="548" on="1"/>
        <pt x="361" y="609" on="0"/>
        <pt x="278" y="609" on="1"/>
        <pt x="225" y="609" on="0"/>
        <pt x="157" y="558" on="0"/>
        <pt x="157" y="511" on="1"/>
        <pt x="157" y="481" on="0"/>
        <pt x="182" y="441" on="0"/>
        <pt x="243" y="407" on="0"/>
        <pt x="302" y="388" on="1"/>
        <pt x="364" y="368" on="0"/>
        <pt x="445" y="323" on="0"/>
        <pt x="495" y="246" on="0"/>
        <pt x="495" y="187" on="1"/>
      </contour>
    </TTGlyph>
    <TTGlyph name="dotaccent" xMin="30" yMin="658" xMax="152" yMax="775">
      <contour>
        <pt x="118" y="775" on="0"/>
        <pt x="152" y="742" on="0"/>
        <pt x="152" y="716" on="1"/>
        <pt x="152" y="691" on="0"/>
        <pt x="117" y="658" on="0"/>
        <pt x="90" y="658" on="1"/>
        <pt x="63" y="658" on="0"/>
        <pt x="30" y="691" on="0"/>
        <pt x="30" y="716" on="1"/>
        <pt x="30" y="742" on="0"/>
        <pt x="63" y="775" on="0"/>
        <pt x="90" y="775" on="1"/>
      </contour>
    </TTGlyph>
    <TTGlyph name="dotaccent.case" xMin="30" yMin="784" xMax="152" yMax="901">
      <component glyphName="uni0307" x="182" y="126" flags="0x0"/>
    </TTGlyph>
    <TTGlyph name="dotaccent.sc" xMin="30" yMin="688" xMax="152" yMax="805">
      <component glyphName="uni0307" x="182" y="30" flags="0x0"/>
    </TTGlyph>
    <TTGlyph name="dotbelowcomb" xMin="-152" yMin="-194" xMax="-30" yMax="-76">
      <contour>
        <pt x="-118" y="-194" on="0"/>
        <pt x="-152" y="-160" on="0"/>
        <pt x="-152" y="-135" on="1"/>
        <pt x="-152" y="-110" on="0"/>
        <pt x="-118" y="-76" on="0"/>
        <pt x="-91" y="-76" on="1"/>
        <pt x="-64" y="-76" on="0"/>
        <pt x="-30" y="-110" on="0"/>
        <pt x="-30" y="-135" on="1"/>
        <pt x="-30" y="-160" on="0"/>
        <pt x="-64" y="-194" on="0"/>
        <pt x="-91" y="-194" on="1"/>
      </contour>
    </TTGlyph>
    <TTGlyph name="dotlessi" xMin="97" yMin="0" xMax="183" yMax="526">
      <contour>
        <pt x="183" y="0" on="1"/>
        <pt x="97" y="0" on="1"/>
        <pt x="97" y="526" on="1"/>
        <pt x="183" y="526" on="1"/>
      </contour>
    </TTGlyph>
    <TTGlyph name="dotlessi.sc" xMin="102" yMin="0" xMax="188" yMax="564">
      <component glyphName="i.sc" x="0" y="0" flags="0x0"/>
    </TTGlyph>
    <TTGlyph name="dotmath" xMin="51" yMin="246" xMax="182" yMax="378">
      <component glyphName="periodcentered" x="0" y="0" flags="0x0"/>
    </TTGlyph>
    <TTGlyph name="e" xMin="58" yMin="-12" xMax="490" yMax="538">
      <contour>
        <pt x="490" y="257" on="0"/>
        <pt x="488" y="233" on="1"/>
        <pt x="150" y="233" on="1"/>
        <pt x="156" y="143" on="0"/>
        <pt x="233" y="59" on="0"/>
        <pt x="296" y="59" on="1"/>
        <pt x="335" y="59" on="0"/>
        <pt x="398" y="81" on="0"/>
        <pt x="433" y="106" on="1"/>
        <pt x="471" y="54" on="1"/>
        <pt x="389" y="-12" on="0"/>
        <pt x="289" y="-12" on="1"/>
        <pt x="181" y="-12" on="0"/>
        <pt x="58" y="132" on="0"/>
        <pt x="58" y="258" on="1"/>
        <pt x="58" y="340" on="0"/>
        <pt x="111" y="467" on="0"/>
        <pt x="210" y="538" on="0"/>
        <pt x="276" y="538" on="1"/>
        <pt x="380" y="538" on="0"/>
        <pt x="490" y="401" on="0"/>
        <pt x="490" y="279" on="1"/>
      </contour>
      <contour>
        <pt x="405" y="305" on="1"/>
        <pt x="405" y="385" on="0"/>
        <pt x="341" y="469" on="0"/>
        <pt x="278" y="469" on="1"/>
        <pt x="160" y="469" on="0"/>
        <pt x="150" y="297" on="1"/>
        <pt x="405" y="297" on="1"/>
      </contour>
    </TTGlyph>
    <TTGlyph name="e.sc" xMin="102" yMin="0" xMax="433" yMax="564">
      <contour>
        <pt x="419" y="497" on="1"/>
        <pt x="188" y="497" on="1"/>
        <pt x="188" y="322" on="1"/>
        <pt x="389" y="322" on="1"/>
        <pt x="389" y="255" on="1"/>
        <pt x="188" y="255" on="1"/>
        <pt x="188" y="67" on="1"/>
        <pt x="433" y="67" on="1"/>
        <pt x="433" y="0" on="1"/>
        <pt x="102" y="0" on="1"/>
        <pt x="102" y="564" on="1"/>
        <pt x="428" y="564" on="1"/>
      </contour>
    </TTGlyph>
    <TTGlyph name="eacute" xMin="58" yMin="-12" xMax="490" yMax="798">
      <component glyphName="e" x="0" y="0" flags="0x0"/>
      <component glyphName="acutecomb" x="426" y="0" flags="0x0"/>
    </TTGlyph>
    <TTGlyph name="eacute.sc" xMin="102" yMin="0" xMax="433" yMax="828">
      <component glyphName="e.sc" x="0" y="0" flags="0x0"/>
      <component glyphName="acutecomb.sc" x="120" y="0" flags="0x0"/>
    </TTGlyph>
    <TTGlyph name="ebreve" xMin="58" yMin="-12" xMax="490" yMax="786">
      <component glyphName="e" x="0" y="0" flags="0x0"/>
      <component glyphName="uni0306" x="456" y="0" flags="0x0"/>
    </TTGlyph>
    <TTGlyph name="ebreve.sc" xMin="102" yMin="0" xMax="433" yMax="816">
      <component glyphName="e.sc" x="0" y="0" flags="0x0"/>
      <component glyphName="uni0306.sc" x="89" y="0" flags="0x0"/>
    </TTGlyph>
    <TTGlyph name="ecaron" xMin="58" yMin="-12" xMax="490" yMax="782">
      <component glyphName="e" x="0" y="0" flags="0x0"/>
      <component glyphName="uni030C" x="472" y="0" flags="0x0"/>
    </TTGlyph>
    <TTGlyph name="ecaron.sc" xMin="102" yMin="0" xMax="433" yMax="812">
      <component glyphName="e.sc" x="0" y="0" flags="0x0"/>
      <component glyphName="uni030C.sc" x="75" y="0" flags="0x0"/>
    </TTGlyph>
    <TTGlyph name="ecircumflex" xMin="58" yMin="-12" xMax="490" yMax="790">
      <component glyphName="e" x="0" y="0" flags="0x0"/>
      <component glyphName="uni0302" x="472" y="0" flags="0x0"/>
    </TTGlyph>
    <TTGlyph name="ecircumflex.sc" xMin="102" yMin="0" xMax="433" yMax="820">
      <component glyphName="e.sc" x="0" y="0" flags="0x0"/>
      <component glyphName="uni0302.sc" x="75" y="0" flags="0x0"/>
    </TTGlyph>
    <TTGlyph name="edieresis" xMin="58" yMin="-12" xMax="490" yMax="763">
      <component glyphName="e" x="0" y="0" flags="0x0"/>
      <component glyphName="uni0308" x="465" y="0" flags="0x0"/>
    </TTGlyph>
    <TTGlyph name="edieresis.sc" xMin="102" yMin="0" xMax="433" yMax="793">
      <component glyphName="e.sc" x="0" y="0" flags="0x0"/>
      <component glyphName="uni0308.sc" x="79" y="0" flags="0x0"/>
    </TTGlyph>
    <TTGlyph name="edotaccent" xMin="58" yMin="-12" xMax="490" yMax="775">
      <component glyphName="e" x="0" y="0" flags="0x0"/>
      <component glyphName="uni0307" x="369" y="0" flags="0x0"/>
    </TTGlyph>
    <TTGlyph name="edotaccent.sc" xMin="102" yMin="0" xMax="433" yMax="805">
      <component glyphName="e.sc" x="0" y="0" flags="0x0"/>
      <component glyphName="uni0307.sc" x="176" y="0" flags="0x0"/>
    </TTGlyph>
    <TTGlyph name="egrave" xMin="58" yMin="-12" xMax="490" yMax="798">
      <component glyphName="e" x="0" y="0" flags="0x0"/>
      <component glyphName="gravecomb" x="435" y="0" flags="0x0"/>
    </TTGlyph>
    <TTGlyph name="egrave.sc" xMin="102" yMin="0" xMax="433" yMax="828">
      <component glyphName="e.sc" x="0" y="0" flags="0x0"/>
      <component glyphName="gravecomb.sc" x="120" y="0" flags="0x0"/>
    </TTGlyph>
    <TTGlyph name="eight" xMin="46" yMin="-12" xMax="502" yMax="679">
      <contour>
        <pt x="502" y="300" on="0"/>
        <pt x="502" y="178" on="1"/>
        <pt x="502" y="123" on="0"/>
        <pt x="444" y="36" on="0"/>
        <pt x="339" y="-12" on="0"/>
        <pt x="273" y="-12" on="1"/>
        <pt x="206" y="-12" on="0"/>
        <pt x="103" y="36" on="0"/>
        <pt x="46" y="122" on="0"/>
        <pt x="46" y="176" on="1"/>
        <pt x="46" y="239" on="0"/>
        <pt x="115" y="324" on="0"/>
        <pt x="181" y="352" on="1"/>
        <pt x="126" y="379" on="0"/>
        <pt x="75" y="455" on="0"/>
        <pt x="75" y="507" on="1"/>
        <pt x="75" y="561" on="0"/>
        <pt x="131" y="639" on="0"/>
        <pt x="223" y="679" on="0"/>
        <pt x="275" y="679" on="1"/>
        <pt x="327" y="679" on="0"/>
        <pt x="418" y="641" on="0"/>
        <pt x="475" y="564" on="0"/>
        <pt x="475" y="510" on="1"/>
        <pt x="475" y="460" on="0"/>
        <pt x="419" y="388" on="0"/>
        <pt x="360" y="358" on="1"/>
      </contour>
      <contour>
        <pt x="222" y="613" on="0"/>
        <pt x="159" y="557" on="0"/>
        <pt x="159" y="506" on="1"/>
        <pt x="159" y="458" on="0"/>
        <pt x="218" y="407" on="0"/>
        <pt x="283" y="386" on="1"/>
        <pt x="302" y="379" on="1"/>
        <pt x="349" y="406" on="0"/>
        <pt x="391" y="464" on="0"/>
        <pt x="391" y="507" on="1"/>
        <pt x="391" y="556" on="0"/>
        <pt x="330" y="613" on="0"/>
        <pt x="275" y="613" on="1"/>
      </contour>
      <contour>
        <pt x="338" y="57" on="0"/>
        <pt x="413" y="122" on="0"/>
        <pt x="413" y="177" on="1"/>
        <pt x="413" y="214" on="0"/>
        <pt x="385" y="264" on="0"/>
        <pt x="322" y="301" on="0"/>
        <pt x="266" y="320" on="1"/>
        <pt x="239" y="330" on="1"/>
        <pt x="186" y="306" on="0"/>
        <pt x="136" y="231" on="0"/>
        <pt x="136" y="176" on="1"/>
        <pt x="136" y="120" on="0"/>
        <pt x="210" y="57" on="0"/>
        <pt x="274" y="57" on="1"/>
      </contour>
    </TTGlyph>
    <TTGlyph name="eight.dnom" xMin="44" yMin="-9" xMax="356" yMax="424">
      <contour>
        <pt x="311" y="204" on="0"/>
        <pt x="356" y="149" on="0"/>
        <pt x="356" y="111" on="1"/>
        <pt x="356" y="59" on="0"/>
        <pt x="269" y="-9" on="0"/>
        <pt x="199" y="-9" on="1"/>
        <pt x="129" y="-9" on="0"/>
        <pt x="44" y="59" on="0"/>
        <pt x="44" y="110" on="1"/>
        <pt x="44" y="184" on="0"/>
        <pt x="130" y="217" on="1"/>
        <pt x="62" y="252" on="0"/>
        <pt x="62" y="315" on="1"/>
        <pt x="62" y="364" on="0"/>
        <pt x="143" y="424" on="0"/>
        <pt x="201" y="424" on="1"/>
        <pt x="259" y="424" on="0"/>
        <pt x="339" y="368" on="0"/>
        <pt x="339" y="318" on="1"/>
        <pt x="339" y="260" on="0"/>
        <pt x="266" y="224" on="1"/>
      </contour>
      <contour>
        <pt x="170" y="372" on="0"/>
        <pt x="134" y="342" on="0"/>
        <pt x="134" y="314" on="1"/>
        <pt x="134" y="288" on="0"/>
        <pt x="166" y="259" on="0"/>
        <pt x="203" y="247" on="1"/>
        <pt x="217" y="242" on="1"/>
        <pt x="244" y="258" on="0"/>
        <pt x="267" y="292" on="0"/>
        <pt x="267" y="315" on="1"/>
        <pt x="267" y="341" on="0"/>
        <pt x="233" y="372" on="0"/>
        <pt x="201" y="372" on="1"/>
      </contour>
      <contour>
        <pt x="238" y="46" on="0"/>
        <pt x="282" y="81" on="0"/>
        <pt x="282" y="111" on="1"/>
        <pt x="282" y="141" on="0"/>
        <pt x="245" y="175" on="0"/>
        <pt x="198" y="190" on="1"/>
        <pt x="177" y="197" on="1"/>
        <pt x="147" y="184" on="0"/>
        <pt x="119" y="142" on="0"/>
        <pt x="119" y="112" on="1"/>
        <pt x="119" y="81" on="0"/>
        <pt x="163" y="46" on="0"/>
        <pt x="200" y="46" on="1"/>
      </contour>
    </TTGlyph>
    <TTGlyph name="eight.numr" xMin="44" yMin="263" xMax="356" yMax="696">
      <component glyphName="eight.dnom" x="0" y="272" flags="0x0"/>
    </TTGlyph>
    <TTGlyph name="eight.osf" xMin="46" yMin="-12" xMax="502" yMax="679">
      <contour>
        <pt x="502" y="300" on="0"/>
        <pt x="502" y="178" on="1"/>
        <pt x="502" y="123" on="0"/>
        <pt x="444" y="36" on="0"/>
        <pt x="339" y="-12" on="0"/>
        <pt x="273" y="-12" on="1"/>
        <pt x="206" y="-12" on="0"/>
        <pt x="103" y="36" on="0"/>
        <pt x="46" y="122" on="0"/>
        <pt x="46" y="176" on="1"/>
        <pt x="46" y="239" on="0"/>
        <pt x="115" y="324" on="0"/>
        <pt x="181" y="352" on="1"/>
        <pt x="126" y="379" on="0"/>
        <pt x="75" y="455" on="0"/>
        <pt x="75" y="507" on="1"/>
        <pt x="75" y="561" on="0"/>
        <pt x="131" y="639" on="0"/>
        <pt x="223" y="679" on="0"/>
        <pt x="275" y="679" on="1"/>
        <pt x="327" y="679" on="0"/>
        <pt x="418" y="641" on="0"/>
        <pt x="475" y="564" on="0"/>
        <pt x="475" y="510" on="1"/>
        <pt x="475" y="460" on="0"/>
        <pt x="419" y="388" on="0"/>
        <pt x="360" y="358" on="1"/>
      </contour>
      <contour>
        <pt x="222" y="613" on="0"/>
        <pt x="159" y="557" on="0"/>
        <pt x="159" y="506" on="1"/>
        <pt x="159" y="458" on="0"/>
        <pt x="218" y="407" on="0"/>
        <pt x="283" y="386" on="1"/>
        <pt x="302" y="379" on="1"/>
        <pt x="349" y="406" on="0"/>
        <pt x="391" y="464" on="0"/>
        <pt x="391" y="507" on="1"/>
        <pt x="391" y="556" on="0"/>
        <pt x="330" y="613" on="0"/>
        <pt x="275" y="613" on="1"/>
      </contour>
      <contour>
        <pt x="338" y="57" on="0"/>
        <pt x="413" y="122" on="0"/>
        <pt x="413" y="177" on="1"/>
        <pt x="413" y="214" on="0"/>
        <pt x="385" y="264" on="0"/>
        <pt x="322" y="301" on="0"/>
        <pt x="266" y="320" on="1"/>
        <pt x="239" y="330" on="1"/>
        <pt x="186" y="306" on="0"/>
        <pt x="136" y="231" on="0"/>
        <pt x="136" y="176" on="1"/>
        <pt x="136" y="120" on="0"/>
        <pt x="210" y="57" on="0"/>
        <pt x="274" y="57" on="1"/>
      </contour>
    </TTGlyph>
    <TTGlyph name="eight.tf" xMin="49" yMin="-12" xMax="510" yMax="700">
      <contour>
        <pt x="437" y="340" on="0"/>
        <pt x="510" y="250" on="0"/>
        <pt x="510" y="183" on="1"/>
        <pt x="510" y="126" on="0"/>
        <pt x="451" y="37" on="0"/>
        <pt x="345" y="-12" on="0"/>
        <pt x="278" y="-12" on="1"/>
        <pt x="210" y="-12" on="0"/>
        <pt x="106" y="36" on="0"/>
        <pt x="49" y="124" on="0"/>
        <pt x="49" y="180" on="1"/>
        <pt x="49" y="304" on="0"/>
        <pt x="185" y="362" on="1"/>
        <pt x="129" y="389" on="0"/>
        <pt x="78" y="467" on="0"/>
        <pt x="78" y="522" on="1"/>
        <pt x="78" y="579" on="0"/>
        <pt x="135" y="659" on="0"/>
        <pt x="227" y="700" on="0"/>
        <pt x="280" y="700" on="1"/>
        <pt x="332" y="700" on="0"/>
        <pt x="425" y="661" on="0"/>
        <pt x="482" y="582" on="0"/>
        <pt x="482" y="525" on="1"/>
        <pt x="482" y="473" on="0"/>
        <pt x="426" y="398" on="0"/>
        <pt x="367" y="368" on="1"/>
      </contour>
      <contour>
        <pt x="225" y="635" on="0"/>
        <pt x="162" y="577" on="0"/>
        <pt x="162" y="521" on="1"/>
        <pt x="162" y="469" on="0"/>
        <pt x="224" y="415" on="0"/>
        <pt x="295" y="392" on="1"/>
        <pt x="307" y="389" on="1"/>
        <pt x="356" y="415" on="0"/>
        <pt x="398" y="475" on="0"/>
        <pt x="398" y="520" on="1"/>
        <pt x="398" y="574" on="0"/>
        <pt x="335" y="635" on="0"/>
        <pt x="280" y="635" on="1"/>
      </contour>
      <contour>
        <pt x="343" y="57" on="0"/>
        <pt x="420" y="125" on="0"/>
        <pt x="420" y="180" on="1"/>
        <pt x="420" y="221" on="0"/>
        <pt x="391" y="274" on="0"/>
        <pt x="326" y="313" on="0"/>
        <pt x="268" y="330" on="1"/>
        <pt x="244" y="339" on="1"/>
        <pt x="190" y="315" on="0"/>
        <pt x="139" y="239" on="0"/>
        <pt x="139" y="181" on="1"/>
        <pt x="139" y="122" on="0"/>
        <pt x="214" y="57" on="0"/>
        <pt x="278" y="57" on="1"/>
      </contour>
    </TTGlyph>
    <TTGlyph name="eight.tosf" xMin="53" yMin="-12" xMax="513" yMax="679">
      <contour>
        <pt x="513" y="300" on="0"/>
        <pt x="513" y="178" on="1"/>
        <pt x="513" y="123" on="0"/>
        <pt x="454" y="36" on="0"/>
        <pt x="349" y="-12" on="0"/>
        <pt x="282" y="-12" on="1"/>
        <pt x="214" y="-12" on="0"/>
        <pt x="110" y="36" on="0"/>
        <pt x="53" y="122" on="0"/>
        <pt x="53" y="176" on="1"/>
        <pt x="53" y="239" on="0"/>
        <pt x="122" y="324" on="0"/>
        <pt x="188" y="352" on="1"/>
        <pt x="133" y="379" on="0"/>
        <pt x="81" y="455" on="0"/>
        <pt x="81" y="508" on="1"/>
        <pt x="81" y="561" on="0"/>
        <pt x="138" y="639" on="0"/>
        <pt x="231" y="679" on="0"/>
        <pt x="284" y="679" on="1"/>
        <pt x="336" y="679" on="0"/>
        <pt x="429" y="640" on="0"/>
        <pt x="486" y="564" on="0"/>
        <pt x="486" y="510" on="1"/>
        <pt x="486" y="460" on="0"/>
        <pt x="430" y="388" on="0"/>
        <pt x="371" y="358" on="1"/>
      </contour>
      <contour>
        <pt x="229" y="613" on="0"/>
        <pt x="166" y="557" on="0"/>
        <pt x="166" y="507" on="1"/>
        <pt x="166" y="458" on="0"/>
        <pt x="225" y="406" on="0"/>
        <pt x="292" y="385" on="1"/>
        <pt x="312" y="379" on="1"/>
        <pt x="360" y="405" on="0"/>
        <pt x="402" y="464" on="0"/>
        <pt x="402" y="507" on="1"/>
        <pt x="402" y="556" on="0"/>
        <pt x="340" y="613" on="0"/>
        <pt x="284" y="613" on="1"/>
      </contour>
      <contour>
        <pt x="348" y="57" on="0"/>
        <pt x="423" y="122" on="0"/>
        <pt x="423" y="177" on="1"/>
        <pt x="423" y="231" on="0"/>
        <pt x="358" y="291" on="0"/>
        <pt x="275" y="319" on="1"/>
        <pt x="246" y="330" on="1"/>
        <pt x="193" y="306" on="0"/>
        <pt x="143" y="231" on="0"/>
        <pt x="143" y="176" on="1"/>
        <pt x="143" y="120" on="0"/>
        <pt x="218" y="57" on="0"/>
        <pt x="283" y="57" on="1"/>
      </contour>
    </TTGlyph>
    <TTGlyph name="ellipsis" xMin="293" yMin="-12" xMax="424" yMax="119">
      <component glyphName="period" x="242" y="0" flags="0x0"/>
      <component glyphName="period" x="485" y="0" flags="0x0"/>
      <component glyphName="period" x="0" y="0" flags="0x0"/>
    </TTGlyph>
    <TTGlyph name="emacron" xMin="58" yMin="-12" xMax="490" yMax="734">
      <component glyphName="e" x="0" y="0" flags="0x0"/>
      <component glyphName="uni0304" x="441" y="0" flags="0x0"/>
    </TTGlyph>
    <TTGlyph name="emacron.sc" xMin="102" yMin="0" xMax="433" yMax="764">
      <component glyphName="e.sc" x="0" y="0" flags="0x0"/>
      <component glyphName="uni0304.sc" x="103" y="0" flags="0x0"/>
    </TTGlyph>
</ttFont>
